<?xml version="1.0" encoding="iso-8859-1"?>
<!-- Generator: Adobe Illustrator 18.1.1, SVG Export Plug-In . SVG Version: 6.00 Build 0)  -->
<svg version="1.1" id="Capa_1" xmlns="http://www.w3.org/2000/svg" xmlns:xlink="http://www.w3.org/1999/xlink" x="0px" y="0px"
	 viewBox="0 0 19 19" style="enable-background:new 0 0 19 19;" xml:space="preserve">
<g>
	<g>
		<path style="fill:#030104;" d="M18,11h-6c-0.553,0-1-0.448-1-1s0.447-1,1-1h6c0.553,0,1,0.448,1,1S18.553,11,18,11z"/>
	</g>
	<g>
		<path style="fill:#030104;" d="M15,14c-0.553,0-1-0.448-1-1V7c0-0.552,0.447-1,1-1s1,0.448,1,1v6C16,13.552,15.553,14,15,14z"/>
	</g>
	<g>
		<path style="fill:#030104;" d="M6,3c1.654,0,3,1.346,3,3S7.654,9,6,9S3,7.654,3,6S4.346,3,6,3 M6,1C3.236,1,1,3.238,1,6
			s2.236,5,5,5s5-2.238,5-5S8.764,1,6,1z"/>
	</g>
	<g>
		<g>
			<path style="fill:#030104;" d="M6,14c2.021,0,3.301,0.771,3.783,1.445C9.1,15.705,7.814,16,6,16
				c-1.984,0-3.206-0.305-3.818-0.542C2.641,14.743,3.959,14,6,14 M6,12c-3.75,0-6,2-6,4c0,1,2.25,2,6,2c3.518,0,6-1,6-2
				C12,14,9.646,12,6,12z"/>
		</g>
	</g>
</g>
<g>
</g>
<g>
</g>
<g>
</g>
<g>
</g>
<g>
</g>
<g>
</g>
<g>
</g>
<g>
</g>
<g>
</g>
<g>
</g>
<g>
</g>
<g>
</g>
<g>
</g>
<g>
</g>
<g>
</g>
</svg>
