<?xml version="1.0" encoding="iso-8859-1"?>
<!-- Generator: Adobe Illustrator 18.1.1, SVG Export Plug-In . SVG Version: 6.00 Build 0)  -->
<svg version="1.1" id="Capa_1" xmlns="http://www.w3.org/2000/svg" xmlns:xlink="http://www.w3.org/1999/xlink" x="0px" y="0px"
	 viewBox="0 0 19 19" style="enable-background:new 0 0 19 19;" xml:space="preserve">
<g>
	<g id="Layer_1_85_">
		<path style="fill:#030104;" d="M17.218,14.301c-0.017-0.018-1.717-1.854-1.73-6.32c-0.009-2.607-1.69-4.824-4.019-5.641
			c0.018-0.111,0.034-0.223,0.034-0.34c0-1.103-0.896-2-2-2s-2,0.897-2,2c0,0.116,0.016,0.228,0.034,0.338
			C5.201,3.154,3.518,5.374,3.518,7.984c0,4.462-1.711,6.296-1.721,6.306c-0.287,0.286-0.374,0.716-0.22,1.091S2.098,16,2.503,16
			h3.143c0.447,1.72,1.999,3,3.857,3s3.41-1.28,3.857-3h3.143c0.4,0,0.758-0.243,0.915-0.61S17.494,14.591,17.218,14.301z M9.503,4
			c2.189,0,3.978,1.789,3.984,3.987c0.002,0.728,0.046,1.396,0.118,2.013h-8.2c0.071-0.617,0.113-1.286,0.113-2.016
			C5.519,5.788,7.306,4,9.503,4z M9.503,17c-0.737,0-1.375-0.405-1.722-1h3.443C10.878,16.595,10.24,17,9.503,17z M4.317,14
			c0.352-0.736,0.705-1.731,0.938-3h8.502c0.234,1.269,0.588,2.264,0.938,3H4.317z"/>
	</g>
</g>
<g>
</g>
<g>
</g>
<g>
</g>
<g>
</g>
<g>
</g>
<g>
</g>
<g>
</g>
<g>
</g>
<g>
</g>
<g>
</g>
<g>
</g>
<g>
</g>
<g>
</g>
<g>
</g>
<g>
</g>
</svg>
