<?xml version="1.0" encoding="iso-8859-1"?>
<!-- Generator: Adobe Illustrator 18.1.1, SVG Export Plug-In . SVG Version: 6.00 Build 0)  -->
<svg version="1.1" id="Capa_1" xmlns="http://www.w3.org/2000/svg"  x="0px" y="0px"
	 viewBox="0 0 19 19" style="enable-background:new 0 0 19 19;" xml:space="preserve">
<g>
	<g id="Layer_1_44_">
		<g>
			<path style="fill:#030104;" d="M11,9H8C7.724,9,7.5,9.224,7.5,9.5S7.724,10,8,10h3c0.276,0,0.5-0.224,0.5-0.5S11.276,9,11,9z"/>
			<path style="fill:#030104;" d="M18,2H1C0.447,2,0,2.448,0,3s0.447,1,1,1h17c0.553,0,1-0.448,1-1S18.553,2,18,2z"/>
			<path style="fill:#030104;" d="M16,5H3C2.447,5,2,5.448,2,6v8c0,1.654,1.346,3,3,3h9c1.654,0,3-1.346,3-3V6
				C17,5.448,16.553,5,16,5z M14,15H5c-0.552,0-1-0.449-1-1V7h11v7C15,14.551,14.552,15,14,15z"/>
		</g>
	</g>
</g>
<g>
</g>
<g>
</g>
<g>
</g>
<g>
</g>
<g>
</g>
<g>
</g>
<g>
</g>
<g>
</g>
<g>
</g>
<g>
</g>
<g>
</g>
<g>
</g>
<g>
</g>
<g>
</g>
<g>
</g>
</svg>
