<?xml version="1.0" encoding="iso-8859-1"?>
<!-- Generator: Adobe Illustrator 18.1.1, SVG Export Plug-In . SVG Version: 6.00 Build 0)  -->
<svg version="1.1" id="Capa_1" xmlns="http://www.w3.org/2000/svg" xmlns:xlink="http://www.w3.org/1999/xlink" x="0px" y="0px"
	 viewBox="0 0 18 18" style="enable-background:new 0 0 18 18;" xml:space="preserve">
<g>
	<g>
		<path style="fill:#030104;" d="M16.164,16.289c-1.641-2.5-3.669-3.285-6.164-3.484v1.437c0,0.534-0.208,1.036-0.586,1.414
			c-0.756,0.756-2.077,0.751-2.823,0.005L0.298,9.454C0.107,9.265,0,9.01,0,8.741s0.107-0.524,0.298-0.712l6.288-6.203
			C7.34,1.071,8.659,1.07,9.415,1.827C9.792,2.205,10,2.707,10,3.241v1.704c4.619,0.933,8,4.997,8,9.796v1
			c0,0.442-0.29,0.832-0.714,0.958c-0.095,0.027-0.19,0.042-0.286,0.042C16.669,16.741,16.354,16.576,16.164,16.289z M9.023,10.753
			c2.207,0.056,4.638,0.394,6.758,2.121c-0.768-3.216-3.477-5.702-6.893-6.08C8.384,6.738,8,6.742,8,6.742V3.245L2.424,8.741
			L8,14.241v-3.499C8,10.742,8.738,10.752,9.023,10.753z"/>
	</g>
</g>
<g>
</g>
<g>
</g>
<g>
</g>
<g>
</g>
<g>
</g>
<g>
</g>
<g>
</g>
<g>
</g>
<g>
</g>
<g>
</g>
<g>
</g>
<g>
</g>
<g>
</g>
<g>
</g>
<g>
</g>
</svg>
