<?xml version="1.0" encoding="iso-8859-1"?>
<!-- Generator: Adobe Illustrator 18.1.1, SVG Export Plug-In . SVG Version: 6.00 Build 0)  -->
<svg version="1.1" id="Capa_1" xmlns="http://www.w3.org/2000/svg"  x="0px" y="0px"
	 viewBox="0 0 19 19" style="enable-background:new 0 0 19 19;" xml:space="preserve">
<g>
	<path style="fill:#030104;" d="M11.5,2c0-1.105-0.896-2-2-2s-2,0.895-2,2v12h4V2z"/>
	<path style="fill:#030104;" d="M16.5,6c0-1.105-0.896-2-2-2s-2,0.895-2,2v8h4V6z"/>
	<path style="fill:#030104;" d="M6.5,9c0-1.105-0.896-2-2-2s-2,0.895-2,2v5h4V9z"/>
	<path style="fill:#030104;" d="M16.5,17h-14c-0.553,0-1,0.447-1,1s0.447,1,1,1h14c0.553,0,1-0.447,1-1S17.053,17,16.5,17z"/>
</g>
<g>
</g>
<g>
</g>
<g>
</g>
<g>
</g>
<g>
</g>
<g>
</g>
<g>
</g>
<g>
</g>
<g>
</g>
<g>
</g>
<g>
</g>
<g>
</g>
<g>
</g>
<g>
</g>
<g>
</g>
</svg>
