<?xml version="1.0" encoding="iso-8859-1"?>
<!-- Generator: Adobe Illustrator 18.1.1, SVG Export Plug-In . SVG Version: 6.00 Build 0)  -->
<svg version="1.1" id="Capa_1" xmlns="http://www.w3.org/2000/svg" xmlns:xlink="http://www.w3.org/1999/xlink" x="0px" y="0px"
	 viewBox="0 0 20 20" style="enable-background:new 0 0 20 20;" xml:space="preserve">
<g>
	<path style="fill:#030104;" d="M15,4c-0.771,0-1.468,0.301-2,0.779V3c0-1.654-1.346-3-3-3S7,1.346,7,3v4.779
		C6.468,7.301,5.771,7,5,7c-1.654,0-3,1.346-3,3v6h16V7C18,5.346,16.654,4,15,4z M10,2c0.551,0,1,0.448,1,1v11H9V3
		C9,2.448,9.449,2,10,2z M6,14H4v-4c0-0.552,0.449-1,1-1s1,0.448,1,1V14z M16,14h-2V7c0-0.552,0.449-1,1-1s1,0.448,1,1V14z"/>
	<g>
		<path style="fill:#030104;" d="M17,20H3c-0.552,0-1-0.447-1-1s0.448-1,1-1h14c0.552,0,1,0.447,1,1S17.552,20,17,20z"/>
	</g>
</g>
<g>
</g>
<g>
</g>
<g>
</g>
<g>
</g>
<g>
</g>
<g>
</g>
<g>
</g>
<g>
</g>
<g>
</g>
<g>
</g>
<g>
</g>
<g>
</g>
<g>
</g>
<g>
</g>
<g>
</g>
</svg>
