<?xml version="1.0" encoding="iso-8859-1"?>
<!-- Generator: Adobe Illustrator 18.1.1, SVG Export Plug-In . SVG Version: 6.00 Build 0)  -->
<svg version="1.1" id="Capa_1" xmlns="http://www.w3.org/2000/svg"  x="0px" y="0px"
	 viewBox="0 0 18 18" style="enable-background:new 0 0 18 18;" xml:space="preserve">
<g>
	<g id="Layer_1_87_">
		<g>
			<path style="fill:#030104;" d="M5.5,13.5C5.5,13.775,5.275,14,5,14s-0.5-0.225-0.5-0.5v-6C4.5,7.225,4.725,7,5,7
				s0.5,0.225,0.5,0.5V13.5z"/>
		</g>
		<g>
			<path style="fill:#030104;" d="M7.5,13.5C7.5,13.775,7.275,14,7,14s-0.5-0.225-0.5-0.5v-6C6.5,7.225,6.725,7,7,7
				s0.5,0.225,0.5,0.5V13.5z"/>
		</g>
		<g>
			<path style="fill:#030104;" d="M9.5,13.5C9.5,13.775,9.275,14,9,14s-0.5-0.225-0.5-0.5v-6C8.5,7.225,8.725,7,9,7
				s0.5,0.225,0.5,0.5V13.5z"/>
		</g>
		<path style="fill:#030104;" d="M14,3h-0.5V2c0-1.104-0.896-2-2-2h-9c-1.104,0-2,0.896-2,2v13c0,1.656,1.344,3,3,3h7
			c1.656,0,3-1.344,3-3H14c1.93,0,3.5-1.57,3.5-3.5v-5C17.5,4.57,15.93,3,14,3z M2.5,2h9v1H7.056L6.938,3.332
			C6.774,3.79,6.275,4.062,5.821,3.98L5.473,3.922L5.3,4.229C5.033,4.704,4.535,5,4,5C3.173,5,2.5,4.327,2.5,3.5V3V2z M11.5,15
			c0,0.552-0.448,1-1,1h-7c-0.552,0-1-0.448-1-1V5.49C2.919,5.807,3.436,6,4,6c0.784,0,1.521-0.376,1.989-1
			c0.728,0,1.383-0.391,1.736-1H11.5v1V15z M15.5,11.5c0,0.827-0.673,1.5-1.5,1.5h-1.5V5H14c0.827,0,1.5,0.673,1.5,1.5V11.5z"/>
	</g>
</g>
<g>
</g>
<g>
</g>
<g>
</g>
<g>
</g>
<g>
</g>
<g>
</g>
<g>
</g>
<g>
</g>
<g>
</g>
<g>
</g>
<g>
</g>
<g>
</g>
<g>
</g>
<g>
</g>
<g>
</g>
</svg>
