<?xml version="1.0" encoding="iso-8859-1"?>
<!-- Generator: Adobe Illustrator 18.1.1, SVG Export Plug-In . SVG Version: 6.00 Build 0)  -->
<svg version="1.1" id="Capa_1" xmlns="http://www.w3.org/2000/svg" xmlns:xlink="http://www.w3.org/1999/xlink" x="0px" y="0px"
	 viewBox="0 0 22.5 22.5" style="enable-background:new 0 0 22.5 22.5;" xml:space="preserve">
<g>
	<g id="Layer_1_77_">
		<g>
			<circle style="fill:#030104;" cx="11.25" cy="5" r="1"/>
		</g>
		<g>
			<path style="fill:#030104;" d="M19.043,11.096c0.134-0.34,0.207-0.709,0.207-1.096c0-1.654-1.346-3-3-3h-0.422
				c0.273-0.619,0.422-1.297,0.422-2c0-2.757-2.243-5-5-5s-5,2.243-5,5c0,0.703,0.149,1.381,0.422,2H6.25c-1.654,0-3,1.346-3,3
				c0,0.387,0.073,0.756,0.207,1.096C2.725,11.644,2.25,12.518,2.25,13.5c0,4.963,4.037,9,9,9s9-4.037,9-9
				C20.25,12.518,19.775,11.644,19.043,11.096z M11.25,20.5c-3.859,0-7-3.141-7-7c0-0.553,0.447-1,1-1s1,0.447,1,1
				c0,2.414,1.721,4.434,4,4.898V11h-4c-0.553,0-1-0.447-1-1s0.447-1,1-1h4V7.816c-1.162-0.413-2-1.511-2-2.816c0-1.657,1.343-3,3-3
				s3,1.343,3,3c0,1.305-0.838,2.403-2,2.816V9h4c0.553,0,1,0.447,1,1s-0.447,1-1,1h-4v7.398c2.279-0.465,4-2.484,4-4.898
				c0-0.553,0.447-1,1-1s1,0.447,1,1C18.25,17.359,15.109,20.5,11.25,20.5z M6.571,12H9.25v4.962c-1.207-0.701-2-2.009-2-3.462
				C7.25,12.903,6.987,12.367,6.571,12z M15.929,12c-0.416,0.367-0.679,0.903-0.679,1.5c0,1.453-0.793,2.761-2,3.462V12H15.929z"/>
			<circle style="fill:#030104;" cx="11.25" cy="5" r="1"/>
		</g>
	</g>
</g>
<g>
</g>
<g>
</g>
<g>
</g>
<g>
</g>
<g>
</g>
<g>
</g>
<g>
</g>
<g>
</g>
<g>
</g>
<g>
</g>
<g>
</g>
<g>
</g>
<g>
</g>
<g>
</g>
<g>
</g>
</svg>
