<?xml version="1.0" encoding="iso-8859-1"?>
<!-- Generator: Adobe Illustrator 18.1.1, SVG Export Plug-In . SVG Version: 6.00 Build 0)  -->
<svg version="1.1" id="Capa_1" xmlns="http://www.w3.org/2000/svg"  x="0px" y="0px"
	 viewBox="0 0 18.5 18.5" style="enable-background:new 0 0 18.5 18.5;" xml:space="preserve">
<g>
	<g>
		<path style="fill:#030104;" d="M15.25,10.5c-0.553,0-1,0.447-1,1c0,2.414-1.721,4.434-4,4.898V9h4c0.553,0,1-0.447,1-1
			s-0.447-1-1-1h-4V5.816c1.162-0.413,2-1.511,2-2.816c0-1.657-1.343-3-3-3s-3,1.343-3,3c0,1.305,0.838,2.403,2,2.816V7h-4
			c-0.553,0-1,0.447-1,1s0.447,1,1,1h4v7.398c-2.279-0.465-4-2.484-4-4.898c0-0.553-0.447-1-1-1s-1,0.447-1,1c0,3.859,3.141,7,7,7
			s7-3.141,7-7C16.25,10.947,15.803,10.5,15.25,10.5z M9.25,2c0.551,0,1,0.449,1,1s-0.449,1-1,1s-1-0.449-1-1S8.699,2,9.25,2z"/>
	</g>
</g>
<g>
</g>
<g>
</g>
<g>
</g>
<g>
</g>
<g>
</g>
<g>
</g>
<g>
</g>
<g>
</g>
<g>
</g>
<g>
</g>
<g>
</g>
<g>
</g>
<g>
</g>
<g>
</g>
<g>
</g>
</svg>
