<?xml version="1.0" encoding="iso-8859-1"?>
<!-- Generator: Adobe Illustrator 18.1.1, SVG Export Plug-In . SVG Version: 6.00 Build 0)  -->
<svg version="1.1" id="Capa_1" xmlns="http://www.w3.org/2000/svg" xmlns:xlink="http://www.w3.org/1999/xlink" x="0px" y="0px"
	 viewBox="0 0 18 18" style="enable-background:new 0 0 18 18;" xml:space="preserve">
<g>
	<g id="Layer_1_65_">
		<g>
			<path style="fill:#030104;" d="M15,4c0-1.654-1.346-3-3-3H6C4.346,1,3,2.346,3,4C1.346,4,0,5.346,0,7v7c0,1.654,1.346,3,3,3h12
				c1.654,0,3-1.346,3-3V7C18,5.346,16.654,4,15,4z M6,3h6c0.551,0,1,0.449,1,1H5C5,3.449,5.449,3,6,3z M16,14c0,0.551-0.449,1-1,1
				H3c-0.551,0-1-0.449-1-1v-1h14V14z M2,12V7c0-0.551,0.449-1,1-1h12c0.551,0,1,0.449,1,1v5H2z"/>
			<path style="fill:#030104;" d="M10,9H8c-0.55,0-1,0.45-1,1s0.45,1,1,1h2c0.55,0,1-0.45,1-1S10.55,9,10,9z"/>
		</g>
	</g>
</g>
<g>
</g>
<g>
</g>
<g>
</g>
<g>
</g>
<g>
</g>
<g>
</g>
<g>
</g>
<g>
</g>
<g>
</g>
<g>
</g>
<g>
</g>
<g>
</g>
<g>
</g>
<g>
</g>
<g>
</g>
</svg>
