<?xml version="1.0" encoding="iso-8859-1"?>
<!-- Generator: Adobe Illustrator 18.1.1, SVG Export Plug-In . SVG Version: 6.00 Build 0)  -->
<svg version="1.1" id="Capa_1" xmlns="http://www.w3.org/2000/svg" xmlns:xlink="http://www.w3.org/1999/xlink" x="0px" y="0px"
	 viewBox="0 0 18.796 18.796" style="enable-background:new 0 0 18.796 18.796;" xml:space="preserve">
<g>
	<g>
		<path style="fill:#030104;" d="M9.398,4.332l1-2.934c0.072-0.213,0.078-0.452,0-0.682C10.21,0.163,9.609-0.132,9.057,0.057
			C8.504,0.246,8.21,0.845,8.398,1.398L9.398,4.332z"/>
		<path style="fill:#030104;" d="M1.398,8.398c-0.213-0.072-0.452-0.078-0.682,0C0.163,8.586-0.132,9.187,0.057,9.739
			c0.189,0.553,0.788,0.847,1.341,0.659l2.934-1L1.398,8.398z"/>
		<path style="fill:#030104;" d="M9.398,14.464l-1,2.934c-0.072,0.213-0.078,0.452,0,0.682c0.188,0.553,0.789,0.848,1.341,0.659
			c0.553-0.189,0.847-0.788,0.659-1.341L9.398,14.464z"/>
		<path style="fill:#030104;" d="M18.739,9.055c-0.188-0.553-0.788-0.848-1.341-0.659l-2.934,1l2.934,1
			c0.213,0.072,0.452,0.078,0.682,0C18.632,10.208,18.927,9.607,18.739,9.055z"/>
		<path style="fill:#030104;" d="M3.034,4.448l2.781,1.367L4.448,3.034c-0.1-0.202-0.265-0.375-0.482-0.482
			C3.442,2.294,2.809,2.51,2.551,3.034C2.294,3.557,2.51,4.191,3.034,4.448z"/>
		<path style="fill:#030104;" d="M2.551,14.83c-0.257,0.523-0.041,1.156,0.482,1.414c0.523,0.257,1.157,0.041,1.414-0.482
			l1.367-2.781l-2.781,1.367C2.832,14.447,2.659,14.611,2.551,14.83z"/>
		<path style="fill:#030104;" d="M15.761,14.347L12.98,12.98l1.367,2.781c0.1,0.202,0.264,0.375,0.482,0.482
			c0.523,0.257,1.156,0.041,1.414-0.482C16.501,15.238,16.285,14.604,15.761,14.347z"/>
		<path style="fill:#030104;" d="M16.242,3.964c0.258-0.524,0.042-1.157-0.481-1.415c-0.523-0.257-1.157-0.041-1.414,0.482
			l-1.369,2.783l2.782-1.368C15.962,4.346,16.135,4.182,16.242,3.964z"/>
		<path style="fill:#030104;" d="M9.398,4.898c-2.481,0-4.5,2.019-4.5,4.5s2.019,4.5,4.5,4.5s4.5-2.019,4.5-4.5
			S11.879,4.898,9.398,4.898z"/>
	</g>
</g>
<g>
</g>
<g>
</g>
<g>
</g>
<g>
</g>
<g>
</g>
<g>
</g>
<g>
</g>
<g>
</g>
<g>
</g>
<g>
</g>
<g>
</g>
<g>
</g>
<g>
</g>
<g>
</g>
<g>
</g>
</svg>
