<?xml version="1.0" encoding="iso-8859-1"?>
<!-- Generator: Adobe Illustrator 18.1.1, SVG Export Plug-In . SVG Version: 6.00 Build 0)  -->
<svg version="1.1" id="Capa_1" xmlns="http://www.w3.org/2000/svg"  x="0px" y="0px"
	 viewBox="0 0 18.044 18.044" style="enable-background:new 0 0 18.044 18.044;" xml:space="preserve">
<g>
	<path style="fill:#030104;" d="M17.458,0.586C17.076,0.203,16.564,0,16.043,0c-0.25,0-0.503,0.047-0.744,0.144
		C10.85,1.931,7.507,4.904,4.782,9.501C4.68,9.673,4.619,9.856,4.573,10.043c-1.38,0.215-2.6,0.903-3.442,1.993
		c-0.916,1.185-1.295,2.695-1.066,4.254l0.216,1.473l1.473,0.217c0.293,0.043,0.589,0.064,0.88,0.064
		c2.743,0,4.949-1.909,5.367-4.564c0.188-0.047,0.371-0.115,0.544-0.218c4.598-2.728,7.571-6.069,9.355-10.517
		C18.198,2.002,18.023,1.152,17.458,0.586z M2.634,16.044c-0.192,0-0.389-0.016-0.59-0.044c-0.309-2.104,1.055-3.81,3-4.021
		L6.065,13C5.873,14.76,4.46,16.044,2.634,16.044z M7.524,11.542l-1.021-1.021c0.38-0.641,0.774-1.233,1.178-1.804
		C7.708,8.758,9.32,10.37,9.32,10.37C8.752,10.771,8.162,11.164,7.524,11.542z M10.132,9.769c0,0-1.821-1.801-1.879-1.824
		c2.147-2.784,4.651-4.685,7.791-5.943C14.789,5.129,12.9,7.625,10.132,9.769z"/>
</g>
<g>
</g>
<g>
</g>
<g>
</g>
<g>
</g>
<g>
</g>
<g>
</g>
<g>
</g>
<g>
</g>
<g>
</g>
<g>
</g>
<g>
</g>
<g>
</g>
<g>
</g>
<g>
</g>
<g>
</g>
</svg>
