<?xml version="1.0" encoding="iso-8859-1"?>
<!-- Generator: Adobe Illustrator 18.1.1, SVG Export Plug-In . SVG Version: 6.00 Build 0)  -->
<svg version="1.1" id="Capa_1" xmlns="http://www.w3.org/2000/svg"  x="0px" y="0px"
	 viewBox="0 0 22 22" style="enable-background:new 0 0 22 22;" xml:space="preserve">
<g>
	<g id="Layer_1_50_">
		<g>
			<path style="fill:#030104;" d="M19,19H3c-1.654,0-3-1.346-3-3V6c0-1.654,1.346-3,3-3h16c1.654,0,3,1.346,3,3v10
				C22,17.654,20.654,19,19,19z M3,5C2.449,5,2,5.449,2,6v10c0,0.551,0.449,1,1,1h16c0.551,0,1-0.449,1-1V6c0-0.551-0.449-1-1-1H3z"
				/>
		</g>
		<g>
			<path style="fill:#030104;" d="M9,14H5c-0.553,0-1-0.448-1-1s0.447-1,1-1h4c0.553,0,1,0.448,1,1S9.553,14,9,14z"/>
		</g>
		<g>
			<path style="fill:#030104;" d="M9,10H5c-0.553,0-1-0.448-1-1s0.447-1,1-1h4c0.553,0,1,0.448,1,1S9.553,10,9,10z"/>
		</g>
		<g>
			<circle style="fill:#030104;" cx="15" cy="9.5" r="2"/>
		</g>
		<g>
			<g>
				<path style="fill:#030104;" d="M15,12.356c-1.562,0-2.5,0.715-2.5,1.429c0,0.357,0.938,0.715,2.5,0.715
					c1.466,0,2.5-0.357,2.5-0.715C17.5,13.071,16.52,12.356,15,12.356z"/>
			</g>
		</g>
	</g>
</g>
<g>
</g>
<g>
</g>
<g>
</g>
<g>
</g>
<g>
</g>
<g>
</g>
<g>
</g>
<g>
</g>
<g>
</g>
<g>
</g>
<g>
</g>
<g>
</g>
<g>
</g>
<g>
</g>
<g>
</g>
</svg>
