<?xml version="1.0" encoding="iso-8859-1"?>
<!-- Generator: Adobe Illustrator 18.1.1, SVG Export Plug-In . SVG Version: 6.00 Build 0)  -->
<svg version="1.1" id="Capa_1" xmlns="http://www.w3.org/2000/svg" xmlns:xlink="http://www.w3.org/1999/xlink" x="0px" y="0px"
	 viewBox="0 0 18 18" style="enable-background:new 0 0 18 18;" xml:space="preserve">
<g>
	<g id="Layer_1_118_">
		<g>
			<path style="fill:#030104;" d="M13,18H5c-1.654,0-3-1.346-3-3V3c0-1.654,1.346-3,3-3h8c1.654,0,3,1.346,3,3v12
				C16,16.654,14.654,18,13,18z M5,2C4.449,2,4,2.449,4,3v12c0,0.551,0.449,1,1,1h8c0.551,0,1-0.449,1-1V3c0-0.551-0.449-1-1-1H5z"
				/>
		</g>
		<g>
			<circle style="fill:#030104;" cx="6" cy="8" r="1"/>
		</g>
		<g>
			<circle style="fill:#030104;" cx="9" cy="8" r="1"/>
		</g>
		<g>
			<circle style="fill:#030104;" cx="12" cy="8" r="1"/>
		</g>
		<g>
			<circle style="fill:#030104;" cx="6" cy="11" r="1"/>
		</g>
		<g>
			<circle style="fill:#030104;" cx="9" cy="11" r="1"/>
		</g>
		<g>
			<circle style="fill:#030104;" cx="12" cy="11" r="1"/>
		</g>
		<g>
			<circle style="fill:#030104;" cx="6" cy="14" r="1"/>
		</g>
		<g>
			<circle style="fill:#030104;" cx="9" cy="14" r="1"/>
		</g>
		<g>
			<circle style="fill:#030104;" cx="12" cy="14" r="1"/>
		</g>
		<g>
			<path style="fill:#030104;" d="M12,4v1H6V4H12 M13,3h-1H6H5v1v1v1h1h6h1V5V4V3z"/>
		</g>
	</g>
</g>
<g>
</g>
<g>
</g>
<g>
</g>
<g>
</g>
<g>
</g>
<g>
</g>
<g>
</g>
<g>
</g>
<g>
</g>
<g>
</g>
<g>
</g>
<g>
</g>
<g>
</g>
<g>
</g>
<g>
</g>
</svg>
