<?xml version="1.0" encoding="iso-8859-1"?>
<!-- Generator: Adobe Illustrator 18.1.1, SVG Export Plug-In . SVG Version: 6.00 Build 0)  -->
<svg version="1.1" id="Capa_1" xmlns="http://www.w3.org/2000/svg"  x="0px" y="0px"
	 viewBox="0 0 18 18" style="enable-background:new 0 0 18 18;" xml:space="preserve">
<g>
	<path style="fill:#030104;" d="M16,3.184V3c0-1.657-1.343-3-3-3s-3,1.343-3,3H8c0-1.657-1.343-3-3-3S2,1.343,2,3v0.184
		C0.839,3.599,0,4.698,0,6v9c0,1.654,1.346,3,3,3h12c1.654,0,3-1.346,3-3V6C18,4.698,17.161,3.599,16,3.184z M12,3
		c0-0.552,0.447-1,1-1c0.553,0,1,0.448,1,1v2c0,0.552-0.447,1-1,1s-1-0.448-1-1V3z M4,3c0-0.552,0.447-1,1-1s1,0.448,1,1v2
		c0,0.552-0.447,1-1,1S4,5.552,4,5V3z M16,15c0,0.551-0.448,1-1,1H3c-0.552,0-1-0.449-1-1V9h14V15z"/>
</g>
<g>
</g>
<g>
</g>
<g>
</g>
<g>
</g>
<g>
</g>
<g>
</g>
<g>
</g>
<g>
</g>
<g>
</g>
<g>
</g>
<g>
</g>
<g>
</g>
<g>
</g>
<g>
</g>
<g>
</g>
</svg>
