<?xml version="1.0" encoding="iso-8859-1"?>
<!-- Generator: Adobe Illustrator 18.1.1, SVG Export Plug-In . SVG Version: 6.00 Build 0)  -->
<svg version="1.1" id="Capa_1" xmlns="http://www.w3.org/2000/svg"  x="0px" y="0px"
	 viewBox="0 0 17 17" style="enable-background:new 0 0 17 17;" xml:space="preserve">
<g>
	<g>
		<path style="fill:#030104;" d="M8.5,17C3.812,17,0,13.188,0,8.5S3.812,0,8.497,0C13.187,0,17,3.812,17,8.5S13.188,17,8.5,17z
			 M8.5,2C4.914,2,2,4.916,2,8.5S4.916,15,8.5,15S15,12.084,15,8.5S12.084,2,8.5,2z"/>
	</g>
	<g>
		<g>
			<path style="fill:#030104;" d="M8.503,5C10.432,5,12,6.57,12,8.5c0,0.206-0.02,0.412-0.057,0.615L7.886,5.056
				C8.089,5.02,8.294,5,8.5,5 M8.503,4c-0.882,0-1.696,0.262-2.39,0.697l6.188,6.188C12.739,10.193,13,9.377,13,8.498
				C13,6.018,10.986,4,8.503,4z"/>
		</g>
		<g>
			<path style="fill:#030104;" d="M5.057,7.884l4.059,4.06C8.912,11.98,8.707,12,8.5,12C6.57,12,5,10.43,5,8.498
				C5,8.292,5.02,8.086,5.057,7.884 M4.699,6.111C4.264,6.805,4,7.619,4,8.498C4,10.984,6.016,13,8.5,13
				c0.879,0,1.693-0.264,2.387-0.699L4.699,6.111z"/>
		</g>
	</g>
</g>
<g>
</g>
<g>
</g>
<g>
</g>
<g>
</g>
<g>
</g>
<g>
</g>
<g>
</g>
<g>
</g>
<g>
</g>
<g>
</g>
<g>
</g>
<g>
</g>
<g>
</g>
<g>
</g>
<g>
</g>
</svg>
