<?xml version="1.0" encoding="iso-8859-1"?>
<!-- Generator: Adobe Illustrator 18.1.1, SVG Export Plug-In . SVG Version: 6.00 Build 0)  -->
<svg version="1.1" id="Capa_1" xmlns="http://www.w3.org/2000/svg" xmlns:xlink="http://www.w3.org/1999/xlink" x="0px" y="0px"
	 viewBox="0 0 18 18" style="enable-background:new 0 0 18 18;" xml:space="preserve">
<g>
	<path style="fill:#030104;" d="M9,0C4.037,0,0,4.038,0,9s4.037,9,9,9s9-4.038,9-9S13.963,0,9,0z M9,16c-3.859,0-7-3.14-7-7
		s3.141-7,7-7s7,3.14,7,7S12.859,16,9,16z"/>
	<path style="fill:#030104;" d="M9.707,9l2.646-2.646c0.194-0.194,0.194-0.512,0-0.707c-0.195-0.194-0.513-0.194-0.707,0L9,8.293
		L6.354,5.646c-0.195-0.194-0.513-0.194-0.707,0c-0.195,0.195-0.195,0.513,0,0.707L8.293,9l-2.646,2.646
		c-0.195,0.195-0.195,0.513,0,0.707C5.744,12.451,5.872,12.5,6,12.5s0.256-0.049,0.354-0.146L9,9.707l2.646,2.646
		C11.744,12.451,11.872,12.5,12,12.5s0.256-0.049,0.354-0.146c0.194-0.194,0.194-0.512,0-0.707L9.707,9z"/>
</g>
<g>
</g>
<g>
</g>
<g>
</g>
<g>
</g>
<g>
</g>
<g>
</g>
<g>
</g>
<g>
</g>
<g>
</g>
<g>
</g>
<g>
</g>
<g>
</g>
<g>
</g>
<g>
</g>
<g>
</g>
</svg>
