<?xml version="1.0" encoding="iso-8859-1"?>
<!-- Generator: Adobe Illustrator 18.1.1, SVG Export Plug-In . SVG Version: 6.00 Build 0)  -->
<svg version="1.1" id="Capa_1" xmlns="http://www.w3.org/2000/svg"  x="0px" y="0px"
	 viewBox="0 0 19.657 19.657" style="enable-background:new 0 0 19.657 19.657;" xml:space="preserve">
<g>
	<g>
		<path style="fill:#030104;" d="M9.829,3.084c0.561,0,1.119,0.354,1.544,1.062L17.285,14c0.851,1.415,0.194,2.573-1.456,2.573h-12
			c-1.65,0-2.307-1.159-1.456-2.573l5.912-9.854C8.71,3.438,9.268,3.084,9.829,3.084 M9.829,1.084c-1.296,0-2.482,0.74-3.259,2.031
			l-5.912,9.856c-0.786,1.309-0.872,2.705-0.235,3.83s1.879,1.772,3.406,1.772h12c1.527,0,2.77-0.646,3.406-1.771
			s0.551-2.521-0.235-3.83l-5.912-9.854C12.311,1.824,11.125,1.084,9.829,1.084z"/>
	</g>
	<g>
		<circle style="fill:#030104;" cx="9.829" cy="13.573" r="1.3"/>
	</g>
	<g>
		<path style="fill:#030104;" d="M11.329,7.573c0-0.83-0.671-1.5-1.5-1.5s-1.5,0.67-1.5,1.5c0,0.199,0.041,0.389,0.111,0.562
			c0.554,1.376,1.389,3.438,1.389,3.438s0.835-2.062,1.391-3.438C11.288,7.962,11.329,7.772,11.329,7.573z"/>
	</g>
</g>
<g>
</g>
<g>
</g>
<g>
</g>
<g>
</g>
<g>
</g>
<g>
</g>
<g>
</g>
<g>
</g>
<g>
</g>
<g>
</g>
<g>
</g>
<g>
</g>
<g>
</g>
<g>
</g>
<g>
</g>
</svg>
