<?xml version="1.0" encoding="iso-8859-1"?>
<!-- Generator: Adobe Illustrator 18.1.1, SVG Export Plug-In . SVG Version: 6.00 Build 0)  -->
<svg version="1.1" id="Capa_1" xmlns="http://www.w3.org/2000/svg"  x="0px" y="0px"
	 viewBox="0 0 18 18" style="enable-background:new 0 0 18 18;" xml:space="preserve">
<g>
	<g id="Layer_1_35_">
		<g>
			<path style="fill:#030104;" d="M12.5,0h-7c-1.654,0-3,1.346-3,3v12c0,1.654,1.346,3,3,3h7c1.654,0,3-1.346,3-3V3
				C15.5,1.346,14.154,0,12.5,0z M13.5,15c0,0.551-0.449,1-1,1h-7c-0.551,0-1-0.449-1-1V3c0-0.551,0.449-1,1-1h7
				c0.551,0,1,0.449,1,1V15z"/>
			<path style="fill:#030104;" d="M11.5,3h-5c-0.55,0-1,0.45-1,1v9c0,0.55,0.45,1,1,1H8c0,0.553,0.448,1,1,1s1-0.447,1-1h1.5
				c0.55,0,1-0.45,1-1V4C12.5,3.45,12.05,3,11.5,3z M11.5,13h-5V4h5V13z"/>
		</g>
	</g>
</g>
<g>
</g>
<g>
</g>
<g>
</g>
<g>
</g>
<g>
</g>
<g>
</g>
<g>
</g>
<g>
</g>
<g>
</g>
<g>
</g>
<g>
</g>
<g>
</g>
<g>
</g>
<g>
</g>
<g>
</g>
</svg>
