<?xml version="1.0" encoding="iso-8859-1"?>
<!-- Generator: Adobe Illustrator 18.1.1, SVG Export Plug-In . SVG Version: 6.00 Build 0)  -->
<svg version="1.1" id="Capa_1" xmlns="http://www.w3.org/2000/svg" xmlns:xlink="http://www.w3.org/1999/xlink" x="0px" y="0px"
	 viewBox="0 0 18.2 18.2" style="enable-background:new 0 0 18.2 18.2;" xml:space="preserve">
<g>
	<g>
		<path style="fill:#030104;" d="M15.1,2c0.282,0,0.562,0.106,0.777,0.321c0.431,0.431,0.431,1.127,0,1.557l-1.72,1.723l0.307,0.308
			c0.585,0.584,0.906,1.362,0.906,2.192s-0.321,1.607-0.906,2.191l-4.172,4.172c-0.584,0.584-1.361,0.906-2.191,0.906
			s-1.607-0.322-2.191-0.906L5.6,14.155l-1.723,1.723C3.662,16.093,3.382,16.2,3.1,16.2s-0.562-0.107-0.777-0.322
			c-0.431-0.43-0.431-1.126,0-1.557l1.72-1.72l-0.308-0.309c-0.583-0.584-0.905-1.361-0.905-2.191s0.321-1.608,0.905-2.192
			l4.173-4.173c0.584-0.584,1.387-0.875,2.191-0.875s1.607,0.291,2.191,0.875l0.31,0.308l1.723-1.723C14.538,2.106,14.818,2,15.1,2
			 M15.1,0c-0.828,0-1.605,0.321-2.191,0.908l-0.492,0.491C11.71,1.048,10.913,0.86,10.101,0.86c-1.363,0-2.677,0.533-3.605,1.461
			L2.324,6.494C1.36,7.456,0.83,8.735,0.83,10.101c0,0.822,0.192,1.616,0.558,2.327l-0.479,0.48C0.323,13.493,0,14.272,0,15.101
			c0,0.827,0.322,1.605,0.908,2.191C1.492,17.878,2.271,18.2,3.099,18.2s1.605-0.322,2.191-0.908l0.48-0.48
			c0.711,0.365,1.504,0.559,2.328,0.559c1.363,0,2.645-0.53,3.605-1.492l4.172-4.172c0.963-0.962,1.492-2.242,1.492-3.605
			c0-0.824-0.192-1.617-0.558-2.328l0.479-0.48C17.877,4.707,18.2,3.928,18.2,3.101c0-0.828-0.322-1.606-0.908-2.192
			C16.705,0.321,15.928,0,15.1,0z"/>
	</g>
	<g>
		<path style="fill:#030104;" d="M9,7.169c0.017,0.535,0.233,1.036,0.613,1.416c0.381,0.38,0.881,0.598,1.416,0.614L9.197,11.03
			C9.18,10.496,8.963,9.995,8.584,9.615c-0.381-0.38-0.881-0.597-1.416-0.614L9,7.169 M10.1,5.03c-0.242,0-0.468,0.094-0.637,0.262
			L5.291,9.464c-0.168,0.168-0.26,0.395-0.26,0.637c0,0.24,0.092,0.467,0.26,0.635L5.6,11.044l0.723-0.723
			C6.538,10.106,6.818,10,7.1,10s0.562,0.106,0.777,0.321c0.431,0.431,0.431,1.127,0,1.557l-0.72,0.723l0.308,0.308
			c0.168,0.168,0.401,0.253,0.636,0.253s0.468-0.084,0.637-0.253l4.172-4.173c0.168-0.168,0.26-0.395,0.26-0.635
			c0-0.242-0.092-0.469-0.26-0.637L12.6,7.155l-0.723,0.723C11.662,8.093,11.382,8.2,11.1,8.2s-0.562-0.107-0.777-0.322
			c-0.431-0.43-0.431-1.126,0-1.557l0.72-0.72l-0.307-0.309C10.567,5.124,10.341,5.03,10.1,5.03z"/>
	</g>
</g>
<g>
</g>
<g>
</g>
<g>
</g>
<g>
</g>
<g>
</g>
<g>
</g>
<g>
</g>
<g>
</g>
<g>
</g>
<g>
</g>
<g>
</g>
<g>
</g>
<g>
</g>
<g>
</g>
<g>
</g>
</svg>
