<?xml version="1.0" encoding="iso-8859-1"?>
<!-- Generator: Adobe Illustrator 18.1.1, SVG Export Plug-In . SVG Version: 6.00 Build 0)  -->
<svg version="1.1" id="Capa_1" xmlns="http://www.w3.org/2000/svg" xmlns:xlink="http://www.w3.org/1999/xlink" x="0px" y="0px"
	 viewBox="0 0 18 18" style="enable-background:new 0 0 18 18;" xml:space="preserve">
<g>
	<g>
		<g>
			<path style="fill:#030104;" d="M17,14H1c-0.552,0-1-0.447-1-1v-3c0-0.68,0.234-1.346,0.658-1.874l4-5
				C5.638,1.9,7.543,1.657,8.801,2.602l1.674,1.254l2.185-2.729C13.23,0.41,14.084,0,15.001,0c0.679,0,1.343,0.232,1.873,0.657
				C17.59,1.229,18,2.083,18,3v10C18,13.553,17.552,14,17,14z M2,12h14V3c0-0.307-0.137-0.59-0.375-0.779
				C15.398,2.038,15.16,2,15.001,2c-0.306,0-0.591,0.137-0.782,0.376L11.43,5.861c-0.337,0.423-0.949,0.5-1.381,0.176L7.6,4.2
				C7.178,3.884,6.545,3.967,6.219,4.376l-4,5C2.038,9.604,2,9.84,2,10V12z"/>
		</g>
	</g>
	<g>
		<path style="fill:#030104;" d="M17,18H1c-0.552,0-1-0.447-1-1s0.448-1,1-1h16c0.552,0,1,0.447,1,1S17.552,18,17,18z"/>
	</g>
</g>
<g>
</g>
<g>
</g>
<g>
</g>
<g>
</g>
<g>
</g>
<g>
</g>
<g>
</g>
<g>
</g>
<g>
</g>
<g>
</g>
<g>
</g>
<g>
</g>
<g>
</g>
<g>
</g>
<g>
</g>
</svg>
