<?xml version="1.0" encoding="iso-8859-1"?>
<!-- Generator: Adobe Illustrator 18.1.1, SVG Export Plug-In . SVG Version: 6.00 Build 0)  -->
<svg version="1.1" id="Capa_1" xmlns="http://www.w3.org/2000/svg" xmlns:xlink="http://www.w3.org/1999/xlink" x="0px" y="0px"
	 viewBox="0 0 19 19" style="enable-background:new 0 0 19 19;" xml:space="preserve">
<g>
	<path style="fill:#030104;" d="M3,6.5v6h11v-6H3z M8.83,11.408L7.62,9.5L5,9.928l3.223-2.324L9.398,9.5L12,9.07L8.83,11.408z"/>
	<path style="fill:#030104;" d="M17,6.5c0-1.654-1.346-3-3-3H3c-1.654,0-3,1.346-3,3v6c0,1.654,1.346,3,3,3h11c1.654,0,3-1.346,3-3
		c1.104,0,2-0.896,2-2v-2C19,7.396,18.104,6.5,17,6.5z M15,12.5c0,0.552-0.449,1-1,1H3c-0.551,0-1-0.448-1-1v-6c0-0.552,0.449-1,1-1
		h11c0.551,0,1,0.448,1,1V12.5z"/>
</g>
<g>
</g>
<g>
</g>
<g>
</g>
<g>
</g>
<g>
</g>
<g>
</g>
<g>
</g>
<g>
</g>
<g>
</g>
<g>
</g>
<g>
</g>
<g>
</g>
<g>
</g>
<g>
</g>
<g>
</g>
</svg>
