<?xml version="1.0" encoding="iso-8859-1"?>
<!-- Generator: Adobe Illustrator 18.1.1, SVG Export Plug-In . SVG Version: 6.00 Build 0)  -->
<svg version="1.1" id="Capa_1" xmlns="http://www.w3.org/2000/svg" xmlns:xlink="http://www.w3.org/1999/xlink" x="0px" y="0px"
	 viewBox="0 0 15.001 15.001" style="enable-background:new 0 0 15.001 15.001;" xml:space="preserve">
<g>
	<g id="Layer_1_79_">
		<path style="fill:#030104;" d="M14.885,2.178c-0.221-0.771-0.728-1.409-1.427-1.798c-0.445-0.248-0.949-0.379-1.457-0.379
			c-0.862,0-1.661,0.381-2.219,1H3c-1.654,0-3,1.346-3,3v8c0,1.654,1.346,3,3,3h8c1.654,0,3-1.346,3-3V5.547l0.622-1.088
			C15.012,3.759,15.104,2.949,14.885,2.178z M11.127,2.516c0.104-0.189,0.27-0.328,0.459-0.416c0.301-0.113,0.623-0.127,0.9,0.027
			c0.232,0.13,0.402,0.343,0.476,0.6c0.033,0.117,0.039,0.236,0.03,0.353C12.98,3.195,12.949,3.307,12.9,3.412
			c-0.01,0.021-0.01,0.045-0.021,0.065l-4.006,7.011c-0.151,0.273-0.427,0.461-0.742,0.506C8.087,11,8.043,11.003,7.999,11.003
			c-0.267,0-0.518-0.104-0.707-0.293l-3-3c-0.39-0.39-0.39-1.024,0-1.414c0.189-0.189,0.44-0.293,0.707-0.293
			s0.518,0.104,0.707,0.293l1.125,1.125l0.92,0.92l0.652-1.125L11.127,2.516z M11,13.001H3c-0.552,0-1-0.449-1-1v-8
			c0-0.551,0.448-1,1-1h6.689l-2.15,3.712L6.414,5.588C6.023,5.197,5.512,5.002,5,5.002S3.977,5.197,3.586,5.588
			c-0.781,0.781-0.781,2.047,0,2.828l3,3C6.964,11.794,7.474,12.002,8,12.002c0.092,0,0.185-0.006,0.277-0.02
			c0.621-0.087,1.166-0.461,1.471-1.01L12,7.032v4.969C12,12.552,11.552,13.001,11,13.001z"/>
	</g>
</g>
<g>
</g>
<g>
</g>
<g>
</g>
<g>
</g>
<g>
</g>
<g>
</g>
<g>
</g>
<g>
</g>
<g>
</g>
<g>
</g>
<g>
</g>
<g>
</g>
<g>
</g>
<g>
</g>
<g>
</g>
</svg>
