<?xml version="1.0" encoding="iso-8859-1"?>
<!-- Generator: Adobe Illustrator 18.1.1, SVG Export Plug-In . SVG Version: 6.00 Build 0)  -->
<svg version="1.1" id="Capa_1" xmlns="http://www.w3.org/2000/svg"  x="0px" y="0px"
	 viewBox="0 0 21 21" style="enable-background:new 0 0 21 21;" xml:space="preserve">
<g>
	<g id="Layer_1_92_">
		<g>
			<path style="fill:#030104;" d="M17.914,6.902c0.104-0.048,0.206-0.108,0.293-0.195l0.5-0.5c0.391-0.391,0.391-1.023,0-1.414
				s-1.023-0.391-1.414,0l-0.5,0.5c-0.051,0.051-0.077,0.115-0.115,0.173c-1.387-1.312-3.188-2.19-5.189-2.41
				C11.49,3.037,11.5,3.02,11.5,3V2h1c0.55,0,1-0.45,1-1s-0.45-1-1-1h-4c-0.55,0-1,0.45-1,1s0.45,1,1,1h1v1
				c0,0.02,0.01,0.037,0.012,0.057C5.006,3.549,1.5,7.364,1.5,12c0,4.971,4.029,9,9,9s9-4.029,9-9
				C19.5,10.106,18.912,8.352,17.914,6.902z M10.5,19c-3.859,0-7-3.14-7-7s3.141-7,7-7s7,3.14,7,7S14.359,19,10.5,19z"/>
			<path style="fill:#030104;" d="M11.5,11V9c0-0.55-0.45-1-1-1s-1,0.45-1,1v3c0,0.55,0.45,1,1,1h3c0.55,0,1-0.45,1-1s-0.45-1-1-1
				H11.5z"/>
			<path style="fill:#030104;" d="M10.5,6c-3.312,0-6,2.688-6,6s2.688,6,6,6s6-2.688,6-6S13.812,6,10.5,6z M10.5,17
				c-2.757,0-5-2.243-5-5s2.243-5,5-5s5,2.243,5,5S13.257,17,10.5,17z"/>
		</g>
	</g>
</g>
<g>
</g>
<g>
</g>
<g>
</g>
<g>
</g>
<g>
</g>
<g>
</g>
<g>
</g>
<g>
</g>
<g>
</g>
<g>
</g>
<g>
</g>
<g>
</g>
<g>
</g>
<g>
</g>
<g>
</g>
</svg>
