<?xml version="1.0" encoding="iso-8859-1"?>
<!-- Generator: Adobe Illustrator 18.1.1, SVG Export Plug-In . SVG Version: 6.00 Build 0)  -->
<svg version="1.1" id="Capa_1" xmlns="http://www.w3.org/2000/svg"  x="0px" y="0px"
	 viewBox="0 0 18 18" style="enable-background:new 0 0 18 18;" xml:space="preserve">
<g>
	<g id="Layer_1_72_">
		<path style="fill:#030104;" d="M14,0H4C2.346,0,1,1.346,1,3v12c0,1.654,1.346,3,3,3h10c1.654,0,3-1.346,3-3V3
			C17,1.346,15.654,0,14,0z M6,2h6v1c0,0.551-0.449,1-1,1H7C6.449,4,6,3.551,6,3V2z M15,15c0,0.551-0.449,1-1,1H4
			c-0.551,0-1-0.449-1-1V3c0-0.551,0.449-1,1-1h1c0,0.262,0,0.601,0,1c0,1.1,0.9,2,2,2h4c1.1,0,2-0.9,2-2c0-0.399,0-0.738,0-1h1
			c0.551,0,1,0.449,1,1V15z"/>
		<g>
			<path style="fill:#030104;" d="M13,14H5c-0.276,0-0.5-0.224-0.5-0.5S4.724,13,5,13h8c0.276,0,0.5,0.224,0.5,0.5S13.276,14,13,14z
				"/>
		</g>
		<g>
			<path style="fill:#030104;" d="M13,11H5c-0.276,0-0.5-0.224-0.5-0.5S4.724,10,5,10h8c0.276,0,0.5,0.224,0.5,0.5S13.276,11,13,11z
				"/>
		</g>
		<g>
			<path style="fill:#030104;" d="M13,8H5C4.724,8,4.5,7.776,4.5,7.5S4.724,7,5,7h8c0.276,0,0.5,0.224,0.5,0.5S13.276,8,13,8z"/>
		</g>
	</g>
</g>
<g>
</g>
<g>
</g>
<g>
</g>
<g>
</g>
<g>
</g>
<g>
</g>
<g>
</g>
<g>
</g>
<g>
</g>
<g>
</g>
<g>
</g>
<g>
</g>
<g>
</g>
<g>
</g>
<g>
</g>
</svg>
