<?xml version="1.0" encoding="iso-8859-1"?>
<!-- Generator: Adobe Illustrator 18.1.1, SVG Export Plug-In . SVG Version: 6.00 Build 0)  -->
<svg version="1.1" id="Capa_1" xmlns="http://www.w3.org/2000/svg"  x="0px" y="0px"
	 viewBox="0 0 17 17" style="enable-background:new 0 0 17 17;" xml:space="preserve">
<g>
	<g>
		<circle style="fill:#030104;" cx="8.5" cy="13" r="1.3"/>
	</g>
	<path style="fill:#030104;" d="M13.5,6h-1V4c0-2.206-1.794-4-4-4s-4,1.794-4,4v2h-1c-1.104,0-2,0.896-2,2v7c0,1.104,0.896,2,2,2h10
		c1.104,0,2-0.896,2-2V8C15.5,6.896,14.604,6,13.5,6z M6.5,4c0-1.104,0.896-2,2-2s2,0.896,2,2v2v1h-4V6V4z M13.5,15h-10V8h1h2h4h2
		h1.003L13.5,15z"/>
</g>
<g>
</g>
<g>
</g>
<g>
</g>
<g>
</g>
<g>
</g>
<g>
</g>
<g>
</g>
<g>
</g>
<g>
</g>
<g>
</g>
<g>
</g>
<g>
</g>
<g>
</g>
<g>
</g>
<g>
</g>
</svg>
