<?xml version="1.0" encoding="iso-8859-1"?>
<!-- Generator: Adobe Illustrator 18.1.1, SVG Export Plug-In . SVG Version: 6.00 Build 0)  -->
<svg version="1.1" id="Capa_1" xmlns="http://www.w3.org/2000/svg"  x="0px" y="0px"
	 viewBox="0 0 26.936 26.936" style="enable-background:new 0 0 26.936 26.936;" xml:space="preserve">
<g>
	<path style="fill:#030104;" d="M0,4.617v0.912v1.314v13.251v0.476v1.75h26.936v-1.75v-0.476V6.844V5.529V4.617H0z M24.691,18.604
		l-6.332-5.538l6.332-4.486C24.691,8.58,24.691,18.604,24.691,18.604z M2.244,8.485l6.414,4.547l-6.414,5.69V8.485z M13.531,13.737
		L3.806,6.844h19.456L13.531,13.737z M10.539,14.365l2.98,2.114l0.007,0.011l0.005-0.004l0.004,0.004l0.006-0.011l2.936-2.078
		l6.509,5.694H4.079L10.539,14.365z"/>
</g>
<g>
</g>
<g>
</g>
<g>
</g>
<g>
</g>
<g>
</g>
<g>
</g>
<g>
</g>
<g>
</g>
<g>
</g>
<g>
</g>
<g>
</g>
<g>
</g>
<g>
</g>
<g>
</g>
<g>
</g>
</svg>
