<?xml version="1.0" encoding="iso-8859-1"?>
<!-- Generator: Adobe Illustrator 18.1.1, SVG Export Plug-In . SVG Version: 6.00 Build 0)  -->
<svg version="1.1" id="Capa_1" xmlns="http://www.w3.org/2000/svg" xmlns:xlink="http://www.w3.org/1999/xlink" x="0px" y="0px"
	 viewBox="0 0 20 20" style="enable-background:new 0 0 20 20;" xml:space="preserve">
<g>
	<g id="Layer_1_38_">
		<g>
			<path style="fill:#030104;" d="M15,15.306c-0.552,0-1-0.447-1-1s0.448-1,1-1c1.654,0,3-1.346,3-3s-1.346-3-3-3
				c-0.243,0-0.5,0.041-0.81,0.13l-1.075,0.307L12.93,6.64C12.604,4.708,10.952,3.306,9,3.306c-2.206,0-4,1.794-4,4
				c0,0.272,0.027,0.545,0.082,0.811l0.244,1.199L3.906,9.3C2.897,9.306,2,10.203,2,11.306s0.897,2,2,2c0.552,0,1,0.447,1,1
				s-0.448,1-1,1c-2.206,0-4-1.794-4-4c0-1.861,1.277-3.429,3.001-3.874C3,7.39,3,7.348,3,7.306c0-3.309,2.691-6,6-6
				c2.587,0,4.824,1.638,5.65,4.015C17.589,5.077,20,7.434,20,10.306C20,13.063,17.757,15.306,15,15.306z"/>
		</g>
		<g>
			<path style="fill:#030104;" d="M8.5,15.306l1-3l1,3c0.184,0.553-0.114,1.149-0.667,1.333c-0.552,0.185-1.149-0.114-1.333-0.666
				C8.425,15.747,8.43,15.515,8.5,15.306z"/>
		</g>
		<g>
			<path style="fill:#030104;" d="M11.5,17.306l1-3l1,3c0.184,0.553-0.114,1.149-0.667,1.333c-0.552,0.185-1.149-0.114-1.333-0.666
				C11.425,17.747,11.43,17.515,11.5,17.306z"/>
		</g>
		<g>
			<path style="fill:#030104;" d="M5.5,17.306l1-3l1,3c0.184,0.553-0.114,1.149-0.667,1.333c-0.552,0.185-1.149-0.114-1.333-0.666
				C5.425,17.747,5.43,17.515,5.5,17.306z"/>
		</g>
	</g>
</g>
<g>
</g>
<g>
</g>
<g>
</g>
<g>
</g>
<g>
</g>
<g>
</g>
<g>
</g>
<g>
</g>
<g>
</g>
<g>
</g>
<g>
</g>
<g>
</g>
<g>
</g>
<g>
</g>
<g>
</g>
</svg>
