<?xml version="1.0" encoding="iso-8859-1"?>
<!-- Generator: Adobe Illustrator 18.1.1, SVG Export Plug-In . SVG Version: 6.00 Build 0)  -->
<svg version="1.1" id="Capa_1" xmlns="http://www.w3.org/2000/svg" xmlns:xlink="http://www.w3.org/1999/xlink" x="0px" y="0px"
	 viewBox="0 0 24 24" style="enable-background:new 0 0 24 24;" xml:space="preserve">
<g>
	<g id="Layer_1_100_">
		<path style="fill:#030104;" d="M21,1.5H3c-1.654,0-3,1.346-3,3v11c0,1.654,1.346,3,3,3h6v2H6c-0.552,0-1,0.448-1,1s0.448,1,1,1h12
			c0.552,0,1-0.448,1-1s-0.448-1-1-1h-3v-2h6c1.654,0,3-1.346,3-3v-11C24,2.846,22.654,1.5,21,1.5z M14,20.5h-4v-2h4V20.5z M22,15.5
			c0,0.551-0.449,1-1,1H3c-0.551,0-1-0.449-1-1v-11c0-0.551,0.449-1,1-1h18c0.551,0,1,0.449,1,1V15.5z"/>
		<path style="fill:#030104;" d="M20,4.5H4c-0.55,0-1,0.45-1,1v8c0,0.55,0.45,1,1,1h16c0.55,0,1-0.45,1-1v-8
			C21,4.95,20.55,4.5,20,4.5z M20,13.5H4v-8h16V13.5z"/>
	</g>
</g>
<g>
</g>
<g>
</g>
<g>
</g>
<g>
</g>
<g>
</g>
<g>
</g>
<g>
</g>
<g>
</g>
<g>
</g>
<g>
</g>
<g>
</g>
<g>
</g>
<g>
</g>
<g>
</g>
<g>
</g>
</svg>
