<?xml version="1.0" encoding="iso-8859-1"?>
<!-- Generator: Adobe Illustrator 18.1.1, SVG Export Plug-In . SVG Version: 6.00 Build 0)  -->
<svg version="1.1" id="Capa_1" xmlns="http://www.w3.org/2000/svg" xmlns:xlink="http://www.w3.org/1999/xlink" x="0px" y="0px"
	 viewBox="0 0 18 18" style="enable-background:new 0 0 18 18;" xml:space="preserve">
<g>
	<g id="Layer_1_47_">
		<g>
			<path style="fill:#030104;" d="M9,2c3.859,0.001,7,3.142,7,7.001c0,3.858-3.141,6.998-7,6.999c-3.859,0-7-3.14-7-6.999
				S5.141,2.001,9,2 M9,0C4.029,0.001,0,4.03,0,9.001C0,13.971,4.029,18,9,18c4.97-0.001,9-4.03,9-8.999C18,4.03,13.971,0.001,9,0z"
				/>
		</g>
		<path style="fill:#030104;" d="M13.182,4.819c-0.129-0.128-0.315-0.178-0.491-0.127L6.74,6.398
			C6.574,6.446,6.445,6.575,6.398,6.741l-1.707,5.951c-0.051,0.175-0.002,0.363,0.127,0.491c0.095,0.095,0.223,0.146,0.354,0.146
			c0.045,0,0.092-0.006,0.138-0.02l5.95-1.708c0.165-0.047,0.295-0.177,0.342-0.343l1.707-5.949
			C13.359,5.136,13.311,4.948,13.182,4.819z M5.9,12.101l1.383-4.817l3.434,3.435L5.9,12.101z"/>
	</g>
</g>
<g>
</g>
<g>
</g>
<g>
</g>
<g>
</g>
<g>
</g>
<g>
</g>
<g>
</g>
<g>
</g>
<g>
</g>
<g>
</g>
<g>
</g>
<g>
</g>
<g>
</g>
<g>
</g>
<g>
</g>
</svg>
