<?xml version="1.0" encoding="iso-8859-1"?>
<!-- Generator: Adobe Illustrator 18.1.1, SVG Export Plug-In . SVG Version: 6.00 Build 0)  -->
<svg version="1.1" id="Capa_1" xmlns="http://www.w3.org/2000/svg" xmlns:xlink="http://www.w3.org/1999/xlink" x="0px" y="0px"
	 viewBox="0 0 18 18" style="enable-background:new 0 0 18 18;" xml:space="preserve">
<g>
	<g id="Layer_1_99_">
		<g>
			<path style="fill:#030104;" d="M14,18H4c-1.654,0-3-1.346-3-3V3c0-1.654,1.346-3,3-3h10c1.654,0,3,1.346,3,3v12
				C17,16.654,15.654,18,14,18z M4,2C3.449,2,3,2.449,3,3v12c0,0.551,0.449,1,1,1h10c0.551,0,1-0.449,1-1V3c0-0.551-0.449-1-1-1H4z"
				/>
		</g>
		<g>
			<path style="fill:#030104;" d="M13,8H5C4.724,8,4.5,7.776,4.5,7.5S4.724,7,5,7h8c0.276,0,0.5,0.224,0.5,0.5S13.276,8,13,8z"/>
		</g>
		<g>
			<path style="fill:#030104;" d="M13,5H5C4.724,5,4.5,4.776,4.5,4.5S4.724,4,5,4h8c0.276,0,0.5,0.224,0.5,0.5S13.276,5,13,5z"/>
		</g>
		<g>
			<path style="fill:#030104;" d="M13,11H5c-0.276,0-0.5-0.224-0.5-0.5S4.724,10,5,10h8c0.276,0,0.5,0.224,0.5,0.5S13.276,11,13,11z
				"/>
		</g>
		<g>
			<path style="fill:#030104;" d="M13,14H5c-0.276,0-0.5-0.224-0.5-0.5S4.724,13,5,13h8c0.276,0,0.5,0.224,0.5,0.5S13.276,14,13,14z
				"/>
		</g>
	</g>
</g>
<g>
</g>
<g>
</g>
<g>
</g>
<g>
</g>
<g>
</g>
<g>
</g>
<g>
</g>
<g>
</g>
<g>
</g>
<g>
</g>
<g>
</g>
<g>
</g>
<g>
</g>
<g>
</g>
<g>
</g>
</svg>
