<?xml version="1.0" encoding="iso-8859-1"?>
<!-- Generator: Adobe Illustrator 18.1.1, SVG Export Plug-In . SVG Version: 6.00 Build 0)  -->
<svg version="1.1" id="Capa_1" xmlns="http://www.w3.org/2000/svg" xmlns:xlink="http://www.w3.org/1999/xlink" x="0px" y="0px"
	 viewBox="0 0 17 17" style="enable-background:new 0 0 17 17;" xml:space="preserve">
<g>
	<g id="Layer_1_105_">
		<path style="fill:#030104;" d="M14,2H3C1.346,2,0,3.346,0,5v7c0,1.654,1.346,3,3,3h11c1.654,0,3-1.346,3-3V5
			C17,3.346,15.654,2,14,2z M15,12c0,0.552-0.448,1-1,1H3c-0.552,0-1-0.448-1-1V8h13V12z M15,6H2V5c0-0.552,0.448-1,1-1h11
			c0.552,0,1,0.448,1,1V6z"/>
		<path style="fill:#030104;" d="M11,11h2c0.276,0,0.5-0.224,0.5-0.5S13.276,10,13,10h-2c-0.276,0-0.5,0.224-0.5,0.5
			S10.724,11,11,11z"/>
	</g>
</g>
<g>
</g>
<g>
</g>
<g>
</g>
<g>
</g>
<g>
</g>
<g>
</g>
<g>
</g>
<g>
</g>
<g>
</g>
<g>
</g>
<g>
</g>
<g>
</g>
<g>
</g>
<g>
</g>
<g>
</g>
</svg>
