<?xml version="1.0" encoding="iso-8859-1"?>
<!-- Generator: Adobe Illustrator 18.1.1, SVG Export Plug-In . SVG Version: 6.00 Build 0)  -->
<svg version="1.1" id="Capa_1" xmlns="http://www.w3.org/2000/svg"  x="0px" y="0px"
	 viewBox="0 0 15 15" style="enable-background:new 0 0 15 15;" xml:space="preserve">
<g>
	<g id="Layer_1_53_">
		<g>
			<g>
				<path style="fill:#030104;" d="M5.67,15c-0.861,0-1.71-0.151-2.523-0.451l-1.317-0.485l0.89-1.087
					c1.275-1.56,1.95-3.454,1.95-5.477S3.995,3.583,2.719,2.023l-0.89-1.087l1.317-0.485C3.961,0.151,4.809,0,5.67,0
					c4.136,0,7.5,3.364,7.5,7.5S9.806,15,5.67,15z M5.161,12.976C5.33,12.992,5.5,13,5.67,13c3.032,0,5.5-2.468,5.5-5.5
					S8.702,2,5.67,2C5.5,2,5.33,2.008,5.161,2.024C6.153,3.669,6.67,5.535,6.67,7.5S6.153,11.331,5.161,12.976z"/>
			</g>
		</g>
	</g>
</g>
<g>
</g>
<g>
</g>
<g>
</g>
<g>
</g>
<g>
</g>
<g>
</g>
<g>
</g>
<g>
</g>
<g>
</g>
<g>
</g>
<g>
</g>
<g>
</g>
<g>
</g>
<g>
</g>
<g>
</g>
</svg>
