<?xml version="1.0" encoding="iso-8859-1"?>
<!-- Generator: Adobe Illustrator 18.1.1, SVG Export Plug-In . SVG Version: 6.00 Build 0)  -->
<svg version="1.1" id="Capa_1" xmlns="http://www.w3.org/2000/svg" xmlns:xlink="http://www.w3.org/1999/xlink" x="0px" y="0px"
	 viewBox="0 0 20 20" style="enable-background:new 0 0 20 20;" xml:space="preserve">
<g>
	<g id="Layer_1_98_">
		<g>
			<path style="fill:#030104;" d="M6,14.184V13.5c0-0.848,0.512-1.595,1.287-2.047c-0.667-0.282-1.279-0.667-1.822-1.131
				C4.561,11.136,4,12.26,4,13.5v0.684C2.839,14.599,2,15.698,2,17c0,1.654,1.346,3,3,3s3-1.346,3-3C8,15.698,7.161,14.599,6,14.184
				z M5,18c-0.552,0-1-0.449-1-1s0.448-1,1-1s1,0.449,1,1S5.552,18,5,18z"/>
			<path style="fill:#030104;" d="M14,5.815v0.351c0,0.985-0.535,1.852-1.345,2.36c0.665,0.274,1.279,0.646,1.823,1.1
				C15.414,8.748,16,7.524,16,6.167V5.816C17.161,5.401,18,4.302,18,3c0-1.654-1.346-3-3-3s-3,1.346-3,3
				C12,4.302,12.839,5.401,14,5.815z M15,2c0.552,0,1,0.449,1,1s-0.448,1-1,1s-1-0.449-1-1S14.448,2,15,2z"/>
			<path style="fill:#030104;" d="M15.935,14.164C15.525,11.251,13.024,9,10,9C8.064,9,6.448,7.619,6.08,5.791
				C7.2,5.355,8,4.272,8,3c0-1.654-1.346-3-3-3S2,1.346,2,3c0,1.326,0.87,2.44,2.065,2.836C4.475,8.749,6.976,11,10,11
				c1.936,0,3.552,1.381,3.92,3.209C12.8,14.645,12,15.728,12,17c0,1.654,1.346,3,3,3s3-1.346,3-3
				C18,15.674,17.13,14.56,15.935,14.164z M5,2c0.552,0,1,0.449,1,1S5.552,4,5,4S4,3.551,4,3S4.448,2,5,2z M15,18
				c-0.552,0-1-0.449-1-1s0.448-1,1-1s1,0.449,1,1S15.552,18,15,18z"/>
		</g>
	</g>
</g>
<g>
</g>
<g>
</g>
<g>
</g>
<g>
</g>
<g>
</g>
<g>
</g>
<g>
</g>
<g>
</g>
<g>
</g>
<g>
</g>
<g>
</g>
<g>
</g>
<g>
</g>
<g>
</g>
<g>
</g>
</svg>
