<?xml version="1.0" encoding="iso-8859-1"?>
<!-- Generator: Adobe Illustrator 18.1.1, SVG Export Plug-In . SVG Version: 6.00 Build 0)  -->
<svg version="1.1" id="Capa_1" xmlns="http://www.w3.org/2000/svg"  x="0px" y="0px"
	 viewBox="0 0 17 17" style="enable-background:new 0 0 17 17;" xml:space="preserve">
<g>
	<g id="Layer_1_104_">
		<g>
			<path style="fill:#030104;" d="M13,15.5H1c-0.553,0-1-0.447-1-1s0.447-1,1-1h12c0.553,0,1,0.447,1,1S13.553,15.5,13,15.5z"/>
		</g>
		<path style="fill:#030104;" d="M13.5,1.5H1v9c0,1.1,0.9,2,2,2h8c1.1,0,2-0.9,2-2v-2h0.5C15.43,8.5,17,6.93,17,5
			S15.43,1.5,13.5,1.5z M11,10.5H3v-7h8V10.5z M13.5,6.5H12v-3h1.5C14.327,3.5,15,4.173,15,5S14.327,6.5,13.5,6.5z"/>
	</g>
</g>
<g>
</g>
<g>
</g>
<g>
</g>
<g>
</g>
<g>
</g>
<g>
</g>
<g>
</g>
<g>
</g>
<g>
</g>
<g>
</g>
<g>
</g>
<g>
</g>
<g>
</g>
<g>
</g>
<g>
</g>
</svg>
