<?xml version="1.0" encoding="iso-8859-1"?>
<!-- Generator: Adobe Illustrator 18.1.1, SVG Export Plug-In . SVG Version: 6.00 Build 0)  -->
<svg version="1.1" id="Capa_1" xmlns="http://www.w3.org/2000/svg" xmlns:xlink="http://www.w3.org/1999/xlink" x="0px" y="0px"
	 viewBox="0 0 18 18" style="enable-background:new 0 0 18 18;" xml:space="preserve">
<g>
	<path style="fill:#030104;" d="M15,3H9c0-1.104-0.896-2-2-2H3C1.346,1,0,2.346,0,4v10c0,1.654,1.346,3,3,3h12c1.654,0,3-1.346,3-3
		V6C18,4.346,16.654,3,15,3z M3,3h4c0,1.104,0.896,2,2,2h6c0.552,0,1,0.448,1,1H2V4C2,3.448,2.448,3,3,3z M15,15H3
		c-0.552,0-1-0.448-1-1V7h14v7C16,14.552,15.552,15,15,15z"/>
	<g>
		<path style="fill:#030104;" d="M12,11H6c-0.553,0-1-0.447-1-1s0.447-1,1-1h6c0.553,0,1,0.447,1,1S12.553,11,12,11z"/>
	</g>
</g>
<g>
</g>
<g>
</g>
<g>
</g>
<g>
</g>
<g>
</g>
<g>
</g>
<g>
</g>
<g>
</g>
<g>
</g>
<g>
</g>
<g>
</g>
<g>
</g>
<g>
</g>
<g>
</g>
<g>
</g>
</svg>
