<?xml version="1.0" encoding="iso-8859-1"?>
<!-- Generator: Adobe Illustrator 18.1.1, SVG Export Plug-In . SVG Version: 6.00 Build 0)  -->
<svg version="1.1" id="Capa_1" xmlns="http://www.w3.org/2000/svg" xmlns:xlink="http://www.w3.org/1999/xlink" x="0px" y="0px"
	 viewBox="0 0 22.828 22.828" style="enable-background:new 0 0 22.828 22.828;" xml:space="preserve">
<g>
	<path style="fill:#030104;" d="M22.242,10l-9.414-9.414C12.437,0.195,11.926,0,11.414,0S10.391,0.195,10,0.586L0.586,10
		c-0.781,0.779-0.781,2.047,0,2.828L10,22.242c0.391,0.391,0.902,0.586,1.414,0.586s1.023-0.195,1.414-0.586l9.414-9.414
		C23.023,12.047,23.023,10.779,22.242,10z M16.414,15.414c-0.256,0-0.512-0.098-0.707-0.293c-0.391-0.391-0.391-1.023,0-1.414
		L17,12.414h-4.586V17l1.293-1.293c0.195-0.195,0.451-0.293,0.707-0.293s0.512,0.098,0.707,0.293c0.391,0.391,0.391,1.023,0,1.414
		l-3.707,3.707l-3.707-3.707c-0.391-0.391-0.391-1.023,0-1.414c0.195-0.195,0.451-0.293,0.707-0.293s0.512,0.098,0.707,0.293
		L10.414,17v-4.586H5.828l1.293,1.293c0.391,0.391,0.391,1.023,0,1.414c-0.195,0.195-0.451,0.293-0.707,0.293
		s-0.512-0.098-0.707-0.293L2,11.414l3.707-3.707c0.195-0.195,0.451-0.293,0.707-0.293s0.512,0.098,0.707,0.293
		c0.391,0.391,0.391,1.023,0,1.414l-1.293,1.293h4.586V5.828L9.121,7.121C8.926,7.316,8.67,7.414,8.414,7.414
		S7.902,7.316,7.707,7.121c-0.391-0.391-0.391-1.023,0-1.414L11.414,2l3.707,3.707c0.391,0.391,0.391,1.023,0,1.414
		c-0.195,0.195-0.451,0.293-0.707,0.293s-0.512-0.098-0.707-0.293l-1.293-1.293v4.586H17l-1.293-1.293
		c-0.391-0.391-0.391-1.023,0-1.414c0.195-0.195,0.451-0.293,0.707-0.293s0.512,0.098,0.707,0.293l3.707,3.707l-3.707,3.707
		C16.926,15.316,16.67,15.414,16.414,15.414z M14.682,13.414c-0.175,0.301-0.268,0.643-0.268,1c-0.357,0-0.699,0.093-1,0.268v-1.268
		H14.682z M8.146,13.414h1.268v1.268c-0.301-0.175-0.643-0.268-1-0.268C8.414,14.057,8.321,13.715,8.146,13.414z M8.146,9.414
		c0.175-0.301,0.268-0.643,0.268-1c0.357,0,0.699-0.093,1-0.268v1.268H8.146z M14.682,9.414h-1.268V8.146
		c0.301,0.175,0.643,0.268,1,0.268C14.414,8.771,14.507,9.113,14.682,9.414z"/>
</g>
<g>
</g>
<g>
</g>
<g>
</g>
<g>
</g>
<g>
</g>
<g>
</g>
<g>
</g>
<g>
</g>
<g>
</g>
<g>
</g>
<g>
</g>
<g>
</g>
<g>
</g>
<g>
</g>
<g>
</g>
</svg>
