<?xml version="1.0" encoding="iso-8859-1"?>
<!-- Generator: Adobe Illustrator 18.1.1, SVG Export Plug-In . SVG Version: 6.00 Build 0)  -->
<svg version="1.1" id="Capa_1" xmlns="http://www.w3.org/2000/svg" xmlns:xlink="http://www.w3.org/1999/xlink" x="0px" y="0px"
	 viewBox="0 0 19 19" style="enable-background:new 0 0 19 19;" xml:space="preserve">
<g>
	<g>
		<g>
			<path style="fill:#030104;" d="M9.5,6c-1.654,0-3-1.346-3-3s1.346-3,3-3s3,1.346,3,3S11.154,6,9.5,6z M9.5,2
				c-0.552,0-1,0.449-1,1s0.448,1,1,1s1-0.449,1-1S10.052,2,9.5,2z"/>
		</g>
	</g>
	<g>
		<g>
			<path style="fill:#030104;" d="M9.5,19c-1.654,0-3-1.346-3-3s1.346-3,3-3s3,1.346,3,3S11.154,19,9.5,19z M9.5,15
				c-0.552,0-1,0.449-1,1s0.448,1,1,1s1-0.449,1-1S10.052,15,9.5,15z"/>
		</g>
	</g>
	<g>
		<g>
			<path style="fill:#030104;" d="M15.5,12.5h-12c-1.654,0-3-1.346-3-3s1.346-3,3-3h12c1.654,0,3,1.346,3,3S17.154,12.5,15.5,12.5z
				 M3.5,8.5c-0.552,0-1,0.449-1,1s0.448,1,1,1h12c0.552,0,1-0.449,1-1s-0.448-1-1-1H3.5z"/>
		</g>
	</g>
</g>
<g>
</g>
<g>
</g>
<g>
</g>
<g>
</g>
<g>
</g>
<g>
</g>
<g>
</g>
<g>
</g>
<g>
</g>
<g>
</g>
<g>
</g>
<g>
</g>
<g>
</g>
<g>
</g>
<g>
</g>
</svg>
