<?xml version="1.0" encoding="iso-8859-1"?>
<!-- Generator: Adobe Illustrator 18.1.1, SVG Export Plug-In . SVG Version: 6.00 Build 0)  -->
<svg version="1.1" id="Capa_1" xmlns="http://www.w3.org/2000/svg"  x="0px" y="0px"
	 viewBox="0 0 19.312 19.312" style="enable-background:new 0 0 19.312 19.312;" xml:space="preserve">
<g>
	<g>
		<path style="fill:#030104;" d="M9.656,19.312l-7.121-7.121c-1.17-1.17-1.17-3.073,0-4.242c1.094-1.094,2.978-1.138,4.121-0.115V3
			c0-1.654,1.346-3,3-3s3,1.346,3,3v4.834c1.143-1.023,3.027-0.979,4.121,0.115c1.17,1.169,1.17,3.072,0,4.242L9.656,19.312z
			 M4.656,9.07c-0.268,0-0.518,0.104-0.707,0.293c-0.391,0.39-0.391,1.023,0,1.414l5.707,5.707l5.707-5.707
			c0.391-0.391,0.391-1.024,0-1.414c-0.379-0.379-1.035-0.379-1.414,0l-3.293,3.293V3c0-0.551-0.448-1-1-1s-1,0.449-1,1v9.656
			L5.363,9.363C5.174,9.174,4.924,9.07,4.656,9.07z"/>
	</g>
</g>
<g>
</g>
<g>
</g>
<g>
</g>
<g>
</g>
<g>
</g>
<g>
</g>
<g>
</g>
<g>
</g>
<g>
</g>
<g>
</g>
<g>
</g>
<g>
</g>
<g>
</g>
<g>
</g>
<g>
</g>
</svg>
