<?xml version="1.0" encoding="iso-8859-1"?>
<!-- Generator: Adobe Illustrator 18.1.1, SVG Export Plug-In . SVG Version: 6.00 Build 0)  -->
<svg version="1.1" id="Capa_1" xmlns="http://www.w3.org/2000/svg"  x="0px" y="0px"
	 viewBox="0 0 23 23" style="enable-background:new 0 0 23 23;" xml:space="preserve">
<g>
	<path style="fill:#030104;" d="M20.486,17c0-0.105-0.004-0.211-0.038-0.316l-2-6C18.312,10.275,17.932,10,17.5,10h-0.561
		l0.682-0.678c1.17-1.17,1.17-3.072,0-4.242c-0.81-0.812-2.068-1.078-3.121-0.709V3c0-1.654-1.346-3-3-3s-3,1.346-3,3v1.371
		C7.448,4.002,6.189,4.268,5.379,5.08c-1.17,1.17-1.17,3.072,0.002,4.244L6.061,10H5.5c-0.432,0-0.812,0.275-0.948,0.684l-2,6
		C2.518,16.789,2.514,16.895,2.514,17C2.5,17,2.5,22,2.5,22c0,0.553,0.447,1,1,1h16c0.553,0,1-0.447,1-1C20.5,22,20.5,17,20.486,17z
		 M6.793,6.494C6.982,6.307,7.232,6.201,7.5,6.201c0.268,0,0.518,0.104,0.707,0.293L10.5,8.787V3c0-0.552,0.448-1,1-1s1,0.448,1,1
		v5.787l2.293-2.293c0.379-0.377,1.035-0.377,1.414,0c0.391,0.39,0.391,1.023,0.002,1.412L11.5,12.59L6.793,7.908
		C6.402,7.52,6.402,6.884,6.793,6.494z M6.221,12h1.852l3.429,3.41L14.93,12h1.852l1.667,5H4.555L6.221,12z M18.5,21h-14v-3h14V21z"
		/>
</g>
<g>
</g>
<g>
</g>
<g>
</g>
<g>
</g>
<g>
</g>
<g>
</g>
<g>
</g>
<g>
</g>
<g>
</g>
<g>
</g>
<g>
</g>
<g>
</g>
<g>
</g>
<g>
</g>
<g>
</g>
</svg>
