<?xml version="1.0" encoding="iso-8859-1"?>
<!-- Generator: Adobe Illustrator 18.1.1, SVG Export Plug-In . SVG Version: 6.00 Build 0)  -->
<svg version="1.1" id="Capa_1" xmlns="http://www.w3.org/2000/svg"  x="0px" y="0px"
	 viewBox="0 0 18 18" style="enable-background:new 0 0 18 18;" xml:space="preserve">
<g>
	<g id="Layer_1_63_">
		<g>
			<path style="fill:#030104;" d="M9,18c-4.962,0-9-4.037-9-9s4.038-9,9-9s9,4.037,9,9S13.962,18,9,18z M9,2C5.14,2,2,5.141,2,9
				s3.14,7,7,7s7-3.141,7-7S12.86,2,9,2z"/>
		</g>
		<path style="fill:#030104;" d="M9,3.5C5.967,3.5,3.5,5.968,3.5,9s2.467,5.5,5.5,5.5s5.5-2.468,5.5-5.5S12.033,3.5,9,3.5z
			 M13.49,8.902c-1.048-0.186-2.1-0.18-3.103,0.042C10.26,8.618,10.12,8.297,9.97,7.979c0.875-0.524,1.652-1.221,2.284-2.07
			C13,6.694,13.465,7.743,13.49,8.902z M11.49,5.256c-0.546,0.748-1.215,1.367-1.975,1.832C9.036,6.232,8.469,5.425,7.823,4.676
			C8.201,4.573,8.59,4.5,9,4.5C9.921,4.5,10.776,4.78,11.49,5.256z M6.849,5.072c0.687,0.758,1.278,1.59,1.776,2.473
			C7.387,8.076,6.003,8.236,4.627,7.982C4.92,6.723,5.745,5.68,6.849,5.072z M4.5,9c0.468,0.064,0.936,0.121,1.399,0.121
			c1.106,0,2.187-0.244,3.185-0.683c0.123,0.261,0.238,0.524,0.344,0.793C7.959,9.757,6.659,10.72,5.7,12.036
			C4.962,11.234,4.5,10.174,4.5,9z M6.448,12.699c0.842-1.189,2.004-2.057,3.318-2.527c0.314,1.001,0.518,2.039,0.596,3.095
			C9.929,13.405,9.478,13.5,9,13.5C8.052,13.5,7.174,13.202,6.448,12.699z M11.32,12.836c-0.099-1-0.296-1.983-0.593-2.937
			c0.87-0.176,1.778-0.172,2.683,0.001C13.154,11.147,12.375,12.196,11.32,12.836z"/>
	</g>
</g>
<g>
</g>
<g>
</g>
<g>
</g>
<g>
</g>
<g>
</g>
<g>
</g>
<g>
</g>
<g>
</g>
<g>
</g>
<g>
</g>
<g>
</g>
<g>
</g>
<g>
</g>
<g>
</g>
<g>
</g>
</svg>
