<?xml version="1.0" encoding="iso-8859-1"?>
<!-- Generator: Adobe Illustrator 18.1.1, SVG Export Plug-In . SVG Version: 6.00 Build 0)  -->
<svg version="1.1" id="Capa_1" xmlns="http://www.w3.org/2000/svg"  x="0px" y="0px"
	 viewBox="0 0 18 18" style="enable-background:new 0 0 18 18;" xml:space="preserve">
<g>
	<path style="fill:#030104;" d="M9,0C4.038,0,0,4.037,0,9s4.038,9,9,9s9-4.037,9-9S13.962,0,9,0z M15.962,8.275
		c-1.765-0.289-3.534-0.187-5.205,0.262c-0.18-0.436-0.383-0.859-0.59-1.283c1.422-0.81,2.685-1.912,3.713-3.262
		C15.023,5.105,15.789,6.603,15.962,8.275z M13.13,3.361c-0.939,1.243-2.1,2.259-3.401,3.009C8.947,4.925,8,3.57,6.922,2.314
		C7.579,2.11,8.277,2,9,2C10.545,2,11.971,2.51,13.13,3.361z M5.947,2.711C7.066,3.976,8.04,5.356,8.839,6.828
		C6.778,7.785,4.443,8.122,2.122,7.727C2.53,5.515,3.982,3.669,5.947,2.711z M2,9c0-0.1,0.011-0.195,0.015-0.294
		c0.676,0.111,1.353,0.188,2.024,0.188c1.827,0,3.607-0.426,5.237-1.187C9.458,8.08,9.641,8.451,9.801,8.834
		C7.372,9.7,5.218,11.32,3.7,13.56C2.644,12.333,2,10.742,2,9z M4.393,14.257c1.43-2.129,3.465-3.673,5.764-4.487
		c0.683,1.854,1.123,3.795,1.292,5.779C10.686,15.836,9.862,16,9,16C7.235,16,5.625,15.339,4.393,14.257z M12.407,15.109
		c-0.196-1.932-0.631-3.822-1.293-5.632c1.564-0.404,3.222-0.486,4.871-0.19C15.883,11.789,14.469,13.955,12.407,15.109z"/>
</g>
<g>
</g>
<g>
</g>
<g>
</g>
<g>
</g>
<g>
</g>
<g>
</g>
<g>
</g>
<g>
</g>
<g>
</g>
<g>
</g>
<g>
</g>
<g>
</g>
<g>
</g>
<g>
</g>
<g>
</g>
</svg>
