<?xml version="1.0" encoding="iso-8859-1"?>
<!-- Generator: Adobe Illustrator 18.1.1, SVG Export Plug-In . SVG Version: 6.00 Build 0)  -->
<svg version="1.1" id="Capa_1" xmlns="http://www.w3.org/2000/svg" xmlns:xlink="http://www.w3.org/1999/xlink" x="0px" y="0px"
	 viewBox="0 0 17 17" style="enable-background:new 0 0 17 17;" xml:space="preserve">
<g>
	<g>
		<path style="fill:#030104;" d="M15,3h-1V2c0-1.104-0.896-2-2-2H5C3.896,0,3,0.896,3,2v1H2C1.448,3,1,3.448,1,4s0.448,1,1,1v8
			c0,2.206,1.794,4,4,4h5c2.206,0,4-1.794,4-4V5c0.552,0,1-0.448,1-1S15.552,3,15,3z M5,2h7v1H5V2z M13,13c0,1.104-0.896,2-2,2H6
			c-1.104,0-2-0.896-2-2V5h1h7h1V13z"/>
		<path style="fill:#030104;" d="M5.5,6.5C5.225,6.5,5,6.725,5,7v6c0,0.275,0.225,0.5,0.5,0.5S6,13.275,6,13V7
			C6,6.725,5.775,6.5,5.5,6.5z"/>
		<path style="fill:#030104;" d="M7.5,6.5C7.225,6.5,7,6.725,7,7v6c0,0.275,0.225,0.5,0.5,0.5S8,13.275,8,13V7
			C8,6.725,7.775,6.5,7.5,6.5z"/>
		<path style="fill:#030104;" d="M9.5,6.5C9.225,6.5,9,6.725,9,7v6c0,0.275,0.225,0.5,0.5,0.5S10,13.275,10,13V7
			C10,6.725,9.775,6.5,9.5,6.5z"/>
		<path style="fill:#030104;" d="M11.5,6.5C11.225,6.5,11,6.725,11,7v6c0,0.275,0.225,0.5,0.5,0.5S12,13.275,12,13V7
			C12,6.725,11.775,6.5,11.5,6.5z"/>
	</g>
</g>
<g>
</g>
<g>
</g>
<g>
</g>
<g>
</g>
<g>
</g>
<g>
</g>
<g>
</g>
<g>
</g>
<g>
</g>
<g>
</g>
<g>
</g>
<g>
</g>
<g>
</g>
<g>
</g>
<g>
</g>
</svg>
