<?xml version="1.0" encoding="iso-8859-1"?>
<!-- Generator: Adobe Illustrator 18.1.1, SVG Export Plug-In . SVG Version: 6.00 Build 0)  -->
<svg version="1.1" id="Capa_1" xmlns="http://www.w3.org/2000/svg"  x="0px" y="0px"
	 viewBox="0 0 20 20" style="enable-background:new 0 0 20 20;" xml:space="preserve">
<g>
	<path style="fill:#030104;" d="M8.828,18h-4c-0.553,0-1,0.447-1,1s0.447,1,1,1h10c0.553,0,1-0.447,1-1s-0.447-1-1-1h-4v-1.23
		c1.64-0.371,3.146-1.188,4.363-2.406c1.7-1.7,2.637-3.96,2.637-6.364c0-2.067-0.692-4.029-1.968-5.619l0.675-0.673
		c0.391-0.391,0.391-1.023,0.001-1.415c-0.391-0.391-1.024-0.39-1.415-0.001l-2.052,2.049l0.708,0.708
		C15.099,4.371,15.828,6.13,15.828,8s-0.729,3.627-2.051,4.949S10.698,15,8.828,15s-3.627-0.729-4.949-2.051
		c-0.391-0.391-1.023-0.391-1.414,0c-0.391,0.39-0.391,1.023,0,1.414C4.164,16.063,6.424,17,8.828,17V18z"/>
	<g>
		<path style="fill:#030104;" d="M8.828,2c1.657,0,3.157,0.672,4.243,1.757C14.156,4.843,14.828,6.343,14.828,8
			c0,1.656-0.672,3.156-1.757,4.242C11.985,13.328,10.485,14,8.828,14c-1.658,0-3.157-0.672-4.242-1.757
			C3.501,11.157,2.83,9.657,2.83,8s0.671-3.157,1.756-4.243C5.671,2.672,7.17,2,8.828,2z"/>
	</g>
</g>
<g>
</g>
<g>
</g>
<g>
</g>
<g>
</g>
<g>
</g>
<g>
</g>
<g>
</g>
<g>
</g>
<g>
</g>
<g>
</g>
<g>
</g>
<g>
</g>
<g>
</g>
<g>
</g>
<g>
</g>
</svg>
