<?xml version="1.0" encoding="iso-8859-1"?>
<!-- Generator: Adobe Illustrator 18.1.1, SVG Export Plug-In . SVG Version: 6.00 Build 0)  -->
<svg version="1.1" id="Capa_1" xmlns="http://www.w3.org/2000/svg" xmlns:xlink="http://www.w3.org/1999/xlink" x="0px" y="0px"
	 viewBox="0 0 19.999 19.999" style="enable-background:new 0 0 19.999 19.999;" xml:space="preserve">
<g>
	<g>
		<path style="fill:#030104;" d="M8.828,3.999c2.206,0,4,1.794,4,4s-1.794,4-4,4c-2.204,0-3.998-1.794-3.998-4
			S6.624,3.999,8.828,3.999 M8.828,1.999c-3.314,0-5.998,2.686-5.998,6s2.684,6,5.998,6c3.312,0,6-2.688,6-6
			C14.828,4.685,12.14,1.999,8.828,1.999z"/>
	</g>
	<path style="fill:#030104;" d="M14.828,17.999h-4v-1.23c1.641-0.371,3.146-1.188,4.363-2.406c1.699-1.699,2.637-3.96,2.637-6.363
		c0-2.067-0.691-4.028-1.968-5.619l0.675-0.673c0.391-0.391,0.391-1.023,0.001-1.415c-0.392-0.392-1.024-0.39-1.415-0.001
		l-2.052,2.049l0.708,0.708c1.322,1.321,2.051,3.08,2.051,4.95s-0.729,3.627-2.051,4.949s-3.079,2.051-4.949,2.051
		s-3.627-0.729-4.949-2.051c-0.391-0.391-1.023-0.391-1.414,0c-0.391,0.39-0.391,1.023,0,1.414c1.699,1.699,3.959,2.637,6.363,2.637
		v1h-4c-0.553,0-1,0.447-1,1s0.447,1,1,1h10c0.553,0,1-0.447,1-1S15.381,17.999,14.828,17.999z"/>
</g>
<g>
</g>
<g>
</g>
<g>
</g>
<g>
</g>
<g>
</g>
<g>
</g>
<g>
</g>
<g>
</g>
<g>
</g>
<g>
</g>
<g>
</g>
<g>
</g>
<g>
</g>
<g>
</g>
<g>
</g>
</svg>
