<?xml version="1.0" encoding="iso-8859-1"?>
<!-- Generator: Adobe Illustrator 18.1.1, SVG Export Plug-In . SVG Version: 6.00 Build 0)  -->
<svg version="1.1" id="Capa_1" xmlns="http://www.w3.org/2000/svg" xmlns:xlink="http://www.w3.org/1999/xlink" x="0px" y="0px"
	 viewBox="0 0 17 17" style="enable-background:new 0 0 17 17;" xml:space="preserve">
<g>
	<path style="fill:#030104;" d="M12.031,3.551V2c0-1.105-0.896-2-2-2h-10v10c0,1.104,0.896,2,2,2h1.066c0.893,2.887,3.646,5,6.809,5
		c3.859,0,7.062-3.016,7.062-6.875C16.969,6.964,14.9,4.385,12.031,3.551z M4.031,5.413v3.243c0,0.552-0.448,1-1,1s-1-0.448-1-1V2
		h6.656c0.552,0,1,0.448,1,1s-0.448,1-1,1H5.444l4.801,4.799c0.392,0.391,0.392,1.025,0.001,1.415
		c-0.189,0.188-0.439,0.292-0.708,0.292c-0.268,0-0.519-0.104-0.707-0.291L4.031,5.413z M10.031,15.031c-2.757,0-5-2.26-5-5.016
		c0-0.705-0.004-1.371,0.21-1.979l2.883,2.884c0.39,0.39,0.901,0.584,1.414,0.584s1.022-0.194,1.414-0.584
		c0.781-0.78,0.781-2.049,0-2.83L8.385,5.523c0.517-0.226,1.065-0.398,1.646-0.398c2.757,0,5,2.182,5,4.938
		C15.031,12.82,12.788,15.031,10.031,15.031z"/>
</g>
<g>
</g>
<g>
</g>
<g>
</g>
<g>
</g>
<g>
</g>
<g>
</g>
<g>
</g>
<g>
</g>
<g>
</g>
<g>
</g>
<g>
</g>
<g>
</g>
<g>
</g>
<g>
</g>
<g>
</g>
</svg>
