<?xml version="1.0" encoding="iso-8859-1"?>
<!-- Generator: Adobe Illustrator 18.1.1, SVG Export Plug-In . SVG Version: 6.00 Build 0)  -->
<svg version="1.1" id="Capa_1" xmlns="http://www.w3.org/2000/svg" xmlns:xlink="http://www.w3.org/1999/xlink" x="0px" y="0px"
	 viewBox="0 0 21 21" style="enable-background:new 0 0 21 21;" xml:space="preserve">
<g>
	<g id="Layer_1_93_">
		<path style="fill:#030104;" d="M15,3H6C5.45,3,5,3.45,5,4v12c0,0.55,0.45,1,1,1h3.5c0,0.553,0.448,1,1,1s1-0.447,1-1H15
			c0.55,0,1-0.45,1-1V4C16,3.45,15.55,3,15,3z M15,16H6V4h9V16z"/>
		<path style="fill:#030104;" d="M16,0H5C3.346,0,2,1.346,2,3v15c0,1.654,1.346,3,3,3h11c1.654,0,3-1.346,3-3V3
			C19,1.346,17.654,0,16,0z M17,18c0,0.551-0.449,1-1,1H5c-0.551,0-1-0.449-1-1V3c0-0.551,0.449-1,1-1h11c0.551,0,1,0.449,1,1V18z"
			/>
	</g>
</g>
<g>
</g>
<g>
</g>
<g>
</g>
<g>
</g>
<g>
</g>
<g>
</g>
<g>
</g>
<g>
</g>
<g>
</g>
<g>
</g>
<g>
</g>
<g>
</g>
<g>
</g>
<g>
</g>
<g>
</g>
</svg>
