<?xml version="1.0" encoding="iso-8859-1"?>
<!-- Generator: Adobe Illustrator 18.1.1, SVG Export Plug-In . SVG Version: 6.00 Build 0)  -->
<svg version="1.1" id="Capa_1" xmlns="http://www.w3.org/2000/svg" xmlns:xlink="http://www.w3.org/1999/xlink" x="0px" y="0px"
	 viewBox="0 0 18 18" style="enable-background:new 0 0 18 18;" xml:space="preserve">
<g>
	<g>
		<g>
			<path style="fill:#030104;" d="M15,8.5H3c-1.654,0-3-1.346-3-3s1.346-3,3-3h12c1.654,0,3,1.346,3,3S16.654,8.5,15,8.5z M3,4.5
				c-0.552,0-1,0.449-1,1s0.448,1,1,1h12c0.552,0,1-0.449,1-1s-0.448-1-1-1H3z"/>
		</g>
	</g>
	<g>
		<g>
			<path style="fill:#030104;" d="M15,15.5H3c-1.654,0-3-1.346-3-3s1.346-3,3-3h12c1.654,0,3,1.346,3,3S16.654,15.5,15,15.5z
				 M3,11.5c-0.552,0-1,0.449-1,1c0,0.551,0.448,1,1,1h12c0.552,0,1-0.449,1-1s-0.448-1-1-1H3z"/>
		</g>
	</g>
</g>
<g>
</g>
<g>
</g>
<g>
</g>
<g>
</g>
<g>
</g>
<g>
</g>
<g>
</g>
<g>
</g>
<g>
</g>
<g>
</g>
<g>
</g>
<g>
</g>
<g>
</g>
<g>
</g>
<g>
</g>
</svg>
