<?xml version="1.0" encoding="iso-8859-1"?>
<!-- Generator: Adobe Illustrator 18.1.1, SVG Export Plug-In . SVG Version: 6.00 Build 0)  -->
<svg version="1.1" id="Capa_1" xmlns="http://www.w3.org/2000/svg"  x="0px" y="0px"
	 viewBox="0 0 18 18" style="enable-background:new 0 0 18 18;" xml:space="preserve">
<g>
	<g id="Layer_1_83_">
		<g>
			<path style="fill:#030104;" d="M11,4.976l4.133,4.025L11,13.027V9.002V4.976 M10.8,2.7C9.806,2.7,9,3.507,9,4.501v4.5v4.5
				c0,0.994,0.806,1.799,1.8,1.799c0.488,0,0.93-0.195,1.253-0.512C14.434,12.474,18,9.001,18,9.001s-3.566-3.475-5.944-5.789
				C11.729,2.898,11.288,2.7,10.8,2.7z"/>
		</g>
		<g>
			<path style="fill:#030104;" d="M2,4.976l4.133,4.025L2,13.027V4.976 M1.8,2.7C0.806,2.7,0,3.507,0,4.501v9
				C0,14.495,0.806,15.3,1.8,15.3c0.488,0,0.93-0.195,1.253-0.512C5.434,12.474,9,9.001,9,9.001S5.434,5.527,3.056,3.212
				C2.729,2.898,2.288,2.7,1.8,2.7z"/>
		</g>
	</g>
</g>
<g>
</g>
<g>
</g>
<g>
</g>
<g>
</g>
<g>
</g>
<g>
</g>
<g>
</g>
<g>
</g>
<g>
</g>
<g>
</g>
<g>
</g>
<g>
</g>
<g>
</g>
<g>
</g>
<g>
</g>
</svg>
