<?xml version="1.0" encoding="iso-8859-1"?>
<!-- Generator: Adobe Illustrator 18.1.1, SVG Export Plug-In . SVG Version: 6.00 Build 0)  -->
<svg version="1.1" id="Capa_1" xmlns="http://www.w3.org/2000/svg" xmlns:xlink="http://www.w3.org/1999/xlink" x="0px" y="0px"
	 viewBox="0 0 18 18" style="enable-background:new 0 0 18 18;" xml:space="preserve">
<g>
	<g id="Layer_1_111_">
		<g>
			<path style="fill:#030104;" d="M7,4.976v4.025v4.025L2.867,9.001L7,4.976 M7.2,2.7c-0.488,0-0.931,0.197-1.253,0.512
				C3.566,5.527,0,9.001,0,9.001s3.566,3.473,5.944,5.789C6.27,15.105,6.712,15.3,7.2,15.3c0.994,0,1.8-0.805,1.8-1.799v-4.5v-4.5
				C9,3.507,8.194,2.7,7.2,2.7z"/>
		</g>
		<g>
			<path style="fill:#030104;" d="M16,4.976v8.051l-4.133-4.025L16,4.976 M16.2,2.7c-0.488,0-0.931,0.197-1.253,0.512
				C12.566,5.527,9,9.001,9,9.001s3.566,3.473,5.944,5.789c0.326,0.315,0.768,0.51,1.256,0.51c0.994,0,1.8-0.805,1.8-1.799v-9
				C18,3.507,17.194,2.7,16.2,2.7z"/>
		</g>
	</g>
</g>
<g>
</g>
<g>
</g>
<g>
</g>
<g>
</g>
<g>
</g>
<g>
</g>
<g>
</g>
<g>
</g>
<g>
</g>
<g>
</g>
<g>
</g>
<g>
</g>
<g>
</g>
<g>
</g>
<g>
</g>
</svg>
