<?xml version="1.0" encoding="iso-8859-1"?>
<!-- Generator: Adobe Illustrator 18.1.1, SVG Export Plug-In . SVG Version: 6.00 Build 0)  -->
<svg version="1.1" id="Capa_1" xmlns="http://www.w3.org/2000/svg" xmlns:xlink="http://www.w3.org/1999/xlink" x="0px" y="0px"
	 viewBox="0 0 22.017 22.017" style="enable-background:new 0 0 22.017 22.017;" xml:space="preserve">
<g>
	<g id="Layer_1_54_">
		<path style="fill:#030104;" d="M11.189,0.034L11.009,0l-0.18,0.033c-4.821,0.884-8.32,5.084-8.32,9.984
			c0,4.617,3.108,8.61,7.5,9.795v1.205c0,0.553,0.448,1,1,1s1-0.447,1-1v-1.205c4.392-1.185,7.5-5.178,7.5-9.795
			C19.508,5.117,16.009,0.917,11.189,0.034z M12.009,17.717v-11.7c0-0.553-0.448-1-1-1s-1,0.447-1,1v11.7
			c-3.18-1.093-5.4-4.054-5.49-7.483l3.137,3.137c0.097,0.097,0.225,0.146,0.353,0.146s0.256-0.049,0.354-0.146
			c0.195-0.195,0.195-0.512,0-0.707L4.594,8.895C4.727,7.931,5.028,7.018,5.47,6.186l2.184,2.185
			C7.753,8.468,7.88,8.517,8.009,8.517s0.256-0.049,0.354-0.146c0.195-0.195,0.195-0.512,0-0.707L6.01,5.311
			c1.162-1.641,2.919-2.846,4.999-3.275c2.08,0.43,3.837,1.635,4.999,3.275l-2.353,2.353c-0.195,0.195-0.195,0.512,0,0.707
			c0.098,0.097,0.226,0.146,0.354,0.146s0.256-0.049,0.354-0.146l2.184-2.185c0.444,0.832,0.744,1.745,0.877,2.709l-3.769,3.769
			c-0.195,0.195-0.195,0.512,0,0.707c0.098,0.098,0.226,0.146,0.354,0.146s0.256-0.049,0.354-0.146l3.137-3.137
			C17.408,13.663,15.189,16.624,12.009,17.717z"/>
	</g>
</g>
<g>
</g>
<g>
</g>
<g>
</g>
<g>
</g>
<g>
</g>
<g>
</g>
<g>
</g>
<g>
</g>
<g>
</g>
<g>
</g>
<g>
</g>
<g>
</g>
<g>
</g>
<g>
</g>
<g>
</g>
</svg>
