<?xml version="1.0" encoding="iso-8859-1"?>
<!-- Generator: Adobe Illustrator 18.1.1, SVG Export Plug-In . SVG Version: 6.00 Build 0)  -->
<svg version="1.1" id="Capa_1" xmlns="http://www.w3.org/2000/svg"  x="0px" y="0px"
	 viewBox="0 0 19 19" style="enable-background:new 0 0 19 19;" xml:space="preserve">
<g>
	<g id="Layer_1_69_">
		<path style="fill:#030104;" d="M5.5,6v7h8V6H5.5z M12.5,12h-6V7h6V12z"/>
		<path style="fill:#030104;" d="M14.5,0h-3v2h-4V0h-3c-1.654,0-3,1.346-3,3v13c0,1.654,1.346,3,3,3h3v-2h4v2h3c1.654,0,3-1.346,3-3
			V3C17.5,1.346,16.154,0,14.5,0z M15.5,4c-0.553,0-1,0.447-1,1s0.447,1,1,1v1c-0.553,0-1,0.447-1,1s0.447,1,1,1v1
			c-0.553,0-1,0.447-1,1s0.447,1,1,1v1c-0.553,0-1,0.447-1,1c0,0.553,0.447,1,1,1v1c0,0.551-0.448,1-1,1h-1v-2h-8v2h-1
			c-0.552,0-1-0.449-1-1v-1c0.553,0,1-0.447,1-1s-0.447-1-1-1v-1c0.553,0,1-0.447,1-1s-0.447-1-1-1V9c0.553,0,1-0.447,1-1
			s-0.447-1-1-1V6c0.553,0,1-0.447,1-1s-0.447-1-1-1V3c0-0.551,0.448-1,1-1h1v2h8V2h1c0.552,0,1,0.449,1,1V4z"/>
	</g>
</g>
<g>
</g>
<g>
</g>
<g>
</g>
<g>
</g>
<g>
</g>
<g>
</g>
<g>
</g>
<g>
</g>
<g>
</g>
<g>
</g>
<g>
</g>
<g>
</g>
<g>
</g>
<g>
</g>
<g>
</g>
</svg>
