<?xml version="1.0" encoding="iso-8859-1"?>
<!-- Generator: Adobe Illustrator 18.1.1, SVG Export Plug-In . SVG Version: 6.00 Build 0)  -->
<svg version="1.1" id="Capa_1" xmlns="http://www.w3.org/2000/svg" xmlns:xlink="http://www.w3.org/1999/xlink" x="0px" y="0px"
	 viewBox="0 0 16.239 16.239" style="enable-background:new 0 0 16.239 16.239;" xml:space="preserve">
<g>
	<g id="Layer_1_55_">
		<path style="fill:#030104;" d="M14.503,1.315c-0.374-0.155-0.804-0.069-1.09,0.217c-1.264,1.263-3.321,1.264-4.586,0
			c-2.045-2.043-5.37-2.043-7.414,0C1.225,1.719,1.12,1.974,1.12,2.239v13c0,0.552,0.448,1,1,1s1-0.448,1-1v-4.553
			c1.271-0.997,3.121-0.911,4.293,0.26c2.045,2.043,5.371,2.043,7.414,0c0.188-0.188,0.293-0.442,0.293-0.707v-8
			C15.12,1.834,14.876,1.47,14.503,1.315z M7.413,2.946c1.54,1.539,3.808,1.918,5.707,1.138v2.311
			c-1.446,0.916-3.387,0.749-4.646-0.51C7.026,4.438,4.876,4.142,3.12,4.958V2.686C4.391,1.689,6.241,1.774,7.413,2.946z
			 M8.827,9.531C7.805,8.51,6.462,7.999,5.12,7.999c-0.681,0-1.361,0.131-2,0.394V6.082c1.446-0.916,3.387-0.749,4.646,0.51
			c0.925,0.924,2.139,1.386,3.354,1.386c0.687,0,1.366-0.164,2-0.459v2.272C11.848,10.788,9.998,10.702,8.827,9.531z"/>
	</g>
</g>
<g>
</g>
<g>
</g>
<g>
</g>
<g>
</g>
<g>
</g>
<g>
</g>
<g>
</g>
<g>
</g>
<g>
</g>
<g>
</g>
<g>
</g>
<g>
</g>
<g>
</g>
<g>
</g>
<g>
</g>
</svg>
