<?xml version="1.0" encoding="iso-8859-1"?>
<!-- Generator: Adobe Illustrator 18.1.1, SVG Export Plug-In . SVG Version: 6.00 Build 0)  -->
<svg version="1.1" id="Capa_1" xmlns="http://www.w3.org/2000/svg" xmlns:xlink="http://www.w3.org/1999/xlink" x="0px" y="0px"
	 viewBox="0 0 16.239 16.239" style="enable-background:new 0 0 16.239 16.239;" xml:space="preserve">
<g>
	<path style="fill:#030104;" d="M14.503,1.315c-0.374-0.155-0.804-0.069-1.09,0.217c-1.264,1.263-3.321,1.264-4.586,0
		c-2.045-2.043-5.37-2.043-7.414,0C1.225,1.719,1.12,1.974,1.12,2.239v13c0,0.552,0.447,1,1,1s1-0.448,1-1v-4.553
		c1.271-0.997,3.121-0.911,4.293,0.26c2.045,2.043,5.371,2.043,7.414,0c0.188-0.188,0.293-0.442,0.293-0.707v-8
		C15.12,1.834,14.876,1.47,14.503,1.315z"/>
</g>
<g>
</g>
<g>
</g>
<g>
</g>
<g>
</g>
<g>
</g>
<g>
</g>
<g>
</g>
<g>
</g>
<g>
</g>
<g>
</g>
<g>
</g>
<g>
</g>
<g>
</g>
<g>
</g>
<g>
</g>
</svg>
