<?xml version="1.0" encoding="iso-8859-1"?>
<!-- Generator: Adobe Illustrator 18.1.1, SVG Export Plug-In . SVG Version: 6.00 Build 0)  -->
<svg version="1.1" id="Capa_1" xmlns="http://www.w3.org/2000/svg"  x="0px" y="0px"
	 viewBox="0 0 17 17" style="enable-background:new 0 0 17 17;" xml:space="preserve">
<g>
	<g>
		<path style="fill:#030104;" d="M4,12.5c-2.206,0-4-1.794-4-4s1.794-4,4-4s4,1.794,4,4S6.206,12.5,4,12.5z M4,6.5
			c-1.103,0-2,0.897-2,2s0.897,2,2,2s2-0.897,2-2S5.103,6.5,4,6.5z"/>
	</g>
	<path style="fill:#030104;" d="M13,4.5c-2.206,0-4,1.794-4,4s1.794,4,4,4s4-1.794,4-4S15.206,4.5,13,4.5z"/>
</g>
<g>
</g>
<g>
</g>
<g>
</g>
<g>
</g>
<g>
</g>
<g>
</g>
<g>
</g>
<g>
</g>
<g>
</g>
<g>
</g>
<g>
</g>
<g>
</g>
<g>
</g>
<g>
</g>
<g>
</g>
</svg>
