<?xml version="1.0" encoding="iso-8859-1"?>
<!-- Generator: Adobe Illustrator 18.1.1, SVG Export Plug-In . SVG Version: 6.00 Build 0)  -->
<svg version="1.1" id="Capa_1" xmlns="http://www.w3.org/2000/svg"  x="0px" y="0px"
	 viewBox="0 0 18 18" style="enable-background:new 0 0 18 18;" xml:space="preserve">
<g>
	<g id="Layer_1_62_">
		<g>
			<g>
				<path style="fill:#030104;" d="M9,18c-2.489,0-4.635-0.89-6.376-2.646C0.883,13.603,0,11.465,0,9
					c0-2.488,0.884-4.634,2.627-6.375C4.367,0.884,6.512,0,9,0c2.466,0,4.604,0.883,6.354,2.624C17.109,4.366,18,6.512,18,9
					c0,2.465-0.89,4.604-2.644,6.357C13.605,17.11,11.467,18,9,18z M9,2C7.034,2,5.412,2.667,4.042,4.04C2.668,5.412,2,7.034,2,9
					c0,1.944,0.668,3.562,2.043,4.945C5.415,15.328,7.036,16,9,16c1.943,0,3.56-0.673,4.941-2.057C15.327,12.559,16,10.941,16,9
					c0-1.963-0.672-3.585-2.055-4.957C12.562,2.668,10.945,2,9,2z"/>
			</g>
		</g>
		<g>
			<path style="fill:#030104;" d="M6,11.5c-1.379,0-2.5-1.121-2.5-2.5S4.621,6.5,6,6.5S8.5,7.621,8.5,9S7.379,11.5,6,11.5z M6,7.5
				C5.173,7.5,4.5,8.173,4.5,9s0.673,1.5,1.5,1.5S7.5,9.827,7.5,9S6.827,7.5,6,7.5z"/>
		</g>
		<g>
			<path style="fill:#030104;" d="M12,11.5c-1.379,0-2.5-1.121-2.5-2.5s1.121-2.5,2.5-2.5s2.5,1.121,2.5,2.5S13.379,11.5,12,11.5z"
				/>
		</g>
	</g>
</g>
<g>
</g>
<g>
</g>
<g>
</g>
<g>
</g>
<g>
</g>
<g>
</g>
<g>
</g>
<g>
</g>
<g>
</g>
<g>
</g>
<g>
</g>
<g>
</g>
<g>
</g>
<g>
</g>
<g>
</g>
</svg>
