<?xml version="1.0" encoding="iso-8859-1"?>
<!-- Generator: Adobe Illustrator 18.1.1, SVG Export Plug-In . SVG Version: 6.00 Build 0)  -->
<svg version="1.1" id="Capa_1" xmlns="http://www.w3.org/2000/svg"  x="0px" y="0px"
	 viewBox="0 0 19 19" style="enable-background:new 0 0 19 19;" xml:space="preserve">
<g>
	<g id="Layer_1_103_">
		<path style="fill:#030104;" d="M17.5,5h-2.352C15.367,4.543,15.5,4.039,15.5,3.5C15.5,1.57,13.93,0,12,0
			c-0.979,0-1.864,0.407-2.5,1.058C8.864,0.407,7.979,0,7,0C5.07,0,3.5,1.57,3.5,3.5c0,0.539,0.133,1.043,0.352,1.5H1.5
			c-0.553,0-1,0.448-1,1v4c0,0.552,0.447,1,1,1v5c0,1.654,1.346,3,3,3h10c1.654,0,3-1.346,3-3v-5c0.553,0,1-0.448,1-1V6
			C18.5,5.448,18.053,5,17.5,5z M16.5,9h-5V7h5V9z M8.5,4h2v1h-2V4z M10.5,7v2h-2V7H10.5z M12,2c0.827,0,1.5,0.673,1.5,1.5
			S12.827,5,12,5c-0.177,0-0.344-0.039-0.5-0.097V4c0-0.521-0.404-0.937-0.913-0.982C10.789,2.428,11.343,2,12,2z M5.5,3.5
			C5.5,2.673,6.173,2,7,2c0.657,0,1.211,0.428,1.413,1.018C7.904,3.063,7.5,3.479,7.5,4v0.903C7.344,4.961,7.177,5,7,5
			C6.173,5,5.5,4.327,5.5,3.5z M7.5,7v2h-5V7H7.5z M4.5,17c-0.551,0-1-0.449-1-1v-6h4v7H4.5z M8.5,17v-7h2v7H8.5z M14.5,17h-3v-7h4
			v6C15.5,16.551,15.051,17,14.5,17z"/>
	</g>
</g>
<g>
</g>
<g>
</g>
<g>
</g>
<g>
</g>
<g>
</g>
<g>
</g>
<g>
</g>
<g>
</g>
<g>
</g>
<g>
</g>
<g>
</g>
<g>
</g>
<g>
</g>
<g>
</g>
<g>
</g>
</svg>
