<?xml version="1.0" encoding="iso-8859-1"?>
<!-- Generator: Adobe Illustrator 18.1.1, SVG Export Plug-In . SVG Version: 6.00 Build 0)  -->
<svg version="1.1" id="Capa_1" xmlns="http://www.w3.org/2000/svg" xmlns:xlink="http://www.w3.org/1999/xlink" x="0px" y="0px"
	 viewBox="0 0 14 14" style="enable-background:new 0 0 14 14;" xml:space="preserve">
<g>
	<g>
		<g>
			<path style="fill:#030104;" d="M9.435,7.973c0.269,0,0.492,0.133,0.686,0.396c0.192,0.265,0.294,0.588,0.294,0.975
				c0,0.385-0.102,0.711-0.294,0.973c-0.193,0.265-0.417,0.396-0.686,0.396c-0.278,0-0.522-0.131-0.715-0.396
				c-0.192-0.262-0.294-0.588-0.294-0.973c0-0.387,0.102-0.71,0.294-0.975C8.912,8.105,9.156,7.973,9.435,7.973 M12.875,4.414
				C13.621,5.225,14,6.209,14,7.367c0,0.748-0.086,1.423-0.259,2.023c-0.175,0.597-0.394,1.084-0.654,1.459
				c-0.264,0.376-0.588,0.705-0.974,0.989c-0.386,0.286-0.741,0.492-1.065,0.623c-0.325,0.132-0.695,0.233-1.111,0.306
				c-0.417,0.071-0.726,0.111-0.943,0.123c-0.213,0.009-0.438,0.014-0.685,0.014c-0.055,0-0.243,0.004-0.547,0.015
				C7.461,12.932,7.202,12.935,7,12.935s-0.461-0.003-0.762-0.016c-0.304-0.011-0.492-0.015-0.547-0.015
				c-0.246,0-0.472-0.005-0.685-0.014c-0.218-0.012-0.526-0.052-0.943-0.123c-0.423-0.072-0.786-0.174-1.111-0.306
				c-0.324-0.131-0.68-0.337-1.064-0.623c-0.387-0.284-0.711-0.613-0.975-0.989C0.652,10.474,0.434,9.987,0.259,9.39
				C0.086,8.79,0,8.115,0,7.367c0-1.158,0.379-2.143,1.125-2.953C1.043,4.373,1.04,3.967,1.117,3.197
				C1.18,2.426,1.344,1.715,1.612,1.065c0.934,0.099,2.09,0.629,3.471,1.581C5.549,2.527,6.184,2.463,7,2.463
				c0.852,0,1.491,0.064,1.918,0.184c0.629-0.425,1.23-0.771,1.805-1.034c0.584-0.261,1.005-0.416,1.269-0.457l0.396-0.09
				c0.27,0.649,0.434,1.36,0.496,2.132C12.96,3.967,12.957,4.373,12.875,4.414 M7.03,12.234c1.688,0,2.954-0.202,3.821-0.607
				c0.855-0.404,1.292-1.238,1.292-2.496c0-0.73-0.273-1.34-0.822-1.828c-0.278-0.263-0.613-0.425-0.989-0.486
				c-0.375-0.061-0.949-0.061-1.72,0c-0.769,0.062-1.298,0.09-1.582,0.09c-0.385,0-0.8-0.018-1.319-0.059
				c-0.52-0.04-0.928-0.065-1.223-0.078C4.194,6.761,3.879,6.797,3.53,6.878C3.185,6.96,2.901,7.102,2.677,7.303
				c-0.521,0.469-0.79,1.077-0.79,1.828c0,1.258,0.426,2.092,1.28,2.496c0.85,0.405,2.113,0.607,3.802,0.607H7.03 M4.596,7.973
				c0.268,0,0.492,0.133,0.685,0.396c0.192,0.265,0.294,0.588,0.294,0.975c0,0.385-0.102,0.711-0.294,0.973
				c-0.192,0.265-0.417,0.396-0.685,0.396c-0.279,0-0.522-0.131-0.716-0.396c-0.192-0.262-0.294-0.588-0.294-0.973
				c0-0.387,0.102-0.71,0.294-0.975C4.073,8.105,4.316,7.973,4.596,7.973"/>
		</g>
	</g>
</g>
<g>
</g>
<g>
</g>
<g>
</g>
<g>
</g>
<g>
</g>
<g>
</g>
<g>
</g>
<g>
</g>
<g>
</g>
<g>
</g>
<g>
</g>
<g>
</g>
<g>
</g>
<g>
</g>
<g>
</g>
</svg>
