<?xml version="1.0" encoding="iso-8859-1"?>
<!-- Generator: Adobe Illustrator 18.1.1, SVG Export Plug-In . SVG Version: 6.00 Build 0)  -->
<svg version="1.1" id="Capa_1" xmlns="http://www.w3.org/2000/svg" xmlns:xlink="http://www.w3.org/1999/xlink" x="0px" y="0px"
	 viewBox="0 0 18 18" style="enable-background:new 0 0 18 18;" xml:space="preserve">
<g>
	<g id="Layer_1_91_">
		<path style="fill:#030104;" d="M18,9c0-4.963-4.037-9-9-9S0,4.037,0,9v2.6c0,0.04,0.019,0.074,0.023,0.113
			C0.01,11.956,0,12.213,0,12.5v2C0,16.43,1.57,18,3.5,18S7,16.43,7,14.5v-2c0-1.511-0.83-2.79-1.982-3.278
			C5.113,7.1,6.855,5.399,9,5.399s3.887,1.7,3.982,3.822C11.83,9.711,11,10.989,11,12.5v2c0,1.93,1.57,3.5,3.5,3.5s3.5-1.57,3.5-3.5
			v-2c0-0.287-0.01-0.544-0.023-0.787C17.981,11.674,18,11.64,18,11.6V9z M2,9c0-1.586,0.538-3.046,1.432-4.221l0.89,0.889
			C3.58,6.596,3.104,7.743,3.02,9C3,9,3,10,3,10H2V9z M5,14.5C5,15.327,4.327,16,3.5,16S2,15.327,2,14.5v-2
			c0-0.666,0.057-1.176,0.114-1.5H4c0.473,0,1,0.616,1,1.5V14.5z M12.77,5.162l-0.354,0.354C11.504,4.603,10.291,4.1,9,4.1
			S6.496,4.603,5.583,5.516L5.229,5.162L4.088,4.021L3.461,3.395C4.94,1.915,6.908,1.1,9,1.1c2.093,0,4.06,0.815,5.539,2.295
			l-0.627,0.626L12.77,5.162z M16,14.5c0,0.827-0.673,1.5-1.5,1.5S13,15.327,13,14.5v-2c0-0.884,0.527-1.5,1-1.5h1.886
			C15.943,11.324,16,11.834,16,12.5V14.5z M16,10h-1V9c-0.104-1.257-0.58-2.404-1.322-3.332l0.891-0.889C15.462,5.954,16,7.413,16,9
			V10z"/>
	</g>
</g>
<g>
</g>
<g>
</g>
<g>
</g>
<g>
</g>
<g>
</g>
<g>
</g>
<g>
</g>
<g>
</g>
<g>
</g>
<g>
</g>
<g>
</g>
<g>
</g>
<g>
</g>
<g>
</g>
<g>
</g>
</svg>
