<?xml version="1.0" encoding="iso-8859-1"?>
<!-- Generator: Adobe Illustrator 18.1.1, SVG Export Plug-In . SVG Version: 6.00 Build 0)  -->
<svg version="1.1" id="Capa_1" xmlns="http://www.w3.org/2000/svg"  x="0px" y="0px"
	 viewBox="0 0 19.5 19.5" style="enable-background:new 0 0 19.5 19.5;" xml:space="preserve">
<g>
	<g>
		<path style="fill:#030104;" d="M9.75,17.75c-0.195,0-0.391-0.057-0.561-0.172c-0.225-0.151-5.508-3.73-7.146-5.371
			C0.212,10.376,0,8.43,0,7.125C0,4.161,2.411,1.75,5.375,1.75c1.802,0,3.398,0.891,4.375,2.256
			c0.977-1.365,2.573-2.256,4.375-2.256c2.964,0,5.375,2.411,5.375,5.375c0,1.305-0.212,3.251-2.043,5.082
			c-1.641,1.641-6.923,5.22-7.146,5.371C10.141,17.693,9.945,17.75,9.75,17.75z M5.375,3.75C3.514,3.75,2,5.264,2,7.125
			c0,1.093,0.173,2.384,1.457,3.668c1.212,1.212,4.883,3.775,6.293,4.746c1.41-0.971,5.081-3.534,6.293-4.746
			C17.327,9.509,17.5,8.218,17.5,7.125c0-1.861-1.514-3.375-3.375-3.375S10.75,5.264,10.75,7.125c0,0.552-0.447,1-1,1s-1-0.448-1-1
			C8.75,5.264,7.236,3.75,5.375,3.75z"/>
	</g>
</g>
<g>
</g>
<g>
</g>
<g>
</g>
<g>
</g>
<g>
</g>
<g>
</g>
<g>
</g>
<g>
</g>
<g>
</g>
<g>
</g>
<g>
</g>
<g>
</g>
<g>
</g>
<g>
</g>
<g>
</g>
</svg>
