<?xml version="1.0" encoding="iso-8859-1"?>
<!-- Generator: Adobe Illustrator 18.1.1, SVG Export Plug-In . SVG Version: 6.00 Build 0)  -->
<svg version="1.1" id="Capa_1" xmlns="http://www.w3.org/2000/svg"  x="0px" y="0px"
	 viewBox="0 0 19 19" style="enable-background:new 0 0 19 19;" xml:space="preserve">
<g>
	<g>
		<path style="fill:#030104;" d="M7,12.5c-0.552,0-1-0.447-1-1v-4c0-0.553,0.448-1,1-1s1,0.447,1,1v4C8,12.053,7.552,12.5,7,12.5z"
			/>
	</g>
	<g>
		<path style="fill:#030104;" d="M4,12.5c-0.552,0-1-0.447-1-1v-4c0-0.553,0.448-1,1-1s1,0.447,1,1v4C5,12.053,4.552,12.5,4,12.5z"
			/>
	</g>
	<g>
		<path style="fill:#030104;" d="M10,12.5c-0.552,0-1-0.447-1-1v-4c0-0.553,0.448-1,1-1s1,0.447,1,1v4
			C11,12.053,10.552,12.5,10,12.5z"/>
	</g>
	<path style="fill:#030104;" d="M17,6.5c0-1.654-1.346-3-3-3H3c-1.654,0-3,1.346-3,3v6c0,1.654,1.346,3,3,3h11c1.654,0,3-1.346,3-3
		c1.104,0,2-0.896,2-2v-2C19,7.396,18.104,6.5,17,6.5z M15,12.5c0,0.552-0.449,1-1,1H3c-0.551,0-1-0.448-1-1v-6c0-0.552,0.449-1,1-1
		h11c0.551,0,1,0.448,1,1V12.5z"/>
</g>
<g>
</g>
<g>
</g>
<g>
</g>
<g>
</g>
<g>
</g>
<g>
</g>
<g>
</g>
<g>
</g>
<g>
</g>
<g>
</g>
<g>
</g>
<g>
</g>
<g>
</g>
<g>
</g>
<g>
</g>
</svg>
