<?xml version="1.0" encoding="iso-8859-1"?>
<!-- Generator: Adobe Illustrator 18.1.1, SVG Export Plug-In . SVG Version: 6.00 Build 0)  -->
<svg version="1.1" id="Capa_1" xmlns="http://www.w3.org/2000/svg" xmlns:xlink="http://www.w3.org/1999/xlink" x="0px" y="0px"
	 viewBox="0 0 22 22" style="enable-background:new 0 0 22 22;" xml:space="preserve">
<g>
	<path style="fill:#030104;" d="M21.262,9.628c-3.39-2.854-9.546-8.171-9.607-8.225L11,0.84l-0.652,0.563
		c-0.062,0.053-6.221,5.368-9.66,8.248C0.25,10.045,0,10.596,0,11.16c0,1.104,0.896,2,2,2h1v6c0,1.104,0.896,2,2,2h3h9
		c1.104,0,2-0.896,2-2v-6h1c1.104,0,2-0.896,2-2C22,10.562,21.725,9.999,21.262,9.628z M13,19.16H9v-5h4V19.16z M17,11.16l0.002,8
		c-0.002,0-3.002,0-3.002,0v-6H8v6H5v-8H1.999C4.764,8.848,9.314,4.933,11,3.48c1.686,1.453,6.234,5.367,9,7.681
		C20,11.161,17,11.161,17,11.16z"/>
</g>
<g>
</g>
<g>
</g>
<g>
</g>
<g>
</g>
<g>
</g>
<g>
</g>
<g>
</g>
<g>
</g>
<g>
</g>
<g>
</g>
<g>
</g>
<g>
</g>
<g>
</g>
<g>
</g>
<g>
</g>
</svg>
