<?xml version="1.0" encoding="iso-8859-1"?>
<!-- Generator: Adobe Illustrator 18.1.1, SVG Export Plug-In . SVG Version: 6.00 Build 0)  -->
<svg version="1.1" id="Capa_1" xmlns="http://www.w3.org/2000/svg" xmlns:xlink="http://www.w3.org/1999/xlink" x="0px" y="0px"
	 viewBox="0 0 15.999 15.999" style="enable-background:new 0 0 15.999 15.999;" xml:space="preserve">
<g>
	<g>
		<path style="fill:#030104;" d="M10.339,14.024C10.333,14.026,9.78,14.21,9.3,14.21c-0.265,0-0.372-0.055-0.406-0.079
			c-0.168-0.117-0.48-0.336,0.054-1.4l1-1.994c0.593-1.184,0.681-2.329,0.245-3.225c-0.356-0.733-1.039-1.236-1.92-1.416
			C7.956,6.031,7.634,5.999,7.315,5.999c-1.849,0-3.094,1.08-3.146,1.126C3.99,7.283,3.948,7.545,4.067,7.751
			c0.12,0.206,0.367,0.3,0.595,0.222c0.005-0.002,0.559-0.187,1.039-0.187c0.263,0,0.369,0.055,0.402,0.078
			c0.169,0.118,0.482,0.34-0.051,1.402l-1,1.995c-0.594,1.185-0.681,2.33-0.245,3.225c0.356,0.733,1.038,1.236,1.921,1.416
			c0.314,0.063,0.636,0.097,0.954,0.097c1.85,0,3.096-1.08,3.148-1.126c0.179-0.157,0.221-0.42,0.102-0.626
			C10.812,14.042,10.563,13.95,10.339,14.024z"/>
		<circle style="fill:#030104;" cx="9.5" cy="2.5" r="2.5"/>
	</g>
</g>
<g>
</g>
<g>
</g>
<g>
</g>
<g>
</g>
<g>
</g>
<g>
</g>
<g>
</g>
<g>
</g>
<g>
</g>
<g>
</g>
<g>
</g>
<g>
</g>
<g>
</g>
<g>
</g>
<g>
</g>
</svg>
