<?xml version="1.0" encoding="iso-8859-1"?>
<!-- Generator: Adobe Illustrator 18.1.1, SVG Export Plug-In . SVG Version: 6.00 Build 0)  -->
<svg version="1.1" id="Capa_1" xmlns="http://www.w3.org/2000/svg"  x="0px" y="0px"
	 viewBox="0 0 18.997 18.997" style="enable-background:new 0 0 18.997 18.997;" xml:space="preserve">
<g>
	<path style="fill:#030104;" d="M12.232,14.013l0.554-1.104c0.808-1.61,0.897-3.228,0.253-4.552
		c-0.122-0.252-0.277-0.479-0.443-0.693C14.007,7.045,14.998,5.638,14.998,4c0-2.206-1.794-4-4-4s-4,1.794-4,4
		c0,0.783,0.234,1.508,0.624,2.126c-1.696,0.33-2.806,1.248-2.947,1.375C3.959,8.132,3.79,9.181,4.27,10.005
		c0.324,0.559,0.886,0.909,1.494,0.98L5.21,12.089c-0.808,1.61-0.897,3.228-0.254,4.552c0.565,1.164,1.621,1.955,2.972,2.229
		c0.413,0.084,0.836,0.127,1.254,0.127c2.368,0,3.965-1.347,4.14-1.501c0.716-0.63,0.887-1.678,0.407-2.503
		C13.404,14.437,12.842,14.084,12.232,14.013z M10.998,2c1.104,0,2,0.896,2,2s-0.896,2-2,2c-1.105,0-2-0.896-2-2S9.893,2,10.998,2z
		 M9.182,16.999c-0.271,0-0.559-0.025-0.854-0.087C6.686,16.578,6,14.979,7,12.985l1-1.995c0.5-0.996,0.47-1.63-0.108-2.035
		C7.711,8.83,7.461,8.786,7.203,8.786C6.626,8.786,6.002,9,6.002,9s1.133-1.001,2.812-1.001c0.271,0,0.56,0.025,0.856,0.087
		c1.64,0.334,2.328,1.933,1.328,3.927l-1,1.993c-0.5,0.998-0.472,1.632,0.106,2.035c0.181,0.126,0.433,0.169,0.692,0.169
		c0.577,0,1.2-0.212,1.2-0.212S10.863,16.999,9.182,16.999z"/>
</g>
<g>
</g>
<g>
</g>
<g>
</g>
<g>
</g>
<g>
</g>
<g>
</g>
<g>
</g>
<g>
</g>
<g>
</g>
<g>
</g>
<g>
</g>
<g>
</g>
<g>
</g>
<g>
</g>
<g>
</g>
</svg>
