<?xml version="1.0" encoding="iso-8859-1"?>
<!-- Generator: Adobe Illustrator 18.1.1, SVG Export Plug-In . SVG Version: 6.00 Build 0)  -->
<svg version="1.1" id="Capa_1" xmlns="http://www.w3.org/2000/svg"  x="0px" y="0px"
	 viewBox="0 0 19.658 19.658" style="enable-background:new 0 0 19.658 19.658;" xml:space="preserve">
<g>
	<path style="fill:#030104;" d="M19,12.971l-5.912-9.854c-0.776-1.293-1.963-2.033-3.259-2.033S7.346,1.824,6.57,3.115l-5.912,9.856
		c-0.786,1.309-0.872,2.705-0.235,3.83c0.636,1.126,1.878,1.772,3.406,1.772h12c1.528,0,2.77-0.646,3.406-1.771
		C19.872,15.677,19.786,14.281,19,12.971z M9.829,6.022c0.854,0.002,1.549,0.698,1.551,1.55c0,0.853-0.695,1.549-1.55,1.551
		c-0.854-0.002-1.55-0.698-1.552-1.55C8.278,6.718,8.974,6.022,9.829,6.022z M11.519,14.483c-0.032,0.037-0.795,0.918-2.068,0.918
		c-0.051,0-0.103-0.001-0.154-0.004c-0.508-0.03-0.928-0.255-1.185-0.634c-0.315-0.465-0.358-1.113-0.121-1.825l0.406-1.221
		c0.225-0.683,0.01-0.792-0.106-0.85c-0.031-0.016-0.08-0.025-0.14-0.025c-0.251,0-0.597,0.148-0.708,0.206
		c-0.104,0.054-0.235,0.026-0.311-0.067c-0.073-0.095-0.071-0.227,0.007-0.318c0.033-0.039,0.867-0.995,2.223-0.914
		c0.505,0.029,0.925,0.253,1.182,0.631c0.316,0.465,0.36,1.114,0.124,1.828l-0.406,1.221c-0.227,0.682-0.01,0.792,0.106,0.85
		c0.02,0.01,0.062,0.023,0.137,0.023c0.254,0,0.6-0.148,0.712-0.205c0.106-0.056,0.235-0.026,0.31,0.068
		C11.599,14.26,11.597,14.392,11.519,14.483z"/>
</g>
<g>
</g>
<g>
</g>
<g>
</g>
<g>
</g>
<g>
</g>
<g>
</g>
<g>
</g>
<g>
</g>
<g>
</g>
<g>
</g>
<g>
</g>
<g>
</g>
<g>
</g>
<g>
</g>
<g>
</g>
</svg>
