<?xml version="1.0" encoding="iso-8859-1"?>
<!-- Generator: Adobe Illustrator 18.1.1, SVG Export Plug-In . SVG Version: 6.00 Build 0)  -->
<svg version="1.1" id="Capa_1" xmlns="http://www.w3.org/2000/svg" xmlns:xlink="http://www.w3.org/1999/xlink" x="0px" y="0px"
	 viewBox="0 0 19.657 19.657" style="enable-background:new 0 0 19.657 19.657;" xml:space="preserve">
<g>
	<g>
		<path style="fill:#030104;" d="M9.829,3.084c0.561,0,1.119,0.354,1.544,1.062L17.285,14c0.851,1.415,0.194,2.573-1.456,2.573h-12
			c-1.65,0-2.307-1.159-1.456-2.573l5.912-9.854C8.71,3.438,9.268,3.084,9.829,3.084 M9.829,1.084c-1.296,0-2.482,0.74-3.259,2.031
			l-5.912,9.856c-0.786,1.309-0.872,2.705-0.235,3.83s1.879,1.772,3.406,1.772h12c1.527,0,2.77-0.646,3.406-1.771
			s0.551-2.521-0.235-3.83l-5.912-9.854C12.311,1.824,11.125,1.084,9.829,1.084z"/>
	</g>
	<g>
		<path style="fill:#030104;" d="M11.329,14.321c0,0-0.711,0.361-1.075,0.182c-0.362-0.184-0.434-0.541-0.229-1.152l0.406-1.221
			c0.403-1.221-0.121-2.076-1.082-2.131c-1.258-0.07-2.02,0.826-2.02,0.826s0.71-0.365,1.075-0.182
			c0.362,0.184,0.432,0.541,0.229,1.152l-0.406,1.221c-0.405,1.221,0.119,2.074,1.082,2.131
			C10.567,15.218,11.329,14.321,11.329,14.321z"/>
	</g>
	<g>
		<circle style="fill:#030104;" cx="9.829" cy="7.573" r="1.301"/>
	</g>
</g>
<g>
</g>
<g>
</g>
<g>
</g>
<g>
</g>
<g>
</g>
<g>
</g>
<g>
</g>
<g>
</g>
<g>
</g>
<g>
</g>
<g>
</g>
<g>
</g>
<g>
</g>
<g>
</g>
<g>
</g>
</svg>
