<?xml version="1.0" encoding="iso-8859-1"?>
<!-- Generator: Adobe Illustrator 18.1.1, SVG Export Plug-In . SVG Version: 6.00 Build 0)  -->
<svg version="1.1" id="Capa_1" xmlns="http://www.w3.org/2000/svg"  x="0px" y="0px"
	 viewBox="0 0 20 20" style="enable-background:new 0 0 20 20;" xml:space="preserve">
<g>
	<g>
		<path style="fill:#030104;" d="M14.5,2C16.43,2,18,3.57,18,5.5S16.43,9,14.5,9H13v2h1.5c1.93,0,3.5,1.57,3.5,3.5S16.43,18,14.5,18
			S11,16.43,11,14.5V13H9v1.5C9,16.43,7.43,18,5.5,18S2,16.43,2,14.5S3.57,11,5.5,11H7V9H5.5C3.57,9,2,7.43,2,5.5S3.57,2,5.5,2
			S9,3.57,9,5.5V7h2V5.5C11,3.57,12.57,2,14.5,2 M13,7h1.5C15.327,7,16,6.326,16,5.5C16,4.672,15.327,4,14.5,4S13,4.672,13,5.5V7
			 M5.5,7H7V5.5C7,4.672,6.327,4,5.5,4S4,4.672,4,5.5C4,6.326,4.673,7,5.5,7 M14.5,16c0.827,0,1.5-0.674,1.5-1.5
			c0-0.828-0.673-1.5-1.5-1.5H13v1.5C13,15.326,13.673,16,14.5,16 M5.5,16C6.327,16,7,15.326,7,14.5V13H5.5
			C4.673,13,4,13.672,4,14.5C4,15.326,4.673,16,5.5,16 M14.5,0c-1.857,0-3.504,0.926-4.5,2.341C9.004,0.926,7.357,0,5.5,0
			C2.467,0,0,2.468,0,5.5C0,7.357,0.926,9.004,2.341,10C0.926,10.996,0,12.643,0,14.5C0,17.532,2.467,20,5.5,20
			c1.857,0,3.504-0.926,4.5-2.341C10.996,19.074,12.643,20,14.5,20c3.033,0,5.5-2.468,5.5-5.5c0-1.857-0.926-3.504-2.341-4.5
			C19.074,9.004,20,7.357,20,5.5C20,2.468,17.533,0,14.5,0z"/>
	</g>
	<g>
		<polygon style="fill:#030104;" points="11,9 9,9 9,11 11,11 		"/>
	</g>
</g>
<g>
</g>
<g>
</g>
<g>
</g>
<g>
</g>
<g>
</g>
<g>
</g>
<g>
</g>
<g>
</g>
<g>
</g>
<g>
</g>
<g>
</g>
<g>
</g>
<g>
</g>
<g>
</g>
<g>
</g>
</svg>
