<?xml version="1.0" encoding="iso-8859-1"?>
<!-- Generator: Adobe Illustrator 18.1.1, SVG Export Plug-In . SVG Version: 6.00 Build 0)  -->
<svg version="1.1" id="Capa_1" xmlns="http://www.w3.org/2000/svg" xmlns:xlink="http://www.w3.org/1999/xlink" x="0px" y="0px"
	 viewBox="0 0 18 18" style="enable-background:new 0 0 18 18;" xml:space="preserve">
<g>
	<g id="Layer_1_57_">
		<g>
			<path style="fill:#030104;" d="M8.844,4.5C6.363,4.5,4.406,6.519,4.406,9s2.05,4.5,4.531,4.5c0.908,0,1.799-0.27,2.547-0.778
				c0.228-0.155,0.295-0.466,0.139-0.694c-0.155-0.229-0.462-0.287-0.691-0.132c-0.58,0.396-1.258,0.604-1.965,0.604
				c-1.93,0-3.499-1.57-3.499-3.5s1.446-3.5,3.376-3.5s3.375,1.57,3.375,3.5v0.25c0,0.414-0.336,0.75-0.75,0.75
				s-0.75-0.336-0.75-0.75V7.5c0-0.276-0.099-0.5-0.375-0.5c-0.205,0-0.318,0.124-0.396,0.301C9.645,7.113,9.32,7,8.938,7
				C7.834,7,6.954,7.896,6.954,9s0.904,2,2.008,2c0.562,0,1.073-0.235,1.438-0.609C10.719,10.76,11.064,11,11.592,11
				c0.965,0,1.627-0.785,1.627-1.75V9C13.219,6.519,11.325,4.5,8.844,4.5z M8.969,10c-0.551,0-1-0.449-1-1s0.449-1,1-1s1,0.449,1,1
				S9.52,10,8.969,10z"/>
		</g>
		<g>
			<path style="fill:#030104;" d="M9,18c-4.963,0-9-4.037-9-9s4.037-9,9-9s9,4.037,9,9S13.963,18,9,18z M9,2C5.141,2,2,5.141,2,9
				s3.141,7,7,7s7-3.141,7-7S12.859,2,9,2z"/>
		</g>
	</g>
</g>
<g>
</g>
<g>
</g>
<g>
</g>
<g>
</g>
<g>
</g>
<g>
</g>
<g>
</g>
<g>
</g>
<g>
</g>
<g>
</g>
<g>
</g>
<g>
</g>
<g>
</g>
<g>
</g>
<g>
</g>
</svg>
