<?xml version="1.0" encoding="iso-8859-1"?>
<!-- Generator: Adobe Illustrator 18.1.1, SVG Export Plug-In . SVG Version: 6.00 Build 0)  -->
<svg version="1.1" id="Capa_1" xmlns="http://www.w3.org/2000/svg" xmlns:xlink="http://www.w3.org/1999/xlink" x="0px" y="0px"
	 viewBox="0 0 14 14" style="enable-background:new 0 0 14 14;" xml:space="preserve">
<g>
	<g>
		<path style="fill:#030104;" d="M3.75,5c0,0.732,0.166,1.424,0.449,2.051L0.25,11c0,0,0,0.672,0,1.5s0.896,1.5,2,1.5h2v-2h2v-2
			c0,0,2.329,0,2.5,0c2.762,0,5-2.238,5-5s-2.238-5-5-5S3.75,2.238,3.75,5z M8.75,7c-1.104,0-2-0.896-2-2
			c0-1.105,0.896-2.002,2-2.002c1.105,0,2,0.896,2,2.002C10.75,6.104,9.855,7,8.75,7z"/>
	</g>
</g>
<g>
</g>
<g>
</g>
<g>
</g>
<g>
</g>
<g>
</g>
<g>
</g>
<g>
</g>
<g>
</g>
<g>
</g>
<g>
</g>
<g>
</g>
<g>
</g>
<g>
</g>
<g>
</g>
<g>
</g>
</svg>
