<?xml version="1.0" encoding="iso-8859-1"?>
<!-- Generator: Adobe Illustrator 18.1.1, SVG Export Plug-In . SVG Version: 6.00 Build 0)  -->
<svg version="1.1" id="Capa_1" xmlns="http://www.w3.org/2000/svg" xmlns:xlink="http://www.w3.org/1999/xlink" x="0px" y="0px"
	 viewBox="0 0 16 16" style="enable-background:new 0 0 16 16;" xml:space="preserve">
<g>
	<g>
		<path style="fill:#030104;" d="M6.25,16h-6v-4.414l3.783-3.783C3.846,7.216,3.75,6.611,3.75,6c0-3.309,2.691-6,6-6s6,2.691,6,6
			s-2.691,6-6,6h-1.5v2h-2V16z M2.25,14h2v-2h2v-2h3.5c2.206,0,4-1.794,4-4s-1.794-4-4-4s-4,1.794-4,4
			c0,0.559,0.121,1.109,0.359,1.639L6.394,8.27L2.25,12.414V14z"/>
	</g>
	<g>
		<path style="fill:#030104;" d="M9.75,4.998c0.551,0,1,0.449,1,1.002c0,0.552-0.449,1-1,1s-1-0.448-1-1
			C8.75,5.447,9.199,4.998,9.75,4.998 M9.75,3.998c-1.104,0-2,0.896-2,2.002c0,1.104,0.896,2,2,2c1.105,0,2-0.896,2-2
			C11.75,4.895,10.855,3.998,9.75,3.998z"/>
	</g>
</g>
<g>
</g>
<g>
</g>
<g>
</g>
<g>
</g>
<g>
</g>
<g>
</g>
<g>
</g>
<g>
</g>
<g>
</g>
<g>
</g>
<g>
</g>
<g>
</g>
<g>
</g>
<g>
</g>
<g>
</g>
</svg>
