<?xml version="1.0" encoding="iso-8859-1"?>
<!-- Generator: Adobe Illustrator 18.1.1, SVG Export Plug-In . SVG Version: 6.00 Build 0)  -->
<svg version="1.1" id="Capa_1" xmlns="http://www.w3.org/2000/svg" xmlns:xlink="http://www.w3.org/1999/xlink" x="0px" y="0px"
	 viewBox="0 0 15 15" style="enable-background:new 0 0 15 15;" xml:space="preserve">
<g>
	<g>
		<path style="fill:#030104;" d="M11.442,11.682c2.374,0,3.558-0.791,3.558-2.373c0-1.304-0.749-2.132-2.254-2.49l-1.119-0.235
			c-0.637-0.159-0.951-0.495-0.951-1.009c0-0.594,0.396-0.889,1.186-0.889c0.869,0,1.323,0.334,1.363,1.006l1.717-0.178
			c-0.114-1.463-1.109-2.195-2.962-2.195c-2.019,0-3.026,0.832-3.026,2.495c0,1.182,0.654,1.935,1.958,2.251L12.1,8.301
			c0.79,0.196,1.186,0.555,1.186,1.068c0,0.631-0.614,0.949-1.842,0.949c-1.498,0-2.489-0.732-2.962-2.195L7.885,6.402
			C7.531,5.257,7.089,4.455,6.551,4.001c-0.53-0.45-1.367-0.683-2.519-0.683c-1.069,0-2.007,0.396-2.815,1.188
			C0.406,5.297,0,6.344,0,7.648c0,1.223,0.383,2.203,1.156,2.935c0.774,0.733,1.688,1.099,2.756,1.099
			c1.069,0,1.918-0.256,2.55-0.77l-0.53-1.485c-0.554,0.556-1.211,0.833-1.96,0.833c-0.63,0-1.175-0.248-1.628-0.744
			C1.889,9.024,1.658,8.379,1.658,7.589c0-0.989,0.247-1.708,0.743-2.163C2.898,4.971,3.457,4.745,4.09,4.745
			c0.674,0,1.155,0.177,1.457,0.53c0.296,0.357,0.56,0.912,0.797,1.662l0.537,1.721C7.513,10.672,9.035,11.682,11.442,11.682"/>
	</g>
</g>
<g>
</g>
<g>
</g>
<g>
</g>
<g>
</g>
<g>
</g>
<g>
</g>
<g>
</g>
<g>
</g>
<g>
</g>
<g>
</g>
<g>
</g>
<g>
</g>
<g>
</g>
<g>
</g>
<g>
</g>
</svg>
