<?xml version="1.0" encoding="iso-8859-1"?>
<!-- Generator: Adobe Illustrator 18.1.1, SVG Export Plug-In . SVG Version: 6.00 Build 0)  -->
<svg version="1.1" id="Capa_1" xmlns="http://www.w3.org/2000/svg"  x="0px" y="0px"
	 viewBox="0 0 19.314 19.314" style="enable-background:new 0 0 19.314 19.314;" xml:space="preserve">
<g>
	<g>
		<path style="fill:#030104;" d="M9.242,17.643c-0.801,0-1.555-0.312-2.121-0.879L0,9.643l7.121-7.121
			c1.133-1.134,3.109-1.134,4.242,0c0.566,0.564,0.879,1.317,0.879,2.119c0,0.746-0.27,1.451-0.764,2.002h4.836c1.654,0,3,1.346,3,3
			s-1.346,3-3,3h-4.836c0.493,0.549,0.764,1.252,0.764,1.998c0.002,0.802-0.312,1.557-0.879,2.124
			C10.796,17.331,10.043,17.643,9.242,17.643z M2.828,9.643l5.707,5.707c0.379,0.378,1.035,0.378,1.414,0
			c0.189-0.189,0.293-0.441,0.293-0.708s-0.104-0.517-0.291-0.705l-3.295-3.294h9.658c0.552,0,1-0.449,1-1s-0.448-1-1-1H6.656
			L9.949,5.35c0.189-0.189,0.293-0.441,0.293-0.708S10.138,4.125,9.95,3.937c-0.381-0.38-1.036-0.379-1.415-0.001L2.828,9.643z"/>
	</g>
</g>
<g>
</g>
<g>
</g>
<g>
</g>
<g>
</g>
<g>
</g>
<g>
</g>
<g>
</g>
<g>
</g>
<g>
</g>
<g>
</g>
<g>
</g>
<g>
</g>
<g>
</g>
<g>
</g>
<g>
</g>
</svg>
