<?xml version="1.0" encoding="iso-8859-1"?>
<!-- Generator: Adobe Illustrator 18.1.1, SVG Export Plug-In . SVG Version: 6.00 Build 0)  -->
<svg version="1.1" id="Capa_1" xmlns="http://www.w3.org/2000/svg"  x="0px" y="0px"
	 viewBox="0 0 21 21" style="enable-background:new 0 0 21 21;" xml:space="preserve">
<g>
	<g id="Layer_1_74_">
		<g>
			<path style="fill:#030104;" d="M10.5,4.5C10.224,4.5,10,4.724,10,5s0.224,0.5,0.5,0.5c1.083,0,1.964,0.881,1.964,1.964
				c0,0.276,0.224,0.5,0.5,0.5s0.5-0.224,0.5-0.5C13.464,5.83,12.134,4.5,10.5,4.5z"/>
			<path style="fill:#030104;" d="M10.5,0C6.364,0,3,3.364,3,7.5c0,1.486,0.44,2.922,1.274,4.165
				c0.023,0.047,0.049,0.092,0.08,0.135C6.179,14.406,6.5,15.23,6.5,16v3c0,0.552,0.448,1,1,1h2c0,0.26,0.11,0.52,0.29,0.71
				C9.98,20.89,10.24,21,10.5,21s0.52-0.11,0.71-0.29c0.18-0.19,0.29-0.45,0.29-0.71h2c0.552,0,1-0.448,1-1v-3
				c0-0.782,0.319-1.61,2.132-4.199C17.527,10.526,18,9.039,18,7.5C18,3.364,14.636,0,10.5,0z M12.5,18h-4v-1h4V18z M14.995,10.653
				c-1.466,2.093-2.143,3.289-2.385,4.347H11.5v-2c0-0.552-0.448-1-1-1s-1,0.448-1,1v2H8.387c-0.24-1.03-0.898-2.2-2.306-4.22
				c-0.022-0.044-0.048-0.087-0.077-0.129C5.347,9.717,5,8.627,5,7.5C5,4.467,7.467,2,10.5,2S16,4.467,16,7.5
				C16,8.626,15.653,9.716,14.995,10.653z"/>
		</g>
	</g>
</g>
<g>
</g>
<g>
</g>
<g>
</g>
<g>
</g>
<g>
</g>
<g>
</g>
<g>
</g>
<g>
</g>
<g>
</g>
<g>
</g>
<g>
</g>
<g>
</g>
<g>
</g>
<g>
</g>
<g>
</g>
</svg>
