<?xml version="1.0" encoding="iso-8859-1"?>
<!-- Generator: Adobe Illustrator 18.1.1, SVG Export Plug-In . SVG Version: 6.00 Build 0)  -->
<svg version="1.1" id="Capa_1" xmlns="http://www.w3.org/2000/svg"  x="0px" y="0px"
	 viewBox="0 0 20.002 20.002" style="enable-background:new 0 0 20.002 20.002;" xml:space="preserve">
<g>
	<g>
		<path style="fill:#030104;" d="M12.502,2h0.005 M12.502,2l-2.5,6l5,2.898L7.502,18l2.5-6l-5-2.9L12.502,2 M12.502,0
			c-0.562,0.012-1.029,0.219-1.379,0.551L3.626,7.646c-0.458,0.435-0.685,1.059-0.61,1.686c0.072,0.626,0.437,1.182,0.982,1.498
			l3.482,2.021l-1.826,4.381c-0.362,0.871-0.066,1.879,0.712,2.416c0.344,0.236,0.739,0.354,1.135,0.354
			c0.498,0,0.993-0.186,1.375-0.548l7.5-7.103c0.458-0.434,0.685-1.058,0.61-1.685c-0.073-0.627-0.438-1.183-0.982-1.498
			L12.522,7.15l1.789-4.293c0.123-0.26,0.192-0.551,0.192-0.857C14.503,0.898,13.613,0.004,12.502,0z"/>
	</g>
</g>
<g>
</g>
<g>
</g>
<g>
</g>
<g>
</g>
<g>
</g>
<g>
</g>
<g>
</g>
<g>
</g>
<g>
</g>
<g>
</g>
<g>
</g>
<g>
</g>
<g>
</g>
<g>
</g>
<g>
</g>
</svg>
