<?xml version="1.0" encoding="iso-8859-1"?>
<!-- Generator: Adobe Illustrator 18.1.1, SVG Export Plug-In . SVG Version: 6.00 Build 0)  -->
<svg version="1.1" id="Capa_1" xmlns="http://www.w3.org/2000/svg"  x="0px" y="0px"
	 viewBox="0 0 18 18" style="enable-background:new 0 0 18 18;" xml:space="preserve">
<g>
	<g id="Layer_1_106_">
		<g>
			<path style="fill:#030104;" d="M7.033,12.3h-1.6V7.101h1.6V12.3z M6.233,6.434c-0.577,0-0.866-0.267-0.866-0.8
				c0-0.223,0.082-0.412,0.25-0.567c0.166-0.155,0.371-0.233,0.616-0.233c0.577,0,0.866,0.268,0.866,0.801S6.811,6.434,6.233,6.434z
				 M12.967,12.3h-1.633V9.4c0-0.755-0.268-1.133-0.801-1.133c-0.422,0-0.699,0.211-0.834,0.633C9.656,8.967,9.633,9.101,9.633,9.3
				v3H8V8.767c0-0.8-0.012-1.355-0.033-1.666h1.4l0.1,0.699c0.367-0.556,0.9-0.833,1.633-0.833c0.557,0,1.006,0.194,1.35,0.583
				c0.346,0.389,0.518,0.95,0.518,1.684V12.3H12.967z"/>
		</g>
		<g>
			<path style="fill:#030104;" d="M9,18c-4.963,0-9-4.037-9-9s4.037-9,9-9s9,4.037,9,9S13.963,18,9,18z M9,2C5.141,2,2,5.141,2,9
				s3.141,7,7,7s7-3.141,7-7S12.859,2,9,2z"/>
		</g>
	</g>
</g>
<g>
</g>
<g>
</g>
<g>
</g>
<g>
</g>
<g>
</g>
<g>
</g>
<g>
</g>
<g>
</g>
<g>
</g>
<g>
</g>
<g>
</g>
<g>
</g>
<g>
</g>
<g>
</g>
<g>
</g>
</svg>
