<?xml version="1.0" encoding="iso-8859-1"?>
<!-- Generator: Adobe Illustrator 18.1.1, SVG Export Plug-In . SVG Version: 6.00 Build 0)  -->
<svg version="1.1" id="Capa_1" xmlns="http://www.w3.org/2000/svg" xmlns:xlink="http://www.w3.org/1999/xlink" x="0px" y="0px"
	 viewBox="0 0 18.999 18.999" style="enable-background:new 0 0 18.999 18.999;" xml:space="preserve">
<g>
	<g>
		<path style="fill:#030104;" d="M9.5,2c1.609,0,3.12,0.614,4.254,1.73C14.879,4.837,15.5,6.309,15.5,7.87s-0.62,3.03-1.745,4.139
			L9.5,16.193l-4.254-4.186C4.121,10.9,3.501,9.431,3.501,7.868s0.62-3.032,1.745-4.141C6.38,2.614,7.892,2,9.5,2 M9.5,0
			C7.453,0,5.404,0.768,3.843,2.305c-3.124,3.074-3.124,8.057,0,11.131L9.5,18.999l5.657-5.565c3.124-3.072,3.124-8.056,0-11.129
			C13.596,0.768,11.548,0,9.5,0z"/>
	</g>
	<g>
		<path style="fill:#030104;" d="M9.5,5.499c0.668,0,1.296,0.26,1.768,0.731c0.976,0.976,0.976,2.562,0,3.537
			c-0.473,0.472-1.1,0.731-1.768,0.731s-1.295-0.26-1.768-0.731c-0.976-0.976-0.976-2.562,0-3.537
			C8.205,5.759,8.833,5.499,9.5,5.499 M9.5,4.499c-0.896,0-1.792,0.342-2.475,1.024c-1.367,1.367-1.367,3.584,0,4.951
			c0.684,0.684,1.578,1.024,2.475,1.024s1.792-0.342,2.475-1.024c1.366-1.367,1.366-3.584,0-4.951
			C11.292,4.84,10.396,4.499,9.5,4.499z"/>
	</g>
</g>
<g>
</g>
<g>
</g>
<g>
</g>
<g>
</g>
<g>
</g>
<g>
</g>
<g>
</g>
<g>
</g>
<g>
</g>
<g>
</g>
<g>
</g>
<g>
</g>
<g>
</g>
<g>
</g>
<g>
</g>
</svg>
