<?xml version="1.0" encoding="iso-8859-1"?>
<!-- Generator: Adobe Illustrator 18.1.1, SVG Export Plug-In . SVG Version: 6.00 Build 0)  -->
<svg version="1.1" id="Capa_1" xmlns="http://www.w3.org/2000/svg"  x="0px" y="0px"
	 viewBox="0 0 23 23" style="enable-background:new 0 0 23 23;" xml:space="preserve">
<g>
	<g id="Layer_1_101_">
		<g>
			<g>
				<path style="fill:#030104;" d="M17.994,6.187C17.998,6.125,18,6.062,18,6c0-0.801-0.312-1.555-0.879-2.121
					C16.555,3.312,15.801,3,15,3s-1.555,0.312-2.121,0.879L9.996,6.762C9.465,6.288,8.766,6,8,6H7c-3.859,0-7,3.14-7,7s3.141,7,7,7
					h9c3.859,0,7-3.14,7-7C23,9.694,20.86,6.916,17.994,6.187z M16,18H7c-2.757,0-5-2.243-5-5s2.243-5,5-5h1c0.553,0,1,0.448,1,1
					s-0.447,1-1,1H7c-1.654,0-3,1.346-3,3s1.346,3,3,3h9c1.654,0,3-1.346,3-3s-1.121-3-2.5-3h-2.086l1.293,1.293
					c0.391,0.391,0.391,1.023,0,1.414C15.512,12.902,15.256,13,15,13s-0.512-0.098-0.707-0.293L10.586,9l3.707-3.707
					C14.488,5.098,14.744,5,15,5c0.256,0,0.512,0.098,0.707,0.293c0.391,0.391,0.391,1.023,0,1.414L14.414,8H16.5
					c2.481,0,4.5,2.243,4.5,5S18.757,18,16,18z M16.749,11.029c0.7,0.164,1.251,1,1.251,1.971c0,1.103-0.897,2-2,2H7
					c-1.103,0-2-0.897-2-2s0.897-2,2-2h1c0.856,0,1.588-0.541,1.873-1.299c0.006,0.006,3.713,3.713,3.713,3.713
					C13.964,13.792,14.466,14,15,14s1.036-0.208,1.414-0.586S17,12.534,17,12C17,11.655,16.913,11.323,16.749,11.029z"/>
			</g>
		</g>
	</g>
</g>
<g>
</g>
<g>
</g>
<g>
</g>
<g>
</g>
<g>
</g>
<g>
</g>
<g>
</g>
<g>
</g>
<g>
</g>
<g>
</g>
<g>
</g>
<g>
</g>
<g>
</g>
<g>
</g>
<g>
</g>
</svg>
