<?xml version="1.0" encoding="iso-8859-1"?>
<!-- Generator: Adobe Illustrator 18.1.1, SVG Export Plug-In . SVG Version: 6.00 Build 0)  -->
<svg version="1.1" id="Capa_1" xmlns="http://www.w3.org/2000/svg" xmlns:xlink="http://www.w3.org/1999/xlink" x="0px" y="0px"
	 viewBox="0 0 18 18" style="enable-background:new 0 0 18 18;" xml:space="preserve">
<g>
	<path style="fill:#030104;" d="M13.5,5.5h-2.086l1.293-1.293c0.391-0.391,0.391-1.023,0-1.414s-1.023-0.391-1.414,0L7.586,6.5
		l3.707,3.707C11.488,10.402,11.744,10.5,12,10.5s0.512-0.098,0.707-0.293c0.391-0.391,0.391-1.023,0-1.414L11.414,7.5H13.5
		c1.379,0,2.5,1.346,2.5,3s-1.346,3-3,3H5c-1.654,0-3-1.346-3-3s1.346-3,3-3l0,0c0.553,0,1-0.448,1-1s-0.447-1-1-1l0,0
		c-2.757,0-5,2.243-5,5s2.243,5,5,5h8c2.757,0,5-2.243,5-5S15.981,5.5,13.5,5.5z"/>
</g>
<g>
</g>
<g>
</g>
<g>
</g>
<g>
</g>
<g>
</g>
<g>
</g>
<g>
</g>
<g>
</g>
<g>
</g>
<g>
</g>
<g>
</g>
<g>
</g>
<g>
</g>
<g>
</g>
<g>
</g>
</svg>
