<?xml version="1.0" encoding="iso-8859-1"?>
<!-- Generator: Adobe Illustrator 18.1.1, SVG Export Plug-In . SVG Version: 6.00 Build 0)  -->
<svg version="1.1" id="Capa_1" xmlns="http://www.w3.org/2000/svg"  x="0px" y="0px"
	 viewBox="0 0 19.002 19.002" style="enable-background:new 0 0 19.002 19.002;" xml:space="preserve">
<g>
	<path style="fill:#030104;" d="M16.565,7.602l1.179-2.387c0.074-0.149,0.068-0.327-0.015-0.471
		c-0.083-0.145-0.234-0.238-0.401-0.249l-2.656-0.172L14.5,1.667C14.489,1.5,14.396,1.35,14.251,1.266s-0.322-0.09-0.472-0.015
		l-2.385,1.18L9.917,0.216c-0.186-0.278-0.646-0.278-0.832,0L7.608,2.431l-2.385-1.18C5.072,1.176,4.896,1.182,4.751,1.266
		C4.606,1.349,4.513,1.5,4.502,1.667L4.331,4.323L1.674,4.494C1.507,4.505,1.356,4.598,1.273,4.743
		C1.189,4.888,1.184,5.065,1.258,5.215l1.179,2.386L0.223,9.078C0.084,9.171,0,9.327,0,9.494S0.083,9.817,0.223,9.91l2.215,1.477
		l-1.18,2.386c-0.074,0.15-0.068,0.327,0.015,0.472c0.083,0.144,0.234,0.238,0.401,0.248l2.656,0.171l0.171,2.657
		c0.011,0.167,0.104,0.317,0.249,0.401c0.144,0.083,0.32,0.088,0.472,0.015l2.386-1.179l1.477,2.214
		c0.093,0.139,0.249,0.223,0.416,0.223s0.323-0.083,0.416-0.223l1.477-2.214l2.386,1.179c0.15,0.073,0.327,0.068,0.472-0.015
		s0.238-0.234,0.249-0.401l0.171-2.656l2.656-0.172c0.167-0.011,0.317-0.104,0.401-0.249c0.083-0.145,0.089-0.322,0.015-0.472
		l-1.179-2.385l2.214-1.478c0.139-0.093,0.223-0.249,0.223-0.416s-0.083-0.323-0.223-0.416L16.565,7.602z"/>
</g>
<g>
</g>
<g>
</g>
<g>
</g>
<g>
</g>
<g>
</g>
<g>
</g>
<g>
</g>
<g>
</g>
<g>
</g>
<g>
</g>
<g>
</g>
<g>
</g>
<g>
</g>
<g>
</g>
<g>
</g>
</svg>
