<?xml version="1.0" encoding="iso-8859-1"?>
<!-- Generator: Adobe Illustrator 18.1.1, SVG Export Plug-In . SVG Version: 6.00 Build 0)  -->
<svg version="1.1" id="Capa_1" xmlns="http://www.w3.org/2000/svg"  x="0px" y="0px"
	 viewBox="0 0 19 19" style="enable-background:new 0 0 19 19;" xml:space="preserve">
<g>
	<g id="Layer_1_73_">
		<g>
			<path style="fill:#030104;" d="M17,0h-5.243c-1.302,0-2.401,0.838-2.815,2H2v7.061c0,0.041,0.011,0.079,0.012,0.12
				C0.845,9.591,0,10.693,0,12v5v2h2h0.996H7c1.311,0,2.593-0.826,3-2h7V9.939c0-0.041-0.011-0.079-0.012-0.12
				C18.155,9.409,19,8.307,19,7V2V0H17z M15,15h-5c-0.553,0-1-0.448-1-1s0.447-1,1-1h3V9.939c0-0.552,0.447-1,1-1
				c0.553,0,1,0.448,1,1V15z M4,4h5.061c0.553,0,1,0.448,1,1s-0.447,1-1,1H6v3.061c0,0.552-0.448,1-1,1c-0.553,0-1-0.448-1-1V4z
				 M17,7c0,0.552-0.447,1-1,1s-1-0.448-1-1V5.414l-3.293,3.293C11.512,8.902,11.256,9,11,9s-0.512-0.098-0.707-0.293
				c-0.391-0.391-0.391-1.023,0-1.414L13.586,4H12c-0.553,0-1-0.448-1-1s0.447-1,1-1h5V7z M7,17H3.004C2.996,17,2,17,2,17v-5
				c0-0.552,0.447-1,1-1s1,0.448,1,1v1.586l3.293-3.293C7.488,10.098,7.744,10,8,10s0.512,0.098,0.707,0.293
				c0.391,0.391,0.391,1.023,0,1.414L5.414,15H7c0.553,0,1,0.448,1,1S7.552,17,7,17z M9.414,9.586C9.036,9.208,8.534,9,8,9
				C7.633,9,7.284,9.105,6.977,9.289C6.985,9.213,7,9.139,7,9.061V7h2.061C9.139,7,9.213,6.986,9.29,6.977C9.104,7.284,9,7.633,9,8
				c0,0.534,0.208,1.036,0.586,1.414S10.466,10,11,10c0.367,0,0.716-0.105,1.023-0.289C12.015,9.787,12,9.861,12,9.939V12h-1.939
				c-0.122,0-0.24,0.015-0.356,0.036C9.894,11.726,10,11.372,10,11C10,10.466,9.792,9.964,9.414,9.586z"/>
		</g>
	</g>
</g>
<g>
</g>
<g>
</g>
<g>
</g>
<g>
</g>
<g>
</g>
<g>
</g>
<g>
</g>
<g>
</g>
<g>
</g>
<g>
</g>
<g>
</g>
<g>
</g>
<g>
</g>
<g>
</g>
<g>
</g>
</svg>
