<?xml version="1.0" encoding="iso-8859-1"?>
<!-- Generator: Adobe Illustrator 18.1.1, SVG Export Plug-In . SVG Version: 6.00 Build 0)  -->
<svg version="1.1" id="Capa_1" xmlns="http://www.w3.org/2000/svg" xmlns:xlink="http://www.w3.org/1999/xlink" x="0px" y="0px"
	 viewBox="0 0 15 15" style="enable-background:new 0 0 15 15;" xml:space="preserve">
<g>
	<g>
		<g>
			<path style="fill:#030104;" d="M4,15c-1.654,0-3-1.346-3-3V3c0-1.654,1.346-3,3-3s3,1.346,3,3v9C7,13.654,5.654,15,4,15z M4,2
				C3.448,2,3,2.449,3,3v9c0,0.551,0.448,1,1,1s1-0.449,1-1V3C5,2.449,4.552,2,4,2z"/>
		</g>
	</g>
	<g>
		<g>
			<path style="fill:#030104;" d="M11,15c-1.654,0-3-1.346-3-3V3c0-1.654,1.346-3,3-3s3,1.346,3,3v9C14,13.654,12.654,15,11,15z
				 M11,2c-0.552,0-1,0.449-1,1v9c0,0.551,0.448,1,1,1s1-0.449,1-1V3C12,2.449,11.552,2,11,2z"/>
		</g>
	</g>
</g>
<g>
</g>
<g>
</g>
<g>
</g>
<g>
</g>
<g>
</g>
<g>
</g>
<g>
</g>
<g>
</g>
<g>
</g>
<g>
</g>
<g>
</g>
<g>
</g>
<g>
</g>
<g>
</g>
<g>
</g>
</svg>
