<?xml version="1.0" encoding="iso-8859-1"?>
<!-- Generator: Adobe Illustrator 18.1.1, SVG Export Plug-In . SVG Version: 6.00 Build 0)  -->
<svg version="1.1" id="Capa_1" xmlns="http://www.w3.org/2000/svg"  x="0px" y="0px"
	 viewBox="0 0 20 20" style="enable-background:new 0 0 20 20;" xml:space="preserve">
<g>
	<g>
		<g>
			<path style="fill:#030104;" d="M17,16c0.55,0,1,0.45,1,1s-0.45,1-1,1h-7c-0.55,0-1-0.45-1-1s0.45-1,1-1H17 M17,14h-7
				c-1.654,0-3,1.346-3,3s1.346,3,3,3h7c1.654,0,3-1.346,3-3S18.654,14,17,14z"/>
		</g>
	</g>
	<g>
		<g>
			<path style="fill:#030104;" d="M17,9c0.55,0,1,0.45,1,1s-0.45,1-1,1h-7c-0.55,0-1-0.45-1-1s0.45-1,1-1H17 M17,7h-7
				c-1.654,0-3,1.346-3,3s1.346,3,3,3h7c1.654,0,3-1.346,3-3S18.654,7,17,7z"/>
		</g>
	</g>
	<g>
		<g>
			<path style="fill:#030104;" d="M17,2c0.55,0,1,0.45,1,1s-0.45,1-1,1h-7C9.45,4,9,3.55,9,3s0.45-1,1-1H17 M17,0h-7
				C8.346,0,7,1.346,7,3s1.346,3,3,3h7c1.654,0,3-1.346,3-3S18.654,0,17,0z"/>
		</g>
	</g>
	<path style="fill:#030104;" d="M4,14H2c-1.104,0-2,0.896-2,2v2c0,1.104,0.896,2,2,2h2c1.104,0,2-0.896,2-2v-2
		C6,14.896,5.104,14,4,14z M4,18H2v-2h2V18z"/>
	<path style="fill:#030104;" d="M4,7H2C0.896,7,0,7.896,0,9v2c0,1.104,0.896,2,2,2h2c1.104,0,2-0.896,2-2V9C6,7.896,5.104,7,4,7z
		 M4,11H2V9h2V11z"/>
	<path style="fill:#030104;" d="M4,0H2C0.896,0,0,0.896,0,2v2c0,1.104,0.896,2,2,2h2c1.104,0,2-0.896,2-2V2C6,0.896,5.104,0,4,0z
		 M4,4H2V2h2V4z"/>
</g>
<g>
</g>
<g>
</g>
<g>
</g>
<g>
</g>
<g>
</g>
<g>
</g>
<g>
</g>
<g>
</g>
<g>
</g>
<g>
</g>
<g>
</g>
<g>
</g>
<g>
</g>
<g>
</g>
<g>
</g>
</svg>
