<?xml version="1.0" encoding="iso-8859-1"?>
<!-- Generator: Adobe Illustrator 18.1.1, SVG Export Plug-In . SVG Version: 6.00 Build 0)  -->
<svg version="1.1" id="Capa_1" xmlns="http://www.w3.org/2000/svg"  x="0px" y="0px"
	 viewBox="0 0 20 20" style="enable-background:new 0 0 20 20;" xml:space="preserve">
<g>
	<g id="Layer_1_94_">
		<g>
			<path style="fill:#030104;" d="M10.5,13.071V7.5C10.5,7.225,10.275,7,10,7S9.5,7.225,9.5,7.5v5.571C8.64,13.295,8,14.071,8,15
				c0,1.103,0.896,2,2,2s2-0.897,2-2C12,14.071,11.36,13.295,10.5,13.071z"/>
			<path style="fill:#030104;" d="M13.5,11.459V3.5C13.5,1.57,11.93,0,10,0S6.5,1.57,6.5,3.5v7.959C5.578,12.361,5,13.61,5,15
				c0,2.757,2.243,5,5,5s5-2.243,5-5C15,13.61,14.422,12.361,13.5,11.459z M10,18c-1.654,0-3-1.346-3-3
				c0-1.105,0.607-2.062,1.5-2.583V3.5C8.5,2.673,9.173,2,10,2s1.5,0.673,1.5,1.5v8.917C12.393,12.938,13,13.895,13,15
				C13,16.654,11.654,18,10,18z"/>
		</g>
	</g>
</g>
<g>
</g>
<g>
</g>
<g>
</g>
<g>
</g>
<g>
</g>
<g>
</g>
<g>
</g>
<g>
</g>
<g>
</g>
<g>
</g>
<g>
</g>
<g>
</g>
<g>
</g>
<g>
</g>
<g>
</g>
</svg>
