<?xml version="1.0" encoding="iso-8859-1"?>
<!-- Generator: Adobe Illustrator 18.1.1, SVG Export Plug-In . SVG Version: 6.00 Build 0)  -->
<svg version="1.1" id="Capa_1" xmlns="http://www.w3.org/2000/svg"  x="0px" y="0px"
	 viewBox="0 0 17.133 17.133" style="enable-background:new 0 0 17.133 17.133;" xml:space="preserve">
<g>
	<g id="Layer_1_43_">
		<path style="fill:#030104;" d="M15.89,0.5C15.522,0.176,15.05,0,14.566,0c-0.082,0-0.165,0.005-0.248,0.016l-9,1.25
			C4.318,1.391,3.566,2.241,3.566,3.25v6.111c-1.746,0.551-3,2.034-3,3.772c0,2.205,2.019,4,4.5,4c1.695,0,3.169-0.842,3.937-2.078
			c0.803,0.667,1.879,1.078,3.063,1.078c2.481,0,4.5-1.795,4.5-4V2C16.566,1.426,16.32,0.881,15.89,0.5z M8.566,12.133V7.877l3-0.45
			v1.737C9.873,9.372,8.566,10.624,8.566,12.133z M14.566,12.133c0,1.104-1.119,2-2.5,2s-2.5-0.896-2.5-2s1.119-2,2.5-2
			c0.172,0,0.338,0.014,0.5,0.041V6.266l-5,0.75v6.117c0,1.104-1.119,2-2.5,2s-2.5-0.896-2.5-2s1.119-2,2.5-2
			c0.172,0,0.338,0.014,0.5,0.041V3.25l9-1.25V12.133z"/>
	</g>
</g>
<g>
</g>
<g>
</g>
<g>
</g>
<g>
</g>
<g>
</g>
<g>
</g>
<g>
</g>
<g>
</g>
<g>
</g>
<g>
</g>
<g>
</g>
<g>
</g>
<g>
</g>
<g>
</g>
<g>
</g>
</svg>
