<?xml version="1.0" encoding="iso-8859-1"?>
<!-- Generator: Adobe Illustrator 18.1.1, SVG Export Plug-In . SVG Version: 6.00 Build 0)  -->
<svg version="1.1" id="Capa_1" xmlns="http://www.w3.org/2000/svg" xmlns:xlink="http://www.w3.org/1999/xlink" x="0px" y="0px"
	 viewBox="0 0 18 18" style="enable-background:new 0 0 18 18;" xml:space="preserve">
<g>
	<path style="fill:#030104;" d="M16,2.5H2c-1.104,0-2,0.896-2,2v9c0,1.104,0.896,2,2,2h14c1.104,0,2-0.896,2-2v-9
		C18,3.396,17.104,2.5,16,2.5z M6.316,9.816l1.602,1.4C8.223,11.482,8.609,11.614,9,11.614s0.777-0.133,1.082-0.398l1.602-1.4
		l-0.037,0.037l3.646,3.646H2.707l3.646-3.646L6.316,9.816z M2,12.793V6.04l3.602,3.151L2,12.793z M12.398,9.191L16,6.04v6.75
		L12.398,9.191z M16,4.5v0.21l-6.576,5.754c-0.227,0.198-0.621,0.198-0.848,0L2,4.71V4.5H16z"/>
</g>
<g>
</g>
<g>
</g>
<g>
</g>
<g>
</g>
<g>
</g>
<g>
</g>
<g>
</g>
<g>
</g>
<g>
</g>
<g>
</g>
<g>
</g>
<g>
</g>
<g>
</g>
<g>
</g>
<g>
</g>
</svg>
