<?xml version="1.0" encoding="iso-8859-1"?>
<!-- Generator: Adobe Illustrator 18.1.1, SVG Export Plug-In . SVG Version: 6.00 Build 0)  -->
<svg version="1.1" id="Capa_1" xmlns="http://www.w3.org/2000/svg" xmlns:xlink="http://www.w3.org/1999/xlink" x="0px" y="0px"
	 viewBox="0 0 18 18" style="enable-background:new 0 0 18 18;" xml:space="preserve">
<g>
	<path style="fill:#030104;" d="M12,9h-2V7c0-0.553-0.447-1-1-1S8,6.447,8,7v2H6c-0.553,0-1,0.447-1,1s0.447,1,1,1h2v2
		c0,0.553,0.447,1,1,1s1-0.447,1-1v-2h2c0.553,0,1-0.447,1-1S12.553,9,12,9z"/>
	<path style="fill:#030104;" d="M16.707,4.293l-4-4C12.52,0.105,12.266,0,12,0H4C2.346,0,1,1.346,1,3v12c0,1.654,1.346,3,3,3h10
		c1.654,0,3-1.346,3-3V5C17,4.734,16.895,4.48,16.707,4.293z M14.586,5H13.5C12.673,5,12,4.327,12,3.5V2.414L14.586,5z M14,16H4
		c-0.552,0-1-0.448-1-1V3c0-0.552,0.448-1,1-1h7v1.5C11,4.879,12.121,6,13.5,6H15v9C15,15.552,14.552,16,14,16z"/>
</g>
<g>
</g>
<g>
</g>
<g>
</g>
<g>
</g>
<g>
</g>
<g>
</g>
<g>
</g>
<g>
</g>
<g>
</g>
<g>
</g>
<g>
</g>
<g>
</g>
<g>
</g>
<g>
</g>
<g>
</g>
</svg>
