<?xml version="1.0" encoding="iso-8859-1"?>
<!-- Generator: Adobe Illustrator 18.1.1, SVG Export Plug-In . SVG Version: 6.00 Build 0)  -->
<svg version="1.1" id="Capa_1" xmlns="http://www.w3.org/2000/svg" xmlns:xlink="http://www.w3.org/1999/xlink" x="0px" y="0px"
	 viewBox="0 0 18 18" style="enable-background:new 0 0 18 18;" xml:space="preserve">
<g>
	<g>
		<path style="fill:#030104;" d="M1,16.741c-0.096,0-0.191-0.015-0.286-0.042C0.29,16.573,0,16.183,0,15.741v-1
			c0-4.8,3.381-8.864,8-9.796V3.241c0-0.534,0.208-1.036,0.585-1.414c0.756-0.757,2.075-0.756,2.829-0.001l6.288,6.203
			C17.893,8.217,18,8.472,18,8.741s-0.107,0.524-0.298,0.712l-6.293,6.207c-0.746,0.746-2.067,0.751-2.823-0.005
			C8.208,15.277,8,14.775,8,14.241v-1.437c-2.495,0.201-4.523,0.985-6.164,3.484C1.646,16.576,1.331,16.741,1,16.741z M9,10.752
			c0.262,0,1-0.01,1-0.01v3.499l5.576-5.5L10,3.245v3.497c0,0-0.384-0.004-0.891,0.052c-3.416,0.378-6.125,2.864-6.892,6.08
			C4.338,11.146,6.768,10.808,9,10.752z"/>
	</g>
</g>
<g>
</g>
<g>
</g>
<g>
</g>
<g>
</g>
<g>
</g>
<g>
</g>
<g>
</g>
<g>
</g>
<g>
</g>
<g>
</g>
<g>
</g>
<g>
</g>
<g>
</g>
<g>
</g>
<g>
</g>
</svg>
