<?xml version="1.0" encoding="iso-8859-1"?>
<!-- Generator: Adobe Illustrator 18.1.1, SVG Export Plug-In . SVG Version: 6.00 Build 0)  -->
<svg version="1.1" id="Capa_1" xmlns="http://www.w3.org/2000/svg"  x="0px" y="0px"
	 viewBox="0 0 18 18" style="enable-background:new 0 0 18 18;" xml:space="preserve">
<g>
	<g id="Layer_1_112_">
		<path style="fill:#030104;" d="M17.221,7C17.719,6.448,18,5.748,18,5c0-0.801-0.312-1.555-0.879-2.121
			C16.555,2.312,15.801,2.001,15,2.001s-1.555,0.312-2.121,0.879C12.646,3.112,12.333,3.24,12,3.24s-0.646-0.129-0.879-0.362
			C9.755,1.512,7.936,0.76,6,0.76S2.245,1.512,0.879,2.878C0.312,3.445,0,4.2,0,5c0,0.748,0.281,1.448,0.779,2
			C0.281,7.552,0,8.252,0,9s0.281,1.448,0.779,2C0.281,11.552,0,12.253,0,13c0,0.801,0.312,1.555,0.879,2.121
			C1.445,15.688,2.199,16,3,16s1.555-0.312,2.121-0.879c0.234-0.233,0.545-0.362,0.878-0.362s0.646,0.129,0.88,0.363
			C8.246,16.487,10.064,17.24,12,17.24c1.937,0,3.755-0.752,5.121-2.118C17.688,14.555,18,13.802,18,13c0-0.748-0.281-1.448-0.779-2
			C17.719,10.448,18,9.748,18,9S17.719,7.552,17.221,7z M15.707,13.708C14.686,14.729,13.343,15.24,12,15.24
			c-1.342,0-2.685-0.511-3.707-1.532C7.66,13.076,6.83,12.76,6,12.76c-0.831,0-1.661,0.316-2.292,0.948C3.512,13.903,3.256,14,3,14
			s-0.512-0.098-0.707-0.293c-0.391-0.391-0.391-1.023,0-1.414c1.021-1.021,2.364-1.532,3.706-1.532
			c1.343,0,2.686,0.511,3.708,1.532c0.632,0.632,1.463,0.947,2.293,0.947c0.831,0,1.661-0.315,2.293-0.947
			c0.195-0.195,0.451-0.293,0.707-0.293s0.512,0.098,0.707,0.293C16.098,12.684,16.098,13.316,15.707,13.708z M2.293,4.293
			C3.314,3.272,4.658,2.76,6,2.76c1.343,0,2.685,0.511,3.707,1.532C10.339,4.925,11.17,5.241,12,5.241
			c0.831,0,1.661-0.315,2.293-0.947C14.488,4.097,14.744,4.001,15,4.001s0.512,0.098,0.707,0.293c0.391,0.391,0.391,1.023,0,1.414
			C14.686,6.729,13.343,7.24,12,7.24c-1.342,0-2.685-0.511-3.707-1.532C7.66,5.076,6.83,4.76,6,4.76
			c-0.831,0-1.661,0.316-2.292,0.948C3.512,5.903,3.256,6,3,6S2.488,5.903,2.293,5.708C1.902,5.316,1.902,4.684,2.293,4.293z
			 M15.707,9.708C14.686,10.729,13.343,11.24,12,11.24c-1.342,0-2.685-0.511-3.707-1.532C7.66,9.076,6.83,8.76,6,8.76
			c-0.831,0-1.661,0.316-2.292,0.948C3.512,9.903,3.256,10,3,10S2.488,9.903,2.293,9.707c-0.391-0.391-0.391-1.023,0-1.414
			c1.021-1.021,2.364-1.532,3.706-1.532c1.343,0,2.686,0.511,3.708,1.532C10.339,8.925,11.17,9.24,12,9.24
			c0.831,0,1.661-0.315,2.293-0.947C14.488,8.098,14.744,8,15,8s0.512,0.098,0.707,0.293C16.098,8.684,16.098,9.316,15.707,9.708z"
			/>
	</g>
</g>
<g>
</g>
<g>
</g>
<g>
</g>
<g>
</g>
<g>
</g>
<g>
</g>
<g>
</g>
<g>
</g>
<g>
</g>
<g>
</g>
<g>
</g>
<g>
</g>
<g>
</g>
<g>
</g>
<g>
</g>
</svg>
