<?xml version="1.0" encoding="iso-8859-1"?>
<!-- Generator: Adobe Illustrator 18.1.1, SVG Export Plug-In . SVG Version: 6.00 Build 0)  -->
<svg version="1.1" id="Capa_1" xmlns="http://www.w3.org/2000/svg"  x="0px" y="0px"
	 viewBox="0 0 18 18" style="enable-background:new 0 0 18 18;" xml:space="preserve">
<g>
	<g>
		<path style="fill:#030104;" d="M9,5c1.211,0,2.381,0.355,3.297,1.004c1.301,0.92,2.43,2.124,3.165,2.996
			c-0.735,0.872-1.864,2.077-3.166,2.996C11.381,12.645,10.211,13,9,13s-2.382-0.355-3.299-1.004C4.4,11.076,3.271,9.872,2.537,9
			C3.271,8.128,4.4,6.924,5.701,6.005C6.618,5.355,7.789,5,9,5 M9,3C7.309,3,5.758,3.516,4.547,4.371C1.928,6.223,0,9,0,9
			s1.928,2.777,4.547,4.629C5.758,14.484,7.309,15,9,15s3.242-0.516,4.451-1.371C16.07,11.777,18,9,18,9s-1.93-2.777-4.549-4.629
			C12.242,3.516,10.691,3,9,3z"/>
	</g>
	<g>
		<path style="fill:#030104;" d="M9,8C8.447,8,8,8.447,8,9c0,0.551,0.447,1,1,1c0.551,0,1-0.449,1-1C10,8.447,9.551,8,9,8z"/>
	</g>
	<g>
		<path style="fill:#030104;" d="M9,12c-1.654,0-3-1.346-3-3s1.346-3,3-3s3,1.346,3,3S10.654,12,9,12z M9,7C7.896,7,7,7.896,7,9
			s0.896,2,2,2s2-0.896,2-2S10.104,7,9,7z"/>
	</g>
</g>
<g>
</g>
<g>
</g>
<g>
</g>
<g>
</g>
<g>
</g>
<g>
</g>
<g>
</g>
<g>
</g>
<g>
</g>
<g>
</g>
<g>
</g>
<g>
</g>
<g>
</g>
<g>
</g>
<g>
</g>
</svg>
