<?xml version="1.0" encoding="iso-8859-1"?>
<!-- Generator: Adobe Illustrator 18.1.1, SVG Export Plug-In . SVG Version: 6.00 Build 0)  -->
<svg version="1.1" id="Capa_1" xmlns="http://www.w3.org/2000/svg"  x="0px" y="0px"
	 viewBox="0 0 20.5 20.5" style="enable-background:new 0 0 20.5 20.5;" xml:space="preserve">
<g>
	<g>
		<path style="fill:#030104;" d="M19.237,14.5c0-0.105-0.004-0.211-0.039-0.316l-2-6C17.062,7.775,16.681,7.5,16.25,7.5h-4v2h3.279
			l1.667,5H3.304l1.667-5H8.25v-2h-4c-0.431,0-0.812,0.275-0.948,0.684l-2,6c-0.035,0.105-0.039,0.211-0.039,0.316
			c-0.013,0-0.013,5-0.013,5c0,0.553,0.447,1,1,1h16c0.553,0,1-0.447,1-1C19.25,19.5,19.25,14.5,19.237,14.5z"/>
		<path style="fill:#030104;" d="M14.25,6.404c0.259,0,0.518-0.095,0.707-0.283c0.39-0.39,0.39-1.024,0-1.414L10.25,0L5.543,4.707
			c-0.39,0.39-0.39,1.024,0,1.414C5.732,6.31,5.991,6.404,6.25,6.404S6.768,6.31,6.957,6.121L9.25,3.828V10.5c0,0.552,0.448,1,1,1
			s1-0.448,1-1V3.828l2.293,2.293C13.732,6.31,13.991,6.404,14.25,6.404z"/>
	</g>
</g>
<g>
</g>
<g>
</g>
<g>
</g>
<g>
</g>
<g>
</g>
<g>
</g>
<g>
</g>
<g>
</g>
<g>
</g>
<g>
</g>
<g>
</g>
<g>
</g>
<g>
</g>
<g>
</g>
<g>
</g>
</svg>
