<?xml version="1.0" encoding="iso-8859-1"?>
<!-- Generator: Adobe Illustrator 18.1.1, SVG Export Plug-In . SVG Version: 6.00 Build 0)  -->
<svg version="1.1" id="Capa_1" xmlns="http://www.w3.org/2000/svg"  x="0px" y="0px"
	 viewBox="0 0 15.068 15.068" style="enable-background:new 0 0 15.068 15.068;" xml:space="preserve">
<g>
	<g>
		<path style="fill:#030104;" d="M13.898,1.17c-1.561-1.559-4.1-1.559-5.658,0L3.706,5.705c-0.473,0.473-0.733,1.1-0.733,1.77
			c0,0.668,0.261,1.295,0.732,1.768c0.487,0.486,1.128,0.73,1.769,0.73c0.64,0,1.279-0.242,1.767-0.73l2.122-2.121
			c0.391-0.395,0.586-0.904,0.586-1.414c0-0.512-0.195-1.023-0.586-1.414L5.827,7.829C5.634,8.024,5.316,8.024,5.119,7.827
			C4.992,7.7,4.973,7.552,4.973,7.475c0-0.078,0.019-0.227,0.146-0.354l4.535-4.537c0.778-0.779,2.048-0.779,2.83,0
			c0.779,0.779,0.779,2.049,0,2.828L7.947,9.949l-2.535,2.535c-0.779,0.779-2.049,0.779-2.828,0c-0.78-0.779-0.78-2.049,0-2.828
			L2.679,9.56c-0.451-0.6-0.702-1.359-0.702-2.125L1.17,8.242c-1.56,1.559-1.56,4.098,0,5.656c0.779,0.779,1.804,1.17,2.828,1.17
			s2.049-0.391,2.828-1.17l7.072-7.072C15.458,5.267,15.458,2.73,13.898,1.17z"/>
	</g>
</g>
<g>
</g>
<g>
</g>
<g>
</g>
<g>
</g>
<g>
</g>
<g>
</g>
<g>
</g>
<g>
</g>
<g>
</g>
<g>
</g>
<g>
</g>
<g>
</g>
<g>
</g>
<g>
</g>
<g>
</g>
</svg>
