<?xml version="1.0" encoding="iso-8859-1"?>
<!-- Generator: Adobe Illustrator 18.1.1, SVG Export Plug-In . SVG Version: 6.00 Build 0)  -->
<svg version="1.1" id="Capa_1" xmlns="http://www.w3.org/2000/svg"  x="0px" y="0px"
	 viewBox="0 0 21.888 21.888" style="enable-background:new 0 0 21.888 21.888;" xml:space="preserve">
<g>
	<g id="Layer_1_108_">
		<g>
			<g>
				<path style="fill:#030104;" d="M13.5,2.138l-1,3l-1-3c-0.184-0.553,0.114-1.149,0.666-1.333c0.553-0.185,1.15,0.114,1.334,0.666
					C13.575,1.697,13.57,1.929,13.5,2.138z"/>
			</g>
			<g>
				<path style="fill:#030104;" d="M18.864,5.188l-2.829,1.415l1.415-2.829c0.261-0.521,0.894-0.731,1.414-0.472
					c0.521,0.261,0.731,0.894,0.472,1.415C19.229,4.929,19.062,5.089,18.864,5.188z"/>
			</g>
			<g>
				<path style="fill:#030104;" d="M20.5,11.138l-3-1l3-1c0.553-0.185,1.149,0.114,1.334,0.667c0.184,0.552-0.115,1.148-0.668,1.333
					C20.941,11.213,20.709,11.207,20.5,11.138z"/>
			</g>
			<g>
				<path style="fill:#030104;" d="M7.55,3.774l1.415,2.829L6.136,5.188C5.615,4.927,5.404,4.294,5.664,3.774
					c0.261-0.521,0.895-0.731,1.414-0.472C7.291,3.409,7.451,3.576,7.55,3.774z"/>
			</g>
		</g>
		<path style="fill:#030104;" d="M16.776,11.48C16.915,11.056,17,10.609,17,10.138c0-2.481-2.019-4.5-4.5-4.5
			c-1.34,0-2.537,0.594-3.357,1.528C9.094,7.159,9.051,7.138,9,7.138c-1.776,0-3.369,0.78-4.469,2.011
			c-0.24-0.08-0.472-0.086-0.697-0.011c-0.553,0.185-0.852,0.781-0.668,1.333c0.057,0.167,0.158,0.299,0.277,0.411
			C3.16,11.579,3,12.34,3,13.138c0,0.042,0,0.084,0.002,0.126C1.277,13.709,0,15.277,0,17.138c0,2.206,1.795,4,4,4h11
			c2.757,0,5-2.243,5-5C20,14.009,18.656,12.199,16.776,11.48z M12.5,7.638c1.379,0,2.5,1.121,2.5,2.5
			c0,0.366-0.096,0.706-0.238,1.019c-0.354,0.021-0.72,0.074-1.118,0.188C13.123,9.992,12.04,8.93,10.677,8.44
			C11.133,7.95,11.779,7.638,12.5,7.638z M15,19.138H4c-1.104,0-2-0.897-2-2s0.896-2,1.908-2.006l1.422,0.016l-0.248-1.202
			C5.027,13.683,5,13.41,5,13.138c0-2.206,1.795-4,4-4c0.024,0,0.045-0.013,0.069-0.014c1.904,0.055,3.495,1.406,3.847,3.27
			c0.031,0.078,0.022,0.131,0.038,0.186c0.123,0.436,0.517,0.706,0.946,0.712c0.106-0.001,0.197,0.003,0.289-0.023
			c0.312-0.09,0.569-0.131,0.811-0.131c1.654,0,3,1.346,3,3S16.654,19.138,15,19.138z"/>
	</g>
</g>
<g>
</g>
<g>
</g>
<g>
</g>
<g>
</g>
<g>
</g>
<g>
</g>
<g>
</g>
<g>
</g>
<g>
</g>
<g>
</g>
<g>
</g>
<g>
</g>
<g>
</g>
<g>
</g>
<g>
</g>
</svg>
