<?xml version="1.0" encoding="iso-8859-1"?>
<!-- Generator: Adobe Illustrator 18.1.1, SVG Export Plug-In . SVG Version: 6.00 Build 0)  -->
<svg version="1.1" id="Capa_1" xmlns="http://www.w3.org/2000/svg" xmlns:xlink="http://www.w3.org/1999/xlink" x="0px" y="0px"
	 viewBox="0 0 19.037 19.037" style="enable-background:new 0 0 19.037 19.037;" xml:space="preserve">
<g>
	<path style="fill:#030104;" d="M19.037,4.537c0-1.212-0.472-2.352-1.329-3.207s-1.996-1.329-3.207-1.329
		c-1.199,0-2.327,0.463-3.18,1.304C11.294,1.33,3.354,9.269,3.354,9.269c-0.373,0.373-0.717,0.91-0.967,1.514
		c-0.195,0.473-1.979,5.863-2.336,6.939c-0.119,0.358-0.025,0.754,0.242,1.021C0.482,18.932,0.738,19.036,1,19.036
		c0.105,0,0.211-0.018,0.314-0.051c1.076-0.355,6.465-2.141,6.938-2.336c0.603-0.248,1.14-0.592,1.515-0.967l2.157-2.156
		c0.025,0.001,0.05,0.01,0.076,0.01c0.64,0,1.28-0.244,1.769-0.732l4.5-4.5c0.696-0.695,0.887-1.699,0.588-2.572
		C18.964,5.346,19.037,4.949,19.037,4.537z M7.173,14.916c-0.406,0.143-1.145,0.393-2.038,0.691l-1.704-1.704
		c0.301-0.894,0.551-1.634,0.691-2.038L7.173,14.916z M3.076,14.963l0.999,0.999c-0.493,0.164-1,0.333-1.498,0.499
		C2.743,15.963,2.912,15.455,3.076,14.963z M10.774,11.85l-2.42,2.42c-0.061,0.061-0.151,0.119-0.235,0.18l-3.53-3.529
		c0.061-0.084,0.12-0.176,0.18-0.234L11.9,3.556l2.731,2.731l-3.69,3.69C10.428,10.489,10.392,11.266,10.774,11.85z M16.854,6.891
		l-4.5,4.5c-0.098,0.099-0.226,0.146-0.354,0.146s-0.256-0.049-0.354-0.146c-0.195-0.194-0.195-0.512,0-0.707l4.5-4.5
		c0.194-0.194,0.512-0.194,0.707,0C17.049,6.379,17.05,6.695,16.854,6.891z M16.961,5.127c-0.519-0.168-1.108-0.062-1.521,0.35
		l-0.102,0.102l-2.731-2.731l0.078-0.078c0.984-0.98,2.652-0.981,3.608-0.023c0.479,0.479,0.743,1.116,0.743,1.793
		C17.037,4.739,17.006,4.934,16.961,5.127z"/>
</g>
<g>
</g>
<g>
</g>
<g>
</g>
<g>
</g>
<g>
</g>
<g>
</g>
<g>
</g>
<g>
</g>
<g>
</g>
<g>
</g>
<g>
</g>
<g>
</g>
<g>
</g>
<g>
</g>
<g>
</g>
</svg>
