<?xml version="1.0" encoding="iso-8859-1"?>
<!-- Generator: Adobe Illustrator 18.1.1, SVG Export Plug-In . SVG Version: 6.00 Build 0)  -->
<svg version="1.1" id="Capa_1" xmlns="http://www.w3.org/2000/svg" xmlns:xlink="http://www.w3.org/1999/xlink" x="0px" y="0px"
	 viewBox="0 0 18.439 18.439" style="enable-background:new 0 0 18.439 18.439;" xml:space="preserve">
<g>
	<path style="fill:#030104;" d="M18,4.318l-3.879-3.879C13.828,0.146,13.443,0,13.06,0C12.676,0,12.293,0.146,12,0.439L1.061,11.378
		c-0.293,0.293-0.558,0.727-0.75,1.188C0.119,13.029,0,13.525,0,13.939v4.5h4.5c0.414,0,0.908-0.119,1.371-0.311
		c0.463-0.192,0.896-0.457,1.189-0.75L18,6.439c0.293-0.293,0.439-0.678,0.439-1.061C18.439,4.994,18.293,4.611,18,4.318z
		 M2.768,12.5l8.293-8.293l1.232,1.232L4,13.732L2.768,12.5z M4.5,16.439H3l-1-1v-1.5c0-0.077,0.033-0.305,0.158-0.605
		c0.01-0.02,2.967,2.938,2.967,2.938C4.803,16.406,4.577,16.439,4.5,16.439z M5.939,15.671l-1.232-1.232L13,6.146l1.232,1.232
		L5.939,15.671z M14.939,6.671l-3.172-3.172l1.293-1.293l3.17,3.172L14.939,6.671z"/>
</g>
<g>
</g>
<g>
</g>
<g>
</g>
<g>
</g>
<g>
</g>
<g>
</g>
<g>
</g>
<g>
</g>
<g>
</g>
<g>
</g>
<g>
</g>
<g>
</g>
<g>
</g>
<g>
</g>
<g>
</g>
</svg>
