<?xml version="1.0" encoding="iso-8859-1"?>
<!-- Generator: Adobe Illustrator 18.1.1, SVG Export Plug-In . SVG Version: 6.00 Build 0)  -->
<svg version="1.1" id="Capa_1" xmlns="http://www.w3.org/2000/svg" xmlns:xlink="http://www.w3.org/1999/xlink" x="0px" y="0px"
	 viewBox="0 0 20.055 20.055" style="enable-background:new 0 0 20.055 20.055;" xml:space="preserve">
<g>
	<g id="Layer_1_97_">
		<path style="fill:#030104;" d="M18.501,2.677l-1.795-1.793c-0.566-0.567-1.32-0.879-2.121-0.879s-1.555,0.312-2.121,0.879
			L10.877,2.47c-1.17,1.17-1.17,3.072,0,4.242l1.379,1.379l-4.172,4.172l-1.379-1.379c-0.566-0.567-1.32-0.879-2.121-0.879
			s-1.555,0.312-2.121,0.879L0.877,12.47c-1.17,1.17-1.17,3.072,0,4.242l1.794,1.793c0.465,0.465,1.796,1.545,4.116,1.545
			c2.764,0,5.694-1.529,8.711-4.545C21.744,9.259,20.324,4.503,18.501,2.677z M12.292,3.884l1.586-1.586
			c0.195-0.195,0.451-0.293,0.707-0.293s0.512,0.098,0.707,0.293l1.083,1.082l-3.001,3l-1.082-1.082
			C11.901,4.907,11.901,4.275,12.292,3.884z M2.292,15.298c-0.391-0.391-0.391-1.023,0-1.414l1.586-1.586
			c0.195-0.195,0.451-0.293,0.707-0.293s0.512,0.098,0.707,0.293l1.082,1.082l-2.999,3L2.292,15.298z M14.085,14.091
			c-3.083,3.082-5.551,3.959-7.297,3.959c-1.349,0-2.267-0.523-2.702-0.959c-0.004-0.004,2.995-3.004,2.995-3.004l0.297,0.297
			c0.195,0.195,0.451,0.293,0.707,0.293s0.512-0.098,0.707-0.293l5.586-5.586c0.391-0.391,0.391-1.023,0-1.414L14.08,7.087l3.001-3
			C18.085,5.091,19.549,8.626,14.085,14.091z"/>
	</g>
</g>
<g>
</g>
<g>
</g>
<g>
</g>
<g>
</g>
<g>
</g>
<g>
</g>
<g>
</g>
<g>
</g>
<g>
</g>
<g>
</g>
<g>
</g>
<g>
</g>
<g>
</g>
<g>
</g>
<g>
</g>
</svg>
