<?xml version="1.0" encoding="iso-8859-1"?>
<!-- Generator: Adobe Illustrator 18.1.1, SVG Export Plug-In . SVG Version: 6.00 Build 0)  -->
<svg version="1.1" id="Capa_1" xmlns="http://www.w3.org/2000/svg"  x="0px" y="0px"
	 viewBox="0 0 17.044 17.044" style="enable-background:new 0 0 17.044 17.044;" xml:space="preserve">
<g>
	<g>
		<path style="fill:#030104;" d="M10.874,4.575l3.711-3.71l-0.438-0.434c-0.566-0.566-1.555-0.566-2.121,0L10.44,2.017
			C10.156,2.301,10,2.678,10,3.078s0.156,0.777,0.438,1.06L10.874,4.575z"/>
		<path style="fill:#030104;" d="M4.146,10.431c-0.566-0.566-1.555-0.566-2.121,0l-1.586,1.586C0.156,12.301,0,12.678,0,13.078
			s0.156,0.777,0.441,1.062l0.437,0.432l3.703-3.703L4.146,10.431z"/>
		<path style="fill:#030104;" d="M15.937,2.221l-0.354-0.354l-3.708,3.708l0.65,0.649c0.095,0.095,0.146,0.22,0.146,0.354
			s-0.052,0.259-0.146,0.354l-5.586,5.586c-0.189,0.188-0.518,0.189-0.707,0l-0.65-0.65l-3.702,3.71l0.354,0.354
			c0.26,0.26,1.246,1.105,3.056,1.105c1.616,0,4.256-0.712,7.65-4.105C19.713,6.157,16.098,2.382,15.937,2.221z"/>
	</g>
</g>
<g>
</g>
<g>
</g>
<g>
</g>
<g>
</g>
<g>
</g>
<g>
</g>
<g>
</g>
<g>
</g>
<g>
</g>
<g>
</g>
<g>
</g>
<g>
</g>
<g>
</g>
<g>
</g>
<g>
</g>
</svg>
