<?xml version="1.0" encoding="iso-8859-1"?>
<!-- Generator: Adobe Illustrator 18.1.1, SVG Export Plug-In . SVG Version: 6.00 Build 0)  -->
<svg version="1.1" id="Capa_1" xmlns="http://www.w3.org/2000/svg"  x="0px" y="0px"
	 viewBox="0 0 20 20" style="enable-background:new 0 0 20 20;" xml:space="preserve">
<g>
	<g>
		<path style="fill:#030104;" d="M17,18H3c-1.654,0-3-1.346-3-3V7c0-1.654,1.346-3,3-3h1.586l1-1C6.165,2.421,7.182,2,8,2h4
			c0.818,0,1.835,0.421,2.414,1l1,1H17c1.654,0,3,1.346,3,3v8C20,16.654,18.654,18,17,18z M3,6C2.448,6,2,6.448,2,7v8
			c0,0.552,0.448,1,1,1h14c0.552,0,1-0.448,1-1V7c0-0.552-0.448-1-1-1h-2c-0.266,0-0.52-0.105-0.707-0.293L13,4.414
			C12.799,4.213,12.285,4,12,4H8C7.715,4,7.201,4.213,7,4.414L5.707,5.707C5.52,5.895,5.266,6,5,6H3z"/>
	</g>
	<g>
		<path style="fill:#030104;" d="M10,8c1.379,0,2.5,1.121,2.5,2.5S11.379,13,10,13s-2.5-1.121-2.5-2.5S8.621,8,10,8 M10,7
			c-1.934,0-3.5,1.566-3.5,3.5c0,1.932,1.566,3.5,3.5,3.5s3.5-1.568,3.5-3.5C13.5,8.566,11.934,7,10,7z"/>
	</g>
	<g>
		<path style="fill:#030104;" d="M16,6.699c-0.719,0-1.3,0.582-1.3,1.301s0.581,1.299,1.3,1.299S17.3,8.719,17.3,8
			S16.719,6.699,16,6.699z"/>
	</g>
</g>
<g>
</g>
<g>
</g>
<g>
</g>
<g>
</g>
<g>
</g>
<g>
</g>
<g>
</g>
<g>
</g>
<g>
</g>
<g>
</g>
<g>
</g>
<g>
</g>
<g>
</g>
<g>
</g>
<g>
</g>
</svg>
