<?xml version="1.0" encoding="iso-8859-1"?>
<!-- Generator: Adobe Illustrator 18.1.1, SVG Export Plug-In . SVG Version: 6.00 Build 0)  -->
<svg version="1.1" id="Capa_1" xmlns="http://www.w3.org/2000/svg" xmlns:xlink="http://www.w3.org/1999/xlink" x="0px" y="0px"
	 viewBox="0 0 14 14" style="enable-background:new 0 0 14 14;" xml:space="preserve">
<g>
	<g>
		<path style="fill:#030104;" d="M13.707,3.034c-0.391-0.391-1.023-0.391-1.414,0c-1.264,1.264-3.321,1.264-4.586,0
			c-2.045-2.044-5.371-2.042-7.414,0c-0.391,0.391-0.391,1.023,0,1.414s1.023,0.391,1.414,0C2.081,4.074,2.527,3.824,3,3.672v7.827
			c0,0.553,0.447,1,1,1s1-0.447,1-1V3.673c0.472,0.152,0.919,0.401,1.293,0.775C7.061,5.215,8.008,5.693,9,5.885v5.614
			c0,0.553,0.447,1,1,1s1-0.447,1-1V5.885c0.992-0.191,1.939-0.67,2.707-1.437C14.098,4.058,14.098,3.425,13.707,3.034z"/>
	</g>
</g>
<g>
</g>
<g>
</g>
<g>
</g>
<g>
</g>
<g>
</g>
<g>
</g>
<g>
</g>
<g>
</g>
<g>
</g>
<g>
</g>
<g>
</g>
<g>
</g>
<g>
</g>
<g>
</g>
<g>
</g>
</svg>
