<?xml version="1.0" encoding="iso-8859-1"?>
<!-- Generator: Adobe Illustrator 18.1.1, SVG Export Plug-In . SVG Version: 6.00 Build 0)  -->
<svg version="1.1" id="Capa_1" xmlns="http://www.w3.org/2000/svg"  x="0px" y="0px"
	 viewBox="0 0 20 20" style="enable-background:new 0 0 20 20;" xml:space="preserve">
<g>
	<g>
		<path style="fill:#030104;" d="M6.5,5.999c0.827,0,1.5,0.673,1.5,1.5s-0.673,1.5-1.5,1.5S5,8.326,5,7.499S5.673,5.999,6.5,5.999
			 M6.5,4.999c-1.381,0-2.5,1.119-2.5,2.5s1.119,2.5,2.5,2.5S9,8.88,9,7.499S7.881,4.999,6.5,4.999z"/>
	</g>
	<g>
		<path style="fill:#030104;" d="M14,9.999c0.45,0.051,1.27,1.804,1.779,4.001H4.387c0.434-1.034,1.055-2.001,1.612-2.001
			c0.806,0,1.125,0.185,1.53,0.42c0.447,0.258,1.006,0.58,1.97,0.58c1.138,0,1.942-0.885,2.653-1.666
			C12.779,10.646,13.37,9.999,14,9.999 M14,8.999c-2,0-3,3-4.5,3s-1.499-1-3.5-1c-2,0-3.001,4-3.001,4H17
			C17,14.999,16,8.999,14,8.999z"/>
	</g>
	<path style="fill:#030104;" d="M20,4c0-1.104-0.896-2-2-2H2C0.896,2,0,2.896,0,4v12c0,1.104,0.896,2,2,2h16c1.104,0,2-0.896,2-2V4z
		 M18,16H2V4h16.003L18,16z"/>
</g>
<g>
</g>
<g>
</g>
<g>
</g>
<g>
</g>
<g>
</g>
<g>
</g>
<g>
</g>
<g>
</g>
<g>
</g>
<g>
</g>
<g>
</g>
<g>
</g>
<g>
</g>
<g>
</g>
<g>
</g>
</svg>
