<?xml version="1.0" encoding="iso-8859-1"?>
<!-- Generator: Adobe Illustrator 18.1.1, SVG Export Plug-In . SVG Version: 6.00 Build 0)  -->
<svg version="1.1" id="Capa_1" xmlns="http://www.w3.org/2000/svg"  x="0px" y="0px"
	 viewBox="0 0 20.479 20.479" style="enable-background:new 0 0 20.479 20.479;" xml:space="preserve">
<g>
	<path style="fill:#030104;" d="M17.134,6.609l0.557-0.559c0.396-0.396,0.607-0.943,0.582-1.504
		c-0.026-0.561-0.286-1.084-0.717-1.443c-2.129-1.775-4.711-2.848-7.469-3.097C10.027,0.003,9.968,0,9.907,0
		C9.41,0,8.928,0.186,8.557,0.523C8.143,0.902,7.907,1.438,7.907,2v2.229C4.25,5.094,1.574,8.417,1.574,12.235
		c0,4.547,3.688,8.244,8.224,8.244c1.594,0,3.11-0.479,4.441-1.345c0.277,0.142,0.583,0.226,0.9,0.226
		c0.037,0,0.072-0.002,0.109-0.004c0.569-0.03,1.098-0.305,1.453-0.75c1.421-1.781,2.204-4.019,2.204-6.297
		C18.907,10.277,18.28,8.282,17.134,6.609z M9.798,18.479c-3.438,0-6.224-2.793-6.224-6.244c0-3.137,2.317-5.729,5.333-6.164v6.408
		l4.609,4.754C12.479,18.012,11.194,18.479,9.798,18.479z M9.907,11.025V2c2.411,0.218,4.607,1.173,6.366,2.641L9.907,11.025z
		 M10.121,12.294l5.019-5.028c1.104,1.385,1.769,3.141,1.769,5.043c0,1.914-0.664,3.666-1.769,5.051L10.121,12.294z"/>
</g>
<g>
</g>
<g>
</g>
<g>
</g>
<g>
</g>
<g>
</g>
<g>
</g>
<g>
</g>
<g>
</g>
<g>
</g>
<g>
</g>
<g>
</g>
<g>
</g>
<g>
</g>
<g>
</g>
<g>
</g>
</svg>
