<?xml version="1.0" encoding="iso-8859-1"?>
<!-- Generator: Adobe Illustrator 18.1.1, SVG Export Plug-In . SVG Version: 6.00 Build 0)  -->
<svg version="1.1" id="Capa_1" xmlns="http://www.w3.org/2000/svg"  x="0px" y="0px"
	 viewBox="0 0 17.88 17.88" style="enable-background:new 0 0 17.88 17.88;" xml:space="preserve">
<g>
	<g>
		<g>
			<path style="fill:#030104;" d="M9.454,10.86l4.908,4.922c0.39,0.391,0.99,0.36,1.286-0.106c0.88-1.394,1.393-3.044,1.393-4.815
				c0-2.131-0.741-4.086-1.972-5.631L9.454,10.86z"/>
		</g>
		<g>
			<path style="fill:#030104;" d="M6.84,11.276V3.921c-3.391,0.487-6,3.405-6,6.939c0,3.876,3.134,7.02,7,7.02
				c1.572,0,3.018-0.526,4.186-1.403L6.84,11.276z"/>
		</g>
		<g>
			<path style="fill:#030104;" d="M14.171,3.093c0.39-0.391,0.365-0.999-0.089-1.313c-1.253-0.868-2.695-1.479-4.251-1.765
				C9.287-0.085,8.84,0.327,8.84,0.88v7.56L14.171,3.093z"/>
		</g>
	</g>
</g>
<g>
</g>
<g>
</g>
<g>
</g>
<g>
</g>
<g>
</g>
<g>
</g>
<g>
</g>
<g>
</g>
<g>
</g>
<g>
</g>
<g>
</g>
<g>
</g>
<g>
</g>
<g>
</g>
<g>
</g>
</svg>
