<?xml version="1.0" encoding="iso-8859-1"?>
<!-- Generator: Adobe Illustrator 18.1.1, SVG Export Plug-In . SVG Version: 6.00 Build 0)  -->
<svg version="1.1" id="Capa_1" xmlns="http://www.w3.org/2000/svg"  x="0px" y="0px"
	 viewBox="0 0 20.999 20.999" style="enable-background:new 0 0 20.999 20.999;" xml:space="preserve">
<g>
	<g id="Layer_1_58_">
		<path style="fill:#030104;" d="M19.281,15.374l-2.7-3.375H17.5c0.373,0,0.715-0.207,0.887-0.538
			c0.172-0.331,0.146-0.729-0.068-1.035l-7-10c-0.317-0.452-0.94-0.562-1.393-0.246C9.835,0.243,9.768,0.326,9.705,0.411
			C9.68,0.426,2.68,10.426,2.68,10.426c-0.214,0.306-0.24,0.704-0.068,1.035c0.173,0.331,0.515,0.538,0.888,0.538h0.919l-2.7,3.375
			c-0.24,0.301-0.287,0.712-0.121,1.059c0.167,0.345,0.518,0.566,0.902,0.566h7v3c0,0.553,0.448,1,1,1s1-0.447,1-1v-3h7
			c0.384,0,0.735-0.221,0.901-0.566C19.568,16.086,19.521,15.675,19.281,15.374z M11.5,14.999v-5c0-0.553-0.448-1-1-1s-1,0.447-1,1
			v5H4.581l2.7-3.375c0.24-0.301,0.287-0.712,0.121-1.059C7.235,10.22,6.884,9.999,6.5,9.999H5.42l5.08-7.256l5.08,7.256H14.5
			c-0.384,0-0.735,0.221-0.901,0.566c-0.167,0.347-0.12,0.758,0.121,1.059l2.7,3.375H11.5z"/>
	</g>
</g>
<g>
</g>
<g>
</g>
<g>
</g>
<g>
</g>
<g>
</g>
<g>
</g>
<g>
</g>
<g>
</g>
<g>
</g>
<g>
</g>
<g>
</g>
<g>
</g>
<g>
</g>
<g>
</g>
<g>
</g>
</svg>
