<?xml version="1.0" encoding="iso-8859-1"?>
<!-- Generator: Adobe Illustrator 18.1.1, SVG Export Plug-In . SVG Version: 6.00 Build 0)  -->
<svg version="1.1" id="Capa_1" xmlns="http://www.w3.org/2000/svg" xmlns:xlink="http://www.w3.org/1999/xlink" x="0px" y="0px"
	 viewBox="0 0 15.502 15.502" style="enable-background:new 0 0 15.502 15.502;" xml:space="preserve">
<g>
	<g>
		<path style="fill:#030104;" d="M8.112,0c-4.23,0-6.363,3.033-6.363,5.562c0,1.533,0.581,2.894,1.823,3.401
			c0.205,0.084,0.387,0.004,0.446-0.221C4.059,8.585,4.156,8.189,4.2,8.025c0.061-0.221,0.037-0.3-0.127-0.495
			C3.714,7.108,3.485,6.558,3.485,5.783c0-2.25,1.683-4.264,4.384-4.264c2.392,0,3.706,1.463,3.706,3.412
			c0,2.568-1.137,4.734-2.824,4.734c-0.932,0-1.629-0.77-1.405-1.715c0.268-1.13,0.786-2.347,0.786-3.16
			c0-0.729-0.392-1.336-1.2-1.336c-0.952,0-1.718,0.984-1.718,2.304c0,0.841,0.286,1.409,0.286,1.409s-0.976,4.129-1.146,4.852
			c-0.34,1.44-0.051,3.206-0.025,3.385c0.013,0.104,0.149,0.131,0.21,0.051c0.088-0.115,1.223-1.517,1.607-2.915
			c0.111-0.396,0.627-2.445,0.627-2.445c0.311,0.589,1.213,1.108,2.175,1.108c2.863,0,4.804-2.608,4.804-6.103
			C13.749,2.46,11.512,0,8.112,0z"/>
	</g>
</g>
<g>
</g>
<g>
</g>
<g>
</g>
<g>
</g>
<g>
</g>
<g>
</g>
<g>
</g>
<g>
</g>
<g>
</g>
<g>
</g>
<g>
</g>
<g>
</g>
<g>
</g>
<g>
</g>
<g>
</g>
</svg>
