<?xml version="1.0" encoding="iso-8859-1"?>
<!-- Generator: Adobe Illustrator 18.1.1, SVG Export Plug-In . SVG Version: 6.00 Build 0)  -->
<svg version="1.1" id="Capa_1" xmlns="http://www.w3.org/2000/svg"  x="0px" y="0px"
	 viewBox="0 0 18 18" style="enable-background:new 0 0 18 18;" xml:space="preserve">
<g>
	<g id="Layer_1_84_">
		<g>
			<path style="fill:#030104;" d="M9,18c-4.963,0-9-4.037-9-9s4.037-9,9-9s9,4.037,9,9S13.963,18,9,18z M9,2C5.141,2,2,5.141,2,9
				s3.141,7,7,7s7-3.141,7-7S12.859,2,9,2z"/>
		</g>
		<g>
			<path style="fill:#030104;" d="M9.335,5C6.867,5,5.623,6.77,5.623,8.244c0,0.895,0.338,1.688,1.063,1.984
				c0.119,0.049,0.226,0.002,0.261-0.129c0.023-0.092,0.08-0.322,0.105-0.418c0.035-0.129,0.021-0.175-0.074-0.289
				C6.769,9.146,6.634,8.826,6.634,8.373c0-1.312,0.982-2.487,2.558-2.487c1.396,0,2.161,0.853,2.161,1.99
				c0,1.498-0.662,2.762-1.646,2.762c-0.543,0-0.95-0.449-0.82-1.001c0.156-0.658,0.459-1.368,0.459-1.843
				c0-0.426-0.229-0.779-0.7-0.779c-0.556,0-1.002,0.574-1.002,1.344c0,0.49,0.166,0.822,0.166,0.822s-0.569,2.408-0.669,2.83
				c-0.198,0.84-0.029,1.87-0.015,1.974c0.008,0.062,0.087,0.077,0.123,0.03c0.052-0.067,0.713-0.885,0.938-1.7
				c0.064-0.23,0.366-1.427,0.366-1.427c0.18,0.344,0.707,0.646,1.268,0.646c1.67,0,2.803-1.521,2.803-3.56
				C12.623,6.436,11.318,5,9.335,5z"/>
		</g>
	</g>
</g>
<g>
</g>
<g>
</g>
<g>
</g>
<g>
</g>
<g>
</g>
<g>
</g>
<g>
</g>
<g>
</g>
<g>
</g>
<g>
</g>
<g>
</g>
<g>
</g>
<g>
</g>
<g>
</g>
<g>
</g>
</svg>
