<?xml version="1.0" encoding="iso-8859-1"?>
<!-- Generator: Adobe Illustrator 18.1.1, SVG Export Plug-In . SVG Version: 6.00 Build 0)  -->
<svg version="1.1" id="Capa_1" xmlns="http://www.w3.org/2000/svg"  x="0px" y="0px"
	 viewBox="0 0 18 18" style="enable-background:new 0 0 18 18;" xml:space="preserve">
<g>
	<path style="fill:#030104;" d="M9,0C4.029,0,0,4.029,0,9s4.029,9,9,9s9-4.029,9-9S13.971,0,9,0z M11,2c0,1-0.5,2-1.5,2S8,5,8,6
		s0,3,0,3s1,0,1-3c0-0.553,0.447-1,1-1s1,0.447,1,1v3c-0.552,0-1,0.448-1,1s0.448,1,1,1c0.553,0,1-0.448,1-1h1V8l1,1l-1,1
		c0,3,0,3-2,4c0-1-1-1-3-1v-2L6,9V7C5,7,5,8,5,8L4.439,7.439l-2.39-2.39c0.11-0.192,0.225-0.382,0.35-0.564l0.523-0.678
		C4.39,2.091,6.566,1,9,1c0.691,0,1.359,0.098,2,0.262V2z"/>
</g>
<g>
</g>
<g>
</g>
<g>
</g>
<g>
</g>
<g>
</g>
<g>
</g>
<g>
</g>
<g>
</g>
<g>
</g>
<g>
</g>
<g>
</g>
<g>
</g>
<g>
</g>
<g>
</g>
<g>
</g>
</svg>
