<?xml version="1.0" encoding="iso-8859-1"?>
<!-- Generator: Adobe Illustrator 18.1.1, SVG Export Plug-In . SVG Version: 6.00 Build 0)  -->
<svg version="1.1" id="Capa_1" xmlns="http://www.w3.org/2000/svg"  x="0px" y="0px"
	 viewBox="0 0 22.75 22.75" style="enable-background:new 0 0 22.75 22.75;" xml:space="preserve">
<g>
	<g id="Layer_1_52_">
		<path style="fill:#030104;" d="M19.862,11.146l-4.988-2.851V3.5c0-1.93-1.57-3.5-3.5-3.5s-3.5,1.57-3.5,3.5v4.795l-4.988,2.851
			c-1.317,0.752-1.865,2.371-1.276,3.769c0.589,1.399,2.132,2.135,3.589,1.72l2.675-0.765v0.838L7,17.407
			c-1.198,0.959-1.48,2.667-0.653,3.959c0.827,1.293,2.494,1.753,3.869,1.066c0.004-0.001,0.5-0.183,1.158-0.183
			s1.154,0.182,1.158,0.183c1.375,0.687,3.042,0.227,3.869-1.066c0.827-1.292,0.545-3-0.653-3.959l-0.874-0.699V15.87l2.676,0.765
			c1.457,0.415,3-0.321,3.589-1.72C21.728,13.516,21.18,11.898,19.862,11.146z M19.296,14.138c-0.197,0.466-0.711,0.713-1.196,0.573
			l-5.226-1.492v4.451l1.625,1.3c0.399,0.319,0.493,0.889,0.218,1.32c-0.275,0.43-0.828,0.583-1.29,0.355
			c-0.008-0.004-0.824-0.395-2.053-0.395s-2.045,0.391-2.053,0.395c-0.462,0.227-1.015,0.074-1.29-0.355
			c-0.275-0.431-0.182-1,0.218-1.32l1.625-1.3v-4.451l-5.226,1.493c-0.485,0.14-0.999-0.107-1.196-0.573
			c-0.196-0.466-0.014-1.005,0.426-1.256l5.996-3.427V3.5c0-0.827,0.673-1.5,1.5-1.5s1.5,0.673,1.5,1.5v5.956l5.996,3.426
			C19.31,13.133,19.492,13.672,19.296,14.138z"/>
		<circle style="fill:#030104;" cx="11.374" cy="3.25" r="0.5"/>
	</g>
</g>
<g>
</g>
<g>
</g>
<g>
</g>
<g>
</g>
<g>
</g>
<g>
</g>
<g>
</g>
<g>
</g>
<g>
</g>
<g>
</g>
<g>
</g>
<g>
</g>
<g>
</g>
<g>
</g>
<g>
</g>
</svg>
