<?xml version="1.0" encoding="iso-8859-1"?>
<!-- Generator: Adobe Illustrator 18.1.1, SVG Export Plug-In . SVG Version: 6.00 Build 0)  -->
<svg version="1.1" id="Capa_1" xmlns="http://www.w3.org/2000/svg"  x="0px" y="0px"
	 viewBox="0 0 20 20" style="enable-background:new 0 0 20 20;" xml:space="preserve">
<g>
	<g id="Layer_1_114_">
		<g>
			<path style="fill:#030104;" d="M10,15.5c-3.859,0-7-3.141-7-7h2c0,2.757,2.243,5,5,5s5-2.243,5-5h2
				C17,12.359,13.859,15.5,10,15.5z"/>
		</g>
		<g>
			<path style="fill:#030104;" d="M16,10c-0.553,0-1-0.447-1-1V6H5v3c0,0.553-0.447,1-1,1S3,9.553,3,9V5c0-0.553,0.447-1,1-1h12
				c0.553,0,1,0.447,1,1v4C17,9.553,16.553,10,16,10z"/>
		</g>
		<g>
			<path style="fill:#030104;" d="M8,1v3H6V1H8 M8,0H6C5.447,0,5,0.447,5,1v3c0,0.553,0.447,1,1,1h2c0.553,0,1-0.447,1-1V1
				C9,0.447,8.553,0,8,0z"/>
		</g>
		<g>
			<path style="fill:#030104;" d="M11,15.5V18H9v-2.5h1H11 M11,13.5h-1H9c-1.104,0-2,0.896-2,2V18c0,1.104,0.896,2,2,2h2
				c1.104,0,2-0.896,2-2v-2.5C13,14.396,12.104,13.5,11,13.5z"/>
		</g>
		<g>
			<path style="fill:#030104;" d="M14,1v3h-2V1H14 M14,0h-2c-0.553,0-1,0.447-1,1v3c0,0.553,0.447,1,1,1h2c0.553,0,1-0.447,1-1V1
				C15,0.447,14.553,0,14,0z"/>
		</g>
		<g>
			<path style="fill:#030104;" d="M16,10H4c-0.276,0-0.5-0.224-0.5-0.5S3.724,9,4,9h12c0.276,0,0.5,0.224,0.5,0.5S16.276,10,16,10z"
				/>
		</g>
		<g>
			<path style="fill:#030104;" d="M10,14.5c-0.343,0-0.677-0.035-1-0.101V16h2v-1.601C10.677,14.465,10.343,14.5,10,14.5z"/>
		</g>
		<g>
			<rect x="7" y="14" style="fill:#030104;" width="1" height="2"/>
		</g>
		<g>
			<rect x="12" y="14" style="fill:#030104;" width="1" height="2"/>
		</g>
	</g>
</g>
<g>
</g>
<g>
</g>
<g>
</g>
<g>
</g>
<g>
</g>
<g>
</g>
<g>
</g>
<g>
</g>
<g>
</g>
<g>
</g>
<g>
</g>
<g>
</g>
<g>
</g>
<g>
</g>
<g>
</g>
</svg>
