<?xml version="1.0" encoding="iso-8859-1"?>
<!-- Generator: Adobe Illustrator 18.1.1, SVG Export Plug-In . SVG Version: 6.00 Build 0)  -->
<svg version="1.1" id="Capa_1" xmlns="http://www.w3.org/2000/svg" xmlns:xlink="http://www.w3.org/1999/xlink" x="0px" y="0px"
	 viewBox="0 0 15.5 15.5" style="enable-background:new 0 0 15.5 15.5;" xml:space="preserve">
<g>
	<path style="fill:#030104;" d="M9,13.5c-2.481,0-4.5-2.019-4.5-4.5c0-0.553-0.447-1-1-1s-1,0.447-1,1c0,3.584,2.916,6.5,6.5,6.5
		s6.5-2.916,6.5-6.5S12.584,2.5,9,2.5c-0.553,0-1,0.447-1,1s0.447,1,1,1c2.481,0,4.5,2.019,4.5,4.5S11.481,13.5,9,13.5z"/>
	<g>
		<g>
			<path style="fill:#030104;" d="M6.656,0c0.552,0,1,0.448,1,1s-0.448,1-1,1H5.828H3.413l1.708,1.707l4.093,4.092
				C9.605,8.19,9.605,8.824,9.215,9.214c-0.189,0.188-0.44,0.292-0.708,0.292S7.988,9.402,7.8,9.215L3.707,5.121L2,3.413v2.415
				v0.828c0,0.552-0.448,1-1,1s-1-0.448-1-1V0H6.656"/>
		</g>
	</g>
</g>
<g>
</g>
<g>
</g>
<g>
</g>
<g>
</g>
<g>
</g>
<g>
</g>
<g>
</g>
<g>
</g>
<g>
</g>
<g>
</g>
<g>
</g>
<g>
</g>
<g>
</g>
<g>
</g>
<g>
</g>
</svg>
