<?xml version="1.0" encoding="iso-8859-1"?>
<!-- Generator: Adobe Illustrator 18.1.1, SVG Export Plug-In . SVG Version: 6.00 Build 0)  -->
<svg version="1.1" id="Capa_1" xmlns="http://www.w3.org/2000/svg"  x="0px" y="0px"
	 viewBox="0 0 18.573 18.573" style="enable-background:new 0 0 18.573 18.573;" xml:space="preserve">
<g>
	<g id="Layer_1_42_">
		<path style="fill:#030104;" d="M15.297,4.062c-0.814-0.815-1.98-1.05-3.01-0.729V3c0-1.656-1.344-3-3-3s-3,1.344-3,3v0.332
			c-1.029-0.319-2.195-0.085-3.01,0.73c-1.605,1.606-2.49,3.741-2.49,6.011s0.885,4.405,2.49,6.011
			c1.604,1.605,3.739,2.489,6.01,2.489s4.405-0.884,6.01-2.489s2.49-3.74,2.49-6.011S16.902,5.668,15.297,4.062z M8.286,3
			c0-0.552,0.447-1,1-1s1,0.448,1,1v5c0,0.552-0.447,1-1,1s-1-0.448-1-1V3z M7.286,6.803V8c0,1.104,0.896,2,2,2s2-0.896,2-2V6.818
			c0.095,0.284,0.248,0.554,0.475,0.78c0.661,0.661,1.025,1.54,1.025,2.475s-0.364,1.814-1.025,2.476
			c-1.322,1.321-3.627,1.321-4.949,0c-0.662-0.662-1.026-1.541-1.026-2.476s0.364-1.814,1.025-2.476
			C7.042,7.367,7.194,7.093,7.286,6.803z M13.883,14.67c-1.228,1.228-2.859,1.903-4.596,1.903S5.918,15.897,4.69,14.67
			c-1.227-1.228-1.904-2.86-1.904-4.597s0.677-3.369,1.904-4.597c0.391-0.391,1.023-0.391,1.414,0s0.391,1.023,0,1.414
			c-0.85,0.851-1.318,1.981-1.318,3.183s0.468,2.333,1.318,3.183s1.979,1.317,3.182,1.317s2.332-0.468,3.182-1.317
			c0.851-0.85,1.318-1.98,1.318-3.183S13.318,7.74,12.469,6.89c-0.391-0.391-0.391-1.023,0-1.414s1.023-0.391,1.414,0
			c1.227,1.229,1.904,2.861,1.904,4.597S15.109,13.442,13.883,14.67z"/>
	</g>
</g>
<g>
</g>
<g>
</g>
<g>
</g>
<g>
</g>
<g>
</g>
<g>
</g>
<g>
</g>
<g>
</g>
<g>
</g>
<g>
</g>
<g>
</g>
<g>
</g>
<g>
</g>
<g>
</g>
<g>
</g>
</svg>
