<?xml version="1.0" encoding="iso-8859-1"?>
<!-- Generator: Adobe Illustrator 18.1.1, SVG Export Plug-In . SVG Version: 6.00 Build 0)  -->
<svg version="1.1" id="Capa_1" xmlns="http://www.w3.org/2000/svg" xmlns:xlink="http://www.w3.org/1999/xlink" x="0px" y="0px"
	 viewBox="0 0 19 19" style="enable-background:new 0 0 19 19;" xml:space="preserve">
<g>
	<g id="Layer_1_40_">
		<g>
			<path style="fill:#030104;" d="M15,3V1c0-0.552-0.448-1-1-1H5C4.448,0,4,0.448,4,1v2C2.346,3,1,4.346,1,6v10c0,1.654,1.346,3,3,3
				h11c1.654,0,3-1.346,3-3V6C18,4.346,16.654,3,15,3z M6,2h7v5H6V2z M4,5v3c0,0.552,0.448,1,1,1h9c0.552,0,1-0.448,1-1V5
				c0.551,0,1,0.449,1,1v2.5c0,0.827-0.673,1.5-1.5,1.5h-10C3.673,10,3,9.327,3,8.5V6C3,5.449,3.449,5,4,5z M15,17H4
				c-0.551,0-1-0.449-1-1v-5.513C3.419,10.805,3.935,11,4.5,11h10c0.565,0,1.081-0.195,1.5-0.513V16C16,16.551,15.551,17,15,17z"/>
			<path style="fill:#030104;" d="M11.5,5h-4C7.224,5,7,5.224,7,5.5S7.224,6,7.5,6h4C11.776,6,12,5.776,12,5.5S11.776,5,11.5,5z"/>
			<path style="fill:#030104;" d="M13,14H6c-0.276,0-0.5,0.224-0.5,0.5S5.724,15,6,15h7c0.276,0,0.5-0.224,0.5-0.5S13.276,14,13,14z
				"/>
			<path style="fill:#030104;" d="M11.5,3h-4C7.224,3,7,3.224,7,3.5S7.224,4,7.5,4h4C11.776,4,12,3.776,12,3.5S11.776,3,11.5,3z"/>
		</g>
	</g>
</g>
<g>
</g>
<g>
</g>
<g>
</g>
<g>
</g>
<g>
</g>
<g>
</g>
<g>
</g>
<g>
</g>
<g>
</g>
<g>
</g>
<g>
</g>
<g>
</g>
<g>
</g>
<g>
</g>
<g>
</g>
</svg>
