<?xml version="1.0" encoding="iso-8859-1"?>
<!-- Generator: Adobe Illustrator 18.1.1, SVG Export Plug-In . SVG Version: 6.00 Build 0)  -->
<svg version="1.1" id="Capa_1" xmlns="http://www.w3.org/2000/svg"  x="0px" y="0px"
	 viewBox="0 0 21 21" style="enable-background:new 0 0 21 21;" xml:space="preserve">
<g>
	<g>
		<path style="fill:#030104;" d="M18,10.473c0-1.948-0.618-3.397-2.066-4.844c-0.391-0.39-1.023-0.39-1.414,0
			c-0.391,0.391-0.391,1.024,0,1.415C15.599,8.122,16,9.051,16,10.473c0,1.469-0.572,2.85-1.611,3.888
			c-1.004,1.003-2.078,1.502-3.428,1.593l1.246-1.247c0.391-0.391,0.391-1.023,0-1.414s-1.023-0.391-1.414,0L7.086,17l3.707,3.707
			C10.988,20.902,11.244,21,11.5,21s0.512-0.098,0.707-0.293c0.391-0.391,0.391-1.023,0-1.414l-1.337-1.336
			c1.923-0.082,3.542-0.792,4.933-2.181C17.22,14.36,18,12.477,18,10.473z"/>
		<path style="fill:#030104;" d="M5,10.5c0-1.469,0.572-2.85,1.611-3.889c1.009-1.009,2.092-1.508,3.457-1.594L8.793,6.292
			c-0.391,0.391-0.391,1.023,0,1.414C8.988,7.902,9.244,8,9.5,8s0.512-0.098,0.707-0.293L13.914,4l-3.707-3.707
			c-0.391-0.391-1.023-0.391-1.414,0s-0.391,1.023,0,1.414l1.311,1.311C8.19,3.104,6.579,3.814,5.197,5.197
			C3.78,6.613,3,8.496,3,10.5c0,1.948,0.618,3.397,2.066,4.844c0.195,0.195,0.451,0.292,0.707,0.292s0.512-0.098,0.707-0.293
			c0.391-0.391,0.391-1.024,0-1.415C5.401,12.851,5,11.922,5,10.5z"/>
	</g>
</g>
<g>
</g>
<g>
</g>
<g>
</g>
<g>
</g>
<g>
</g>
<g>
</g>
<g>
</g>
<g>
</g>
<g>
</g>
<g>
</g>
<g>
</g>
<g>
</g>
<g>
</g>
<g>
</g>
<g>
</g>
</svg>
