<?xml version="1.0" encoding="iso-8859-1"?>
<!-- Generator: Adobe Illustrator 18.1.1, SVG Export Plug-In . SVG Version: 6.00 Build 0)  -->
<svg version="1.1" id="Capa_1" xmlns="http://www.w3.org/2000/svg"  x="0px" y="0px"
	 viewBox="0 0 19.5 19.5" style="enable-background:new 0 0 19.5 19.5;" xml:space="preserve">
<g>
	<g id="Layer_1_34_">
		<g>
			<path style="fill:#030104;" d="M18.25,8.75V7c0-1.93-1.57-3.5-3.5-3.5h-0.759C13.85,1.518,12.038,0,9.75,0s-4.1,1.518-4.241,3.5
				H4.75c-1.93,0-3.5,1.57-3.5,3.5v1.75c0,1.012,0.514,1.847,1.295,2.246c-0.358,0.188-0.668,0.469-0.894,0.825
				C1.389,12.235,1.25,12.729,1.25,13.25V16c0,1.93,1.57,3.5,3.5,3.5H7.5c0.976,0,1.831-0.497,2.242-1.299
				c0.013,0.024,0.024,0.046,0.036,0.066C10.213,19.039,11.044,19.5,12,19.5h2.75c1.93,0,3.5-1.57,3.5-3.5v-2.75
				c0-1.013-0.515-1.849-1.297-2.247C17.729,10.592,18.25,9.747,18.25,8.75z M16.25,16c0,0.825-0.675,1.5-1.5,1.5H12
				c-0.356,0-0.724-0.216-0.391-0.766C11.855,16.454,12,16.115,12,15.75C12,14.783,10.993,14,9.75,14S7.5,14.783,7.5,15.75
				c0,0.3,0.095,0.576,0.255,0.823C8.262,17.246,7.891,17.5,7.5,17.5H4.75c-0.825,0-1.5-0.675-1.5-1.5v-2.75
				c0-0.258,0.113-0.521,0.384-0.521c0.104,0,0.229,0.039,0.382,0.13C4.296,13.105,4.636,13.25,5,13.25
				c0.966,0,1.75-1.008,1.75-2.25S5.966,8.75,5,8.75c-0.3,0-0.576,0.095-0.822,0.255C3.941,9.176,3.756,9.248,3.616,9.248
				c-0.26,0-0.366-0.245-0.366-0.498V7c0-0.825,0.675-1.5,1.5-1.5H7.5c0.391,0,0.762-0.254,0.243-0.927
				C7.595,4.326,7.5,4.05,7.5,3.75C7.5,2.783,8.507,2,9.75,2S12,2.783,12,3.75c0,0.365-0.145,0.704-0.391,0.984
				C11.276,5.284,11.644,5.5,12,5.5h2.75c0.825,0,1.5,0.675,1.5,1.5v1.75c0,0.258-0.113,0.521-0.384,0.521
				c-0.104,0-0.229-0.039-0.382-0.13c-0.28-0.246-0.62-0.391-0.984-0.391c-0.966,0-1.75,1.008-1.75,2.25s0.784,2.25,1.75,2.25
				c0.3,0,0.576-0.095,0.822-0.255c0.237-0.171,0.422-0.244,0.562-0.243c0.259,0,0.365,0.245,0.365,0.498L16.25,16L16.25,16z
				 M3.25,10.194c0.116,0.032,0.236,0.054,0.365,0.054c0.342,0,0.683-0.119,1.038-0.364C4.676,9.871,4.7,9.858,4.722,9.843
				C4.819,9.78,4.91,9.75,5,9.75c0.354,0,0.75,0.535,0.75,1.25S5.354,12.25,5,12.25c-0.108,0-0.217-0.048-0.324-0.142
				c-0.045-0.039-0.092-0.074-0.143-0.104c-0.301-0.183-0.604-0.275-0.899-0.275c-0.134,0-0.261,0.023-0.384,0.059V10.194z
				 M15.885,11.752c-0.342,0-0.683,0.119-1.038,0.364c-0.023,0.013-0.047,0.026-0.069,0.041c-0.097,0.063-0.188,0.093-0.277,0.093
				c-0.354,0-0.75-0.535-0.75-1.25s0.396-1.25,0.75-1.25c0.108,0,0.217,0.048,0.324,0.142c0.045,0.039,0.092,0.074,0.143,0.104
				c0.302,0.183,0.604,0.275,0.899,0.275c0.136,0,0.262-0.025,0.384-0.062v1.597C16.134,11.774,16.014,11.752,15.885,11.752z
				 M8.942,17.5c0.101-0.346,0.093-0.816-0.305-1.396c-0.014-0.025-0.028-0.05-0.044-0.074c-0.062-0.098-0.094-0.189-0.094-0.279
				c0-0.354,0.534-0.75,1.25-0.75s1.25,0.396,1.25,0.75c0,0.108-0.048,0.217-0.143,0.325c-0.038,0.044-0.073,0.091-0.104,0.142
				c-0.325,0.537-0.311,0.979-0.22,1.284h-1.59V17.5z"/>
		</g>
	</g>
</g>
<g>
</g>
<g>
</g>
<g>
</g>
<g>
</g>
<g>
</g>
<g>
</g>
<g>
</g>
<g>
</g>
<g>
</g>
<g>
</g>
<g>
</g>
<g>
</g>
<g>
</g>
<g>
</g>
<g>
</g>
</svg>
