<?xml version="1.0" encoding="iso-8859-1"?>
<!-- Generator: Adobe Illustrator 18.1.1, SVG Export Plug-In . SVG Version: 6.00 Build 0)  -->
<svg version="1.1" id="Capa_1" xmlns="http://www.w3.org/2000/svg" xmlns:xlink="http://www.w3.org/1999/xlink" x="0px" y="0px"
	 viewBox="0 0 15.5 15.5" style="enable-background:new 0 0 15.5 15.5;" xml:space="preserve">
<g>
	<g>
		<path style="fill:#030104;" d="M12.5,6.75c0.364,0,0.704,0.145,0.984,0.391c0.549,0.332,0.766-0.034,0.766-0.391V5
			c0-0.825-0.675-1.5-1.5-1.5H10c-0.356,0-0.724-0.216-0.391-0.766C9.855,2.454,10,2.115,10,1.75C10,0.783,8.993,0,7.75,0
			S5.5,0.783,5.5,1.75c0,0.3,0.095,0.576,0.255,0.823C6.262,3.246,5.891,3.5,5.5,3.5H2.75c-0.825,0-1.5,0.675-1.5,1.5v1.75
			c0,0.391,0.254,0.762,0.928,0.244C2.424,6.845,2.7,6.75,3,6.75c0.966,0,1.75,1.008,1.75,2.25S3.966,11.25,3,11.25
			c-0.364,0-0.704-0.145-0.984-0.391C1.467,10.527,1.25,10.893,1.25,11.25V14c0,0.825,0.675,1.5,1.5,1.5H5.5
			c0.391,0,0.762-0.254,0.243-0.927C5.595,14.326,5.5,14.05,5.5,13.75C5.5,12.783,6.507,12,7.75,12S10,12.783,10,13.75
			c0,0.365-0.145,0.704-0.391,0.984C9.276,15.284,9.644,15.5,10,15.5h2.75c0.825,0,1.5-0.675,1.5-1.5v-2.75
			c0-0.391-0.254-0.762-0.928-0.244C13.076,11.155,12.8,11.25,12.5,11.25c-0.966,0-1.75-1.008-1.75-2.25S11.534,6.75,12.5,6.75z"/>
	</g>
</g>
<g>
</g>
<g>
</g>
<g>
</g>
<g>
</g>
<g>
</g>
<g>
</g>
<g>
</g>
<g>
</g>
<g>
</g>
<g>
</g>
<g>
</g>
<g>
</g>
<g>
</g>
<g>
</g>
<g>
</g>
</svg>
