<?xml version="1.0" encoding="iso-8859-1"?>
<!-- Generator: Adobe Illustrator 18.1.1, SVG Export Plug-In . SVG Version: 6.00 Build 0)  -->
<svg version="1.1" id="Capa_1" xmlns="http://www.w3.org/2000/svg"  x="0px" y="0px"
	 viewBox="0 0 20 20" style="enable-background:new 0 0 20 20;" xml:space="preserve">
<g>
	<g id="Layer_1_88_">
		<g>
			<path style="fill:#030104;" d="M10,14c-2.206,0-4-1.795-4-4V4c0-2.205,1.794-4,4-4s4,1.795,4,4v6C14,12.205,12.206,14,10,14z
				 M10,2C8.897,2,8,2.896,8,4v6c0,1.104,0.897,2,2,2s2-0.896,2-2V4C12,2.896,11.103,2,10,2z"/>
		</g>
		<path style="fill:#030104;" d="M17,10V8c0-0.553-0.447-1-1-1s-1,0.447-1,1v2c0,2.757-2.243,5-5,5s-5-2.243-5-5V8
			c0-0.553-0.447-1-1-1S3,7.447,3,8v2c0,3.52,2.613,6.432,6,6.92V18H6c-0.553,0-1,0.447-1,1s0.447,1,1,1h8c0.553,0,1-0.447,1-1
			s-0.447-1-1-1h-3v-1.08C14.387,16.432,17,13.52,17,10z"/>
	</g>
</g>
<g>
</g>
<g>
</g>
<g>
</g>
<g>
</g>
<g>
</g>
<g>
</g>
<g>
</g>
<g>
</g>
<g>
</g>
<g>
</g>
<g>
</g>
<g>
</g>
<g>
</g>
<g>
</g>
<g>
</g>
</svg>
