<?xml version="1.0" encoding="iso-8859-1"?>
<!-- Generator: Adobe Illustrator 18.1.1, SVG Export Plug-In . SVG Version: 6.00 Build 0)  -->
<svg version="1.1" id="Capa_1" xmlns="http://www.w3.org/2000/svg" xmlns:xlink="http://www.w3.org/1999/xlink" x="0px" y="0px"
	 viewBox="0 0 20 20" style="enable-background:new 0 0 20 20;" xml:space="preserve">
<g>
	<g>
		<path style="fill:#030104;" d="M10,14c2.206,0,4-1.795,4-4V4c0-2.206-1.794-4-4-4S6,1.794,6,4v6C6,12.205,7.794,14,10,14z"/>
		<path style="fill:#030104;" d="M17,10V8c0-0.552-0.447-1-1-1s-1,0.448-1,1v2c0,2.757-2.243,5-5,5s-5-2.243-5-5V8
			c0-0.552-0.447-1-1-1S3,7.448,3,8v2c0,3.52,2.613,6.432,6,6.92V18H6c-0.553,0-1,0.447-1,1s0.447,1,1,1h8c0.553,0,1-0.447,1-1
			s-0.447-1-1-1h-3v-1.08C14.387,16.432,17,13.52,17,10z"/>
	</g>
</g>
<g>
</g>
<g>
</g>
<g>
</g>
<g>
</g>
<g>
</g>
<g>
</g>
<g>
</g>
<g>
</g>
<g>
</g>
<g>
</g>
<g>
</g>
<g>
</g>
<g>
</g>
<g>
</g>
<g>
</g>
</svg>
