<?xml version="1.0" encoding="iso-8859-1"?>
<!-- Generator: Adobe Illustrator 18.1.1, SVG Export Plug-In . SVG Version: 6.00 Build 0)  -->
<svg version="1.1" id="Capa_1" xmlns="http://www.w3.org/2000/svg" xmlns:xlink="http://www.w3.org/1999/xlink" x="0px" y="0px"
	 viewBox="0 0 20 20" style="enable-background:new 0 0 20 20;" xml:space="preserve">
<g>
	<g id="Layer_1_41_">
		<g>
			<path style="fill:#030104;" d="M13,18c-0.552,0-1-0.447-1-1v-6c0-0.553,0.448-1,1-1s1,0.447,1,1v6C14,17.553,13.552,18,13,18z"/>
		</g>
		<g>
			<path style="fill:#030104;" d="M7,18c-0.552,0-1-0.447-1-1v-6c0-0.553,0.448-1,1-1s1,0.447,1,1v6C8,17.553,7.552,18,7,18z"/>
		</g>
		<g>
			<path style="fill:#030104;" d="M10,20c-0.552,0-1-0.447-1-1v-6c0-0.553,0.448-1,1-1s1,0.447,1,1v6C11,19.553,10.552,20,10,20z"/>
		</g>
		<g>
			<path style="fill:#030104;" d="M4,14c-2.206,0-4-1.794-4-4c0-1.861,1.277-3.429,3.001-3.874C3,6.084,3,6.042,3,6
				c0-3.309,2.691-6,6-6c2.587,0,4.824,1.639,5.65,4.015C17.586,3.771,20,6.128,20,9c0,2.241-1.507,4.223-3.666,4.819
				c-0.535,0.146-1.083-0.166-1.23-0.697c-0.147-0.532,0.165-1.083,0.698-1.23C17.096,11.534,18,10.345,18,9c0-1.654-1.346-3-3-3
				c-0.242,0-0.499,0.041-0.811,0.13l-1.074,0.306L12.93,5.334C12.604,3.402,10.952,2,9,2C6.794,2,5,3.794,5,6
				c0,0.272,0.027,0.545,0.082,0.808L5.33,8.01L3.908,7.994C2.897,8,2,8.897,2,10s0.897,2,2,2c0.552,0,1,0.447,1,1S4.552,14,4,14z"
				/>
		</g>
	</g>
</g>
<g>
</g>
<g>
</g>
<g>
</g>
<g>
</g>
<g>
</g>
<g>
</g>
<g>
</g>
<g>
</g>
<g>
</g>
<g>
</g>
<g>
</g>
<g>
</g>
<g>
</g>
<g>
</g>
<g>
</g>
</svg>
