<?xml version="1.0" encoding="iso-8859-1"?>
<!-- Generator: Adobe Illustrator 18.1.1, SVG Export Plug-In . SVG Version: 6.00 Build 0)  -->
<svg version="1.1" id="Capa_1" xmlns="http://www.w3.org/2000/svg" xmlns:xlink="http://www.w3.org/1999/xlink" x="0px" y="0px"
	 viewBox="0 0 18 18" style="enable-background:new 0 0 18 18;" xml:space="preserve">
<g>
	<path style="fill:#030104;" d="M14.502,9.033l-4.241-2.458l2.138-5.131C12.465,1.31,12.502,1.159,12.502,1c0-0.552-0.445-1-0.997-1
		c-0.249,0.004-0.457,0.083-0.622,0.214c-0.033,0.026-0.053,0.042-0.07,0.06l-7.5,7.1C3.084,7.591,2.971,7.903,3.007,8.216
		c0.036,0.313,0.219,0.591,0.491,0.75l4.242,2.46l-2.163,5.19c-0.183,0.436-0.034,0.94,0.354,1.208C6.103,17.942,6.303,18,6.499,18
		c0.248,0,0.496-0.093,0.688-0.274l7.5-7.102c0.229-0.217,0.342-0.529,0.306-0.842C14.957,9.469,14.774,9.191,14.502,9.033z"/>
</g>
<g>
</g>
<g>
</g>
<g>
</g>
<g>
</g>
<g>
</g>
<g>
</g>
<g>
</g>
<g>
</g>
<g>
</g>
<g>
</g>
<g>
</g>
<g>
</g>
<g>
</g>
<g>
</g>
<g>
</g>
</svg>
