<?xml version="1.0" encoding="iso-8859-1"?>
<!-- Generator: Adobe Illustrator 18.1.1, SVG Export Plug-In . SVG Version: 6.00 Build 0)  -->
<svg version="1.1" id="Capa_1" xmlns="http://www.w3.org/2000/svg"  x="0px" y="0px"
	 viewBox="0 0 19 19" style="enable-background:new 0 0 19 19;" xml:space="preserve">
<g>
	<g id="Layer_1_96_">
		<path style="fill:#030104;" d="M19,3c0-0.801-0.312-1.555-0.879-2.121C17.555,0.312,16.801,0,16,0s-1.555,0.312-2.121,0.879
			l-0.883,0.883C12.465,1.288,11.766,1,11,1c-0.919,0-1.732,0.424-2.283,1.077C8.505,2.03,8.286,2,8.061,2H4H2v2v4.06
			c0,0.255,0.042,0.499,0.102,0.736c-0.598,0.549-0.98,1.33-0.98,2.204c0,0.735,0.266,1.409,0.705,1.931L0.88,13.879
			C0.312,14.445,0,15.199,0,16s0.312,1.555,0.879,2.121C1.445,18.688,2.199,19,3,19c0.539,0,1.334-0.152,2.061-0.879l0.903-0.919
			C6.499,17.697,7.215,18,8,18c0.934,0,1.758-0.437,2.309-1.107C10.55,16.956,10.799,17,11.061,17H15h2v-2v-4.061
			c0-0.226-0.029-0.444-0.077-0.656C17.576,9.733,18,8.919,18,8c0-0.766-0.288-1.465-0.762-1.996l0.883-0.883
			C18.688,4.555,19,3.801,19,3z M4,4h4c0.553,0,1,0.448,1,1S8.553,6,8,6H6v2c0,0.552-0.448,1-1,1C4.447,9,4,8.552,4,8V4z
			 M16.707,3.707L13.414,7H15c0.553,0,1,0.448,1,1s-0.448,1-1,1h-5V4c0-0.552,0.447-1,1-1s1,0.448,1,1v1.586l3.293-3.293
			C15.488,2.098,15.744,2,16,2s0.512,0.098,0.707,0.293C17.098,2.684,17.098,3.316,16.707,3.707z M9,15c0,0.552-0.447,1-1,1
			s-1-0.448-1-1v-1.707l-3.354,3.414C3.451,16.902,3.256,17,3,17s-0.512-0.098-0.707-0.293c-0.391-0.391-0.391-1.023,0-1.414
			L5.586,12H4.121c-0.553,0-1-0.448-1-1s0.447-1,1-1H9V15z M9,9H6.722C6.895,8.705,7,8.366,7,8V7h1.061C8.403,7,8.719,6.906,9,6.755
			V9z M10,10h0.996h1.717C12.28,10.094,12,10.33,12,10.939V12h-0.939c-0.391,0-0.752,0.117-1.061,0.311V10z M10.061,14
			c0-0.552,0.447-1,1-1H13v-2c0-0.552,0.447-1,1-1s1,0.448,1,1v4h-3.939C10.508,15,10.061,14.552,10.061,14z"/>
	</g>
</g>
<g>
</g>
<g>
</g>
<g>
</g>
<g>
</g>
<g>
</g>
<g>
</g>
<g>
</g>
<g>
</g>
<g>
</g>
<g>
</g>
<g>
</g>
<g>
</g>
<g>
</g>
<g>
</g>
<g>
</g>
</svg>
