<?xml version="1.0" encoding="iso-8859-1"?>
<!-- Generator: Adobe Illustrator 18.1.1, SVG Export Plug-In . SVG Version: 6.00 Build 0)  -->
<svg version="1.1" id="Capa_1" xmlns="http://www.w3.org/2000/svg"  x="0px" y="0px"
	 viewBox="0 0 19 19" style="enable-background:new 0 0 19 19;" xml:space="preserve">
<g>
	<g>
		<path style="fill:#030104;" d="M18,11h-6c-0.553,0-1-0.447-1-1s0.447-1,1-1h6c0.553,0,1,0.447,1,1S18.553,11,18,11z"/>
	</g>
	<g>
		<path style="fill:#030104;" d="M11,6c0,1.381-0.56,2.631-1.464,3.535C8.631,10.44,7.381,11,6,11s-2.631-0.56-3.536-1.465
			C1.56,8.631,1,7.381,1,6s0.56-2.631,1.464-3.535C3.369,1.56,4.619,1,6,1s2.631,0.56,3.536,1.465C10.44,3.369,11,4.619,11,6z"/>
	</g>
	<g>
		<g>
			<path style="fill:#030104;" d="M6,12c-3.75,0-6,2-6,4c0,1,2.25,2,6,2c3.518,0,6-1,6-2C12,14,9.646,12,6,12z"/>
		</g>
	</g>
</g>
<g>
</g>
<g>
</g>
<g>
</g>
<g>
</g>
<g>
</g>
<g>
</g>
<g>
</g>
<g>
</g>
<g>
</g>
<g>
</g>
<g>
</g>
<g>
</g>
<g>
</g>
<g>
</g>
<g>
</g>
</svg>
