<?xml version="1.0" encoding="iso-8859-1"?>
<!-- Generator: Adobe Illustrator 18.1.1, SVG Export Plug-In . SVG Version: 6.00 Build 0)  -->
<svg version="1.1" id="Capa_1" xmlns="http://www.w3.org/2000/svg"  x="0px" y="0px"
	 viewBox="0 0 23 23" style="enable-background:new 0 0 23 23;" xml:space="preserve">
<g>
	<g id="Layer_1_119_">
		<g>
			<path style="fill:#030104;" d="M17.994,4.687C17.998,4.625,18,4.562,18,4.5c0-0.801-0.312-1.555-0.879-2.121
				C16.555,1.812,15.801,1.5,15,1.5s-1.555,0.312-2.121,0.879L9.987,5.27C9.457,4.797,8.766,4.5,8,4.5H7c-3.859,0-7,3.14-7,7
				c0,3.306,2.14,6.084,5.006,6.813C5.002,18.375,5,18.438,5,18.5c0,0.801,0.312,1.555,0.879,2.121C6.445,21.188,7.199,21.5,8,21.5
				s1.555-0.312,2.121-0.879l2.892-2.891c0.53,0.473,1.221,0.77,1.987,0.77h1c3.859,0,7-3.14,7-7C23,8.194,20.86,5.416,17.994,4.687
				z M16,16.5h-1c-0.553,0-1-0.448-1-1s0.447-1,1-1h1c1.654,0,3-1.346,3-3s-1.121-3-2.5-3h-2.086l1.293,1.293
				c0.391,0.391,0.391,1.023,0,1.414C15.512,11.402,15.256,11.5,15,11.5s-0.512-0.098-0.707-0.293L10.586,7.5l3.707-3.707
				C14.488,3.598,14.744,3.5,15,3.5c0.256,0,0.512,0.098,0.707,0.293c0.391,0.391,0.391,1.023,0,1.414L14.414,6.5H16.5
				c2.481,0,4.5,2.243,4.5,5S18.757,16.5,16,16.5z M16.749,9.529c0.7,0.164,1.251,1,1.251,1.971c0,1.103-0.897,2-2,2h-1
				c-0.857,0-1.584,0.544-1.868,1.304c-0.011-0.011-3.718-3.718-3.718-3.718C9.036,10.708,8.534,10.5,8,10.5
				s-1.036,0.208-1.414,0.586S6,11.966,6,12.5c0,0.345,0.087,0.677,0.251,0.971C5.551,13.307,5,12.471,5,11.5c0-1.103,0.897-2,2-2h1
				c0.857,0,1.584-0.544,1.868-1.304c0.011,0.011,3.718,3.718,3.718,3.718C13.964,12.292,14.466,12.5,15,12.5
				s1.036-0.208,1.414-0.586S17,11.034,17,10.5C17,10.155,16.913,9.823,16.749,9.529z M9,7.5c0,0.552-0.447,1-1,1H7
				c-1.654,0-3,1.346-3,3s1.121,3,2.5,3h2.086l-1.293-1.293c-0.391-0.391-0.391-1.023,0-1.414C7.488,11.598,7.744,11.5,8,11.5
				s0.512,0.098,0.707,0.293l3.707,3.707l-3.707,3.707C8.512,19.402,8.256,19.5,8,19.5s-0.512-0.098-0.707-0.293
				c-0.391-0.391-0.391-1.023,0-1.414L8.586,16.5H6.5c-2.481,0-4.5-2.243-4.5-5s2.243-5,5-5h1C8.553,6.5,9,6.948,9,7.5z"/>
		</g>
	</g>
</g>
<g>
</g>
<g>
</g>
<g>
</g>
<g>
</g>
<g>
</g>
<g>
</g>
<g>
</g>
<g>
</g>
<g>
</g>
<g>
</g>
<g>
</g>
<g>
</g>
<g>
</g>
<g>
</g>
<g>
</g>
</svg>
