<?xml version="1.0" encoding="iso-8859-1"?>
<!-- Generator: Adobe Illustrator 18.1.1, SVG Export Plug-In . SVG Version: 6.00 Build 0)  -->
<svg version="1.1" id="Capa_1" xmlns="http://www.w3.org/2000/svg" xmlns:xlink="http://www.w3.org/1999/xlink" x="0px" y="0px"
	 viewBox="0 0 17 17" style="enable-background:new 0 0 17 17;" xml:space="preserve">
<g>
	<g id="Layer_1_90_">
		<path style="fill:#030104;" d="M13.5,0h-10c-1.654,0-3,1.346-3,3v11c0,1.654,1.346,3,3,3h10c1.654,0,3-1.346,3-3V3
			C16.5,1.346,15.154,0,13.5,0z M14.5,14c0,0.551-0.448,1-1,1h-10c-0.552,0-1-0.449-1-1V6.72C2.796,6.894,3.135,7,3.5,7H5
			c0,1.93,1.57,3.5,3.5,3.5S12,8.93,12,7h1.5c0.365,0,0.704-0.106,1-0.279V14z M6,7h5c0,1.378-1.121,2.5-2.5,2.5S6,8.378,6,7z
			 M14.5,5c0,0.551-0.448,1-1,1h-10c-0.552,0-1-0.449-1-1V3c0-0.551,0.448-1,1-1h10c0.552,0,1,0.449,1,1V5z"/>
	</g>
</g>
<g>
</g>
<g>
</g>
<g>
</g>
<g>
</g>
<g>
</g>
<g>
</g>
<g>
</g>
<g>
</g>
<g>
</g>
<g>
</g>
<g>
</g>
<g>
</g>
<g>
</g>
<g>
</g>
<g>
</g>
</svg>
