<?xml version="1.0" encoding="iso-8859-1"?>
<!-- Generator: Adobe Illustrator 18.1.1, SVG Export Plug-In . SVG Version: 6.00 Build 0)  -->
<svg version="1.1" id="Capa_1" xmlns="http://www.w3.org/2000/svg" xmlns:xlink="http://www.w3.org/1999/xlink" x="0px" y="0px"
	 viewBox="0 0 20.865 20.865" style="enable-background:new 0 0 20.865 20.865;" xml:space="preserve">
<g>
	<g>
		<path style="fill:#030104;" d="M16.668,2.56c0.084,0,0.168,0.004,0.25,0.013c0.163,0.022,0.319,0.02,0.468,0.077
			c0.146,0.05,0.292,0.084,0.42,0.146c0.254,0.131,0.471,0.262,0.631,0.422c0.174,0.137,0.248,0.279,0.321,0.371
			c0.069,0.096,0.108,0.146,0.108,0.146S18.805,3.71,18.7,3.661c-0.105-0.043-0.258-0.139-0.442-0.16
			c-0.129-0.037-0.282-0.047-0.442-0.047c-0.049,0-0.101,0.001-0.15,0.002c-0.105,0.008-0.217,0.041-0.318,0.061
			c-0.103,0.01-0.201,0.078-0.295,0.113c-0.186,0.088-0.35,0.203-0.461,0.34c-0.023,0.025-0.037,0.049-0.057,0.076
			c0.451,0.477,0.732,1.115,0.732,1.824c0,1.471-1.195,2.668-2.666,2.668c-0.908,0-1.707-0.457-2.189-1.15l-1.657,2.625
			c1.712,1.92,3.22,4.348,3.22,4.348c1.037,1.429-0.789,3.947-0.789,3.947l-3.552-6.522l-3.551,6.522c0,0-1.826-2.52-0.789-3.947
			c0,0,1.507-2.428,3.22-4.348L6.858,7.388c-0.482,0.693-1.283,1.15-2.188,1.15c-1.472,0-2.667-1.197-2.667-2.668
			c0-1.469,1.195-2.666,2.667-2.666c0.925,0,1.739,0.475,2.218,1.193c0.955,1.428,1.739,3.156,2.748,4.334
			c1.008-1.178,1.792-2.906,2.746-4.336c0.48-0.717,1.295-1.191,2.221-1.191c0.063,0,0.123,0.014,0.186,0.018
			c0.092-0.053,0.197-0.115,0.326-0.188c0.117-0.065,0.248-0.14,0.383-0.211c0.132-0.072,0.297-0.107,0.449-0.158
			C16.171,2.595,16.422,2.56,16.668,2.56 M14.599,6.936c0.273,0,0.547-0.104,0.756-0.312c0.416-0.416,0.416-1.092,0-1.508
			c-0.209-0.208-0.481-0.312-0.754-0.312c-0.273,0-0.545,0.104-0.754,0.312l-0.24,0.377c-0.144,0.381-0.066,0.826,0.24,1.131
			C14.054,6.833,14.326,6.936,14.599,6.936 M4.668,6.936c0.272,0,0.545-0.104,0.752-0.312c0.308-0.305,0.382-0.75,0.237-1.131
			L5.42,5.116C5.213,4.908,4.94,4.804,4.667,4.804S4.12,4.908,3.912,5.116c-0.417,0.416-0.417,1.092,0,1.508
			C4.12,6.832,4.394,6.936,4.668,6.936 M9.633,10.698c0.218,0,0.396-0.178,0.396-0.395c0-0.22-0.176-0.396-0.396-0.396
			c-0.219,0-0.394,0.176-0.394,0.396C9.239,10.52,9.415,10.698,9.633,10.698 M16.668,0.56c-0.448,0-0.901,0.066-1.312,0.191
			l-0.117,0.036c-0.168,0.051-0.426,0.126-0.707,0.28c-0.086,0.047-0.18,0.098-0.271,0.148c-1.388,0.102-2.656,0.815-3.467,1.961
			c-0.027,0.034-0.055,0.07-0.079,0.108c-0.39,0.584-0.741,1.192-1.082,1.784c-0.339-0.592-0.69-1.199-1.081-1.784
			C8.526,3.248,8.5,3.211,8.474,3.177C7.597,1.938,6.185,1.203,4.667,1.203C2.093,1.203,0,3.296,0,5.869s2.094,4.668,4.667,4.668
			c0.309,0,0.611-0.03,0.908-0.09c-1.016,1.338-1.777,2.53-1.948,2.803c-1.714,2.467,0.392,5.619,0.835,6.229
			c0.377,0.521,0.98,0.826,1.619,0.826c0.043,0,0.086,0,0.129-0.004c0.686-0.044,1.3-0.437,1.628-1.039l1.795-3.298l1.795,3.298
			c0.328,0.604,0.943,0.995,1.628,1.039c0.043,0.004,0.086,0.004,0.129,0.004c0.639,0,1.241-0.306,1.619-0.826
			c0.443-0.61,2.549-3.764,0.834-6.229c-0.17-0.271-0.932-1.465-1.947-2.803c0.295,0.06,0.601,0.09,0.908,0.09
			c2.573,0,4.668-2.095,4.668-4.668c0-0.06-0.002-0.119-0.004-0.179c0.467-0.096,0.898-0.356,1.2-0.758
			c0.547-0.729,0.536-1.733-0.032-2.445L20.382,2.42c-0.013-0.019-0.025-0.034-0.039-0.053c-0.102-0.146-0.279-0.394-0.572-0.644
			c-0.35-0.326-0.738-0.547-1.045-0.705c-0.275-0.136-0.488-0.201-0.628-0.244l-0.062-0.02c-0.333-0.117-0.622-0.146-0.784-0.16
			l-0.054-0.006c-0.016-0.002-0.068-0.009-0.086-0.01C16.966,0.565,16.817,0.56,16.668,0.56z"/>
	</g>
</g>
<g>
</g>
<g>
</g>
<g>
</g>
<g>
</g>
<g>
</g>
<g>
</g>
<g>
</g>
<g>
</g>
<g>
</g>
<g>
</g>
<g>
</g>
<g>
</g>
<g>
</g>
<g>
</g>
<g>
</g>
</svg>
