<?xml version="1.0" encoding="iso-8859-1"?>
<!-- Generator: Adobe Illustrator 18.1.1, SVG Export Plug-In . SVG Version: 6.00 Build 0)  -->
<svg version="1.1" id="Capa_1" xmlns="http://www.w3.org/2000/svg"  x="0px" y="0px"
	 viewBox="0 0 15.971 15.971" style="enable-background:new 0 0 15.971 15.971;" xml:space="preserve">
<g>
	<g>
		<g>
			<path style="fill:#030104;" d="M4.864,15.971c-0.802,0-1.555-0.312-2.122-0.879c-0.566-0.566-0.878-1.32-0.878-2.121
				s0.312-1.555,0.879-2.122l2.878-2.878L2.743,5.092c-0.567-0.566-0.879-1.32-0.879-2.121s0.312-1.555,0.879-2.122
				C3.876-0.283,5.852-0.284,6.986,0.85l7.121,7.121l-7.122,7.121C6.419,15.659,5.666,15.971,4.864,15.971z M4.864,1.971
				c-0.268,0-0.518,0.104-0.707,0.292c-0.189,0.19-0.293,0.441-0.293,0.708s0.104,0.518,0.293,0.707l4.292,4.293l-4.292,4.293
				c-0.189,0.189-0.293,0.439-0.293,0.707s0.104,0.518,0.293,0.707c0.378,0.379,1.037,0.378,1.414,0.001l5.708-5.708L5.571,2.264
				C5.382,2.075,5.132,1.971,4.864,1.971z"/>
		</g>
	</g>
</g>
<g>
</g>
<g>
</g>
<g>
</g>
<g>
</g>
<g>
</g>
<g>
</g>
<g>
</g>
<g>
</g>
<g>
</g>
<g>
</g>
<g>
</g>
<g>
</g>
<g>
</g>
<g>
</g>
<g>
</g>
</svg>
