<?xml version="1.0" encoding="iso-8859-1"?>
<!-- Generator: Adobe Illustrator 18.1.1, SVG Export Plug-In . SVG Version: 6.00 Build 0)  -->
<svg version="1.1" id="Capa_1" xmlns="http://www.w3.org/2000/svg" xmlns:xlink="http://www.w3.org/1999/xlink" x="0px" y="0px"
	 viewBox="0 0 15.971 15.971" style="enable-background:new 0 0 15.971 15.971;" xml:space="preserve">
<g>
	<g>
		<g>
			<path style="fill:#030104;" d="M11.107,15.971c-0.802,0-1.555-0.312-2.122-0.879L1.864,7.971L8.986,0.85
				c1.133-1.133,3.11-1.133,4.243,0c0.566,0.566,0.878,1.32,0.878,2.121s-0.312,1.555-0.879,2.122L10.35,7.971l2.878,2.879
				c0.567,0.566,0.879,1.32,0.879,2.121s-0.312,1.555-0.879,2.122C12.662,15.659,11.909,15.971,11.107,15.971z M4.692,7.971
				l5.708,5.707c0.378,0.378,1.037,0.377,1.414,0c0.189-0.189,0.293-0.439,0.293-0.707s-0.104-0.518-0.293-0.707L7.522,7.971
				l4.292-4.293c0.189-0.189,0.293-0.44,0.293-0.707s-0.104-0.518-0.293-0.707c-0.378-0.379-1.037-0.378-1.414-0.001L4.692,7.971z"
				/>
		</g>
	</g>
</g>
<g>
</g>
<g>
</g>
<g>
</g>
<g>
</g>
<g>
</g>
<g>
</g>
<g>
</g>
<g>
</g>
<g>
</g>
<g>
</g>
<g>
</g>
<g>
</g>
<g>
</g>
<g>
</g>
<g>
</g>
</svg>
