<?xml version="1.0" encoding="iso-8859-1"?>
<!-- Generator: Adobe Illustrator 18.1.1, SVG Export Plug-In . SVG Version: 6.00 Build 0)  -->
<svg version="1.1" id="Capa_1" xmlns="http://www.w3.org/2000/svg" xmlns:xlink="http://www.w3.org/1999/xlink" x="0px" y="0px"
	 viewBox="0 0 15 15" style="enable-background:new 0 0 15 15;" xml:space="preserve">
<g>
	<path style="fill:#030104;" d="M5.388,12.548l0.371,1.482C5.892,14.563,6.451,15,7.001,15h1c0.55,0,1.109-0.437,1.242-0.97
		l0.371-1.482c0.133-0.533,0.675-0.846,1.203-0.694l1.467,0.42c0.529,0.151,1.188-0.114,1.462-0.591l0.5-0.867
		c0.274-0.477,0.177-1.179-0.219-1.562l-1.098-1.061c-0.396-0.383-0.396-1.008,0.001-1.39l1.096-1.061
		c0.396-0.382,0.494-1.084,0.22-1.561l-0.501-0.867c-0.275-0.477-0.933-0.742-1.461-0.591l-1.467,0.42
		c-0.529,0.151-1.07-0.161-1.204-0.694l-0.37-1.48C9.11,0.437,8.551,0,8.001,0h-1c-0.55,0-1.109,0.437-1.242,0.97l-0.37,1.48
		C5.255,2.983,4.714,3.296,4.185,3.145l-1.467-0.42C2.189,2.573,1.53,2.839,1.256,3.315l-0.5,0.867
		c-0.274,0.477-0.177,1.179,0.22,1.562l1.096,1.059c0.395,0.383,0.395,1.008,0,1.391L0.974,9.255
		C0.579,9.638,0.48,10.34,0.755,10.817l0.501,0.867c0.274,0.477,0.933,0.742,1.462,0.591l1.467-0.42
		C4.713,11.702,5.255,12.015,5.388,12.548z M7.501,5.5c1.104,0,2,0.895,2,2c0,1.104-0.896,2-2,2s-2-0.896-2-2
		C5.501,6.395,6.397,5.5,7.501,5.5z"/>
</g>
<g>
</g>
<g>
</g>
<g>
</g>
<g>
</g>
<g>
</g>
<g>
</g>
<g>
</g>
<g>
</g>
<g>
</g>
<g>
</g>
<g>
</g>
<g>
</g>
<g>
</g>
<g>
</g>
<g>
</g>
</svg>
