<?xml version="1.0" encoding="iso-8859-1"?>
<!-- Generator: Adobe Illustrator 18.1.1, SVG Export Plug-In . SVG Version: 6.00 Build 0)  -->
<svg version="1.1" id="Capa_1" xmlns="http://www.w3.org/2000/svg" xmlns:xlink="http://www.w3.org/1999/xlink" x="0px" y="0px"
	 viewBox="0 0 19 19" style="enable-background:new 0 0 19 19;" xml:space="preserve">
<g>
	<g>
		<path style="fill:#030104;" d="M11.001,2l0.855,3.42l3.389-0.971l1.501,2.6l-2.535,2.449l2.535,2.451l-1.5,2.6l-3.39-0.971
			L11.001,17h-3l-0.855-3.422l-3.39,0.971l-1.501-2.6L4.79,9.498L2.256,7.049l1.5-2.6l3.39,0.971L8.001,2H11.001 M11.001,0h-3
			C7.083,0,6.283,0.625,6.062,1.516L5.708,2.928l-1.4-0.4C4.124,2.475,3.939,2.45,3.756,2.45c-0.7,0-1.368,0.37-1.731,1l-1.5,2.6
			C0.066,6.846,0.208,7.852,0.867,8.488l1.047,1.011l-1.048,1.015c-0.66,0.637-0.802,1.643-0.343,2.438l1.502,2.6
			c0.363,0.631,1.031,1,1.731,1c0.183,0,0.368-0.025,0.552-0.076l1.399-0.401l0.354,1.415C6.283,18.375,7.083,19,8.001,19h3
			c0.918,0,1.718-0.625,1.939-1.516l0.354-1.414l1.399,0.4c0.184,0.053,0.369,0.077,0.552,0.077c0.7,0,1.368-0.37,1.731-1l1.5-2.6
			c0.459-0.796,0.317-1.8-0.342-2.438l-1.047-1.013l1.047-1.013c0.66-0.637,0.801-1.644,0.342-2.438l-1.5-2.6
			c-0.365-0.631-1.031-1-1.732-1c-0.184,0-0.368,0.025-0.551,0.076l-1.4,0.401l-0.354-1.413C12.719,0.625,11.919,0,11.001,0z"/>
	</g>
	<g>
		<path style="fill:#030104;" d="M9.501,7.5c1.104,0,2,0.895,2,2c0,1.104-0.896,2-2,2s-2-0.896-2-2C7.501,8.395,8.397,7.5,9.501,7.5
			 M9.501,6.5c-1.654,0-3,1.346-3,3s1.346,3,3,3s3-1.346,3-3S11.155,6.5,9.501,6.5z"/>
	</g>
</g>
<g>
</g>
<g>
</g>
<g>
</g>
<g>
</g>
<g>
</g>
<g>
</g>
<g>
</g>
<g>
</g>
<g>
</g>
<g>
</g>
<g>
</g>
<g>
</g>
<g>
</g>
<g>
</g>
<g>
</g>
</svg>
