<?xml version="1.0" encoding="iso-8859-1"?>
<!-- Generator: Adobe Illustrator 18.1.1, SVG Export Plug-In . SVG Version: 6.00 Build 0)  -->
<svg version="1.1" id="Capa_1" xmlns="http://www.w3.org/2000/svg"  x="0px" y="0px"
	 viewBox="0 0 18 18" style="enable-background:new 0 0 18 18;" xml:space="preserve">
<g>
	<g>
		<path style="fill:#030104;" d="M1,5.5h3.5c0.736,0,1.393,0.391,1.851,1.001C6.676,5.897,7.08,5.338,7.542,4.839
			C6.739,4.016,5.676,3.5,4.5,3.5H1c-0.553,0-1,0.448-1,1S0.447,5.5,1,5.5z"/>
		<path style="fill:#030104;" d="M8.685,8.611C9.236,6.954,10.941,5.5,12.334,5.5h1.838l-1.293,1.293
			c-0.391,0.391-0.391,1.023,0,1.414C13.074,8.402,13.33,8.5,13.586,8.5s0.512-0.098,0.707-0.293L18,4.5l-3.707-3.707
			c-0.391-0.391-1.023-0.391-1.414,0s-0.391,1.023,0,1.414L14.172,3.5h-1.838c-2.274,0-4.711,1.967-5.547,4.479L6.315,9.39
			C5.674,11.316,4.243,12.5,3.5,12.5H1c-0.553,0-1,0.448-1,1s0.447,1,1,1h2.5c1.837,0,3.863-1.925,4.713-4.479L8.685,8.611z"/>
		<path style="fill:#030104;" d="M12.879,9.793c-0.391,0.391-0.391,1.023,0,1.414l1.293,1.293h-2.338
			c-1.268,0-2.33-0.891-2.691-2.108c-0.256,0.75-0.627,1.499-1.09,2.185c0.886,1.162,2.243,1.923,3.781,1.923h2.338l-1.293,1.293
			c-0.391,0.391-0.391,1.023,0,1.414c0.195,0.195,0.451,0.293,0.707,0.293s0.512-0.098,0.707-0.293L18,13.5l-3.707-3.707
			C13.902,9.402,13.27,9.402,12.879,9.793z"/>
	</g>
</g>
<g>
</g>
<g>
</g>
<g>
</g>
<g>
</g>
<g>
</g>
<g>
</g>
<g>
</g>
<g>
</g>
<g>
</g>
<g>
</g>
<g>
</g>
<g>
</g>
<g>
</g>
<g>
</g>
<g>
</g>
</svg>
