<?xml version="1.0" encoding="iso-8859-1"?>
<!-- Generator: Adobe Illustrator 18.1.1, SVG Export Plug-In . SVG Version: 6.00 Build 0)  -->
<svg version="1.1" id="Capa_1" xmlns="http://www.w3.org/2000/svg"  x="0px" y="0px"
	 viewBox="0 0 18.61 18.61" style="enable-background:new 0 0 18.61 18.61;" xml:space="preserve">
<g>
	<g id="Layer_1_48_">
		<g>
			<path style="fill:#030104;" d="M6.17,2c0.751,0,1.44,0.202,2.069,0.609c0.324-0.08,0.711-0.121,1.157-0.121
				c1.846,0,3.418,0.67,4.717,2.008c1.299,1.339,1.948,2.962,1.948,4.87c0,0.466-0.051,0.953-0.152,1.461
				c0.264,0.589,0.396,1.187,0.396,1.794c0,1.097-0.38,2.036-1.142,2.815c-0.761,0.781-1.668,1.173-2.725,1.173
				c-0.629,0-1.237-0.162-1.825-0.488c-0.527,0.081-0.933,0.122-1.217,0.122c-1.847,0-3.425-0.67-4.733-2.009S2.7,11.272,2.7,9.366
				c0-0.447,0.051-0.902,0.152-1.37C2.488,7.387,2.305,6.708,2.305,5.957c0-1.096,0.376-2.029,1.126-2.799
				C4.181,2.386,5.095,2,6.17,2 M9.305,12.53c-0.406,0-0.729-0.061-0.975-0.183c-0.263-0.142-0.445-0.284-0.547-0.425
				c-0.243-0.447-0.376-0.681-0.396-0.7c-0.081-0.243-0.202-0.447-0.364-0.609C6.82,10.473,6.617,10.4,6.413,10.4
				c-0.284,0-0.517,0.091-0.7,0.274c-0.183,0.182-0.274,0.396-0.274,0.639c0,0.386,0.144,0.801,0.428,1.248
				c0.263,0.405,0.629,0.741,1.096,1.003c0.648,0.346,1.45,0.519,2.404,0.519c0.79,0,1.49-0.122,2.1-0.365
				c0.609-0.284,1.055-0.639,1.339-1.065c0.304-0.467,0.456-0.975,0.456-1.522c0-0.445-0.08-0.852-0.242-1.217
				c-0.163-0.304-0.416-0.578-0.762-0.82c-0.365-0.225-0.75-0.407-1.156-0.548C10.413,8.342,9.924,8.21,9.641,8.15
				c-0.143-0.021-0.32-0.055-0.533-0.107c-0.213-0.05-0.35-0.085-0.41-0.106C8.455,7.857,8.282,7.785,8.18,7.725
				C8.017,7.644,7.886,7.532,7.784,7.389c-0.103-0.1-0.152-0.233-0.152-0.396c0-0.243,0.142-0.455,0.426-0.639
				c0.265-0.203,0.649-0.305,1.156-0.305c0.508,0,0.884,0.092,1.127,0.273c0.263,0.225,0.456,0.478,0.577,0.762
				c0.163,0.264,0.295,0.446,0.396,0.547c0.162,0.123,0.355,0.184,0.578,0.184c0.264,0,0.498-0.102,0.699-0.306
				c0.184-0.181,0.275-0.404,0.275-0.669c0-0.202-0.072-0.467-0.214-0.791c-0.162-0.243-0.376-0.486-0.639-0.729
				c-0.284-0.224-0.659-0.417-1.127-0.579c-0.485-0.143-1.004-0.213-1.552-0.213c-0.73,0-1.38,0.11-1.948,0.335
				c-0.566,0.2-1.003,0.505-1.307,0.911c-0.305,0.406-0.457,0.872-0.457,1.4c0,0.527,0.143,0.984,0.426,1.37
				c0.346,0.405,0.73,0.688,1.156,0.851C7.692,9.619,8.28,9.802,8.97,9.943c0.121,0.021,0.27,0.056,0.441,0.106
				c0.172,0.052,0.324,0.092,0.457,0.123c0.131,0.028,0.238,0.055,0.319,0.075c0.284,0.103,0.517,0.243,0.699,0.427
				c0.183,0.141,0.274,0.354,0.274,0.639c0,0.346-0.162,0.629-0.486,0.853C10.31,12.409,9.853,12.53,9.305,12.53 M6.17,0
				C4.561,0,3.117,0.61,1.996,1.765C0.891,2.899,0.305,4.35,0.305,5.957c0,0.832,0.156,1.619,0.466,2.348
				c-0.047,0.357-0.07,0.713-0.07,1.062c0,2.438,0.853,4.547,2.532,6.267c1.693,1.732,3.768,2.61,6.164,2.61
				c0.254,0,0.547-0.02,0.896-0.06c0.69,0.283,1.409,0.426,2.146,0.426c1.588,0,3.025-0.614,4.157-1.777
				c1.117-1.143,1.709-2.6,1.709-4.211c0-0.677-0.111-1.349-0.332-2.004c0.059-0.427,0.089-0.846,0.089-1.251
				c0-2.437-0.846-4.544-2.513-6.263c-1.685-1.735-3.755-2.615-6.152-2.615c-0.279,0-0.546,0.013-0.801,0.038
				C7.84,0.177,7.028,0,6.17,0z"/>
		</g>
	</g>
</g>
<g>
</g>
<g>
</g>
<g>
</g>
<g>
</g>
<g>
</g>
<g>
</g>
<g>
</g>
<g>
</g>
<g>
</g>
<g>
</g>
<g>
</g>
<g>
</g>
<g>
</g>
<g>
</g>
<g>
</g>
</svg>
