<?xml version="1.0" encoding="iso-8859-1"?>
<!-- Generator: Adobe Illustrator 18.1.1, SVG Export Plug-In . SVG Version: 6.00 Build 0)  -->
<svg version="1.1" id="Capa_1" xmlns="http://www.w3.org/2000/svg"  x="0px" y="0px"
	 viewBox="0 0 18.775 18.775" style="enable-background:new 0 0 18.775 18.775;" xml:space="preserve">
<g>
	<g id="Layer_1_56_">
		<path style="fill:#030104;" d="M16.815,12.522l-2.457-0.503l1.483-0.396c0.533-0.143,0.85-0.69,0.707-1.225
			c-0.142-0.533-0.689-0.85-1.225-0.707l-1.508,0.403c0.037-0.231,0.071-0.464,0.071-0.706s-0.034-0.476-0.071-0.707l1.51,0.404
			c0.087,0.023,0.174,0.034,0.26,0.034c0.441,0,0.846-0.295,0.965-0.741c0.143-0.533-0.174-1.082-0.707-1.225L14.36,6.756
			l2.455-0.502c0.216-0.044,0.42-0.156,0.577-0.333c0.386-0.436,0.347-1.102-0.089-1.488c-0.436-0.386-1.102-0.347-1.488,0.089
			l-1.663,1.874l0.398-1.479c0.144-0.533-0.173-1.082-0.706-1.226c-0.531-0.142-1.082,0.173-1.226,0.706l-0.407,1.517
			c-0.366-0.299-0.771-0.544-1.219-0.717l1.102-1.102c0.391-0.391,0.391-1.023,0-1.414s-1.023-0.391-1.414,0L9.594,3.767
			l0.793-2.379c0.069-0.209,0.075-0.441,0-0.667C10.203,0.169,9.606-0.13,9.054,0.055c-0.552,0.184-0.85,0.78-0.667,1.333
			L9.18,3.767L8.094,2.681c-0.391-0.391-1.023-0.391-1.414,0s-0.391,1.023,0,1.414l1.102,1.102C7.335,5.37,6.929,5.616,6.563,5.914
			L6.158,4.399C6.015,3.865,5.461,3.547,4.934,3.691C4.4,3.834,4.083,4.381,4.226,4.915L4.622,6.4L2.96,4.523
			C2.814,4.359,2.615,4.238,2.382,4.19c-0.57-0.117-1.127,0.25-1.244,0.82S1.389,6.138,1.96,6.255l2.454,0.503l-1.48,0.396
			c-0.533,0.143-0.85,0.691-0.707,1.225C2.346,8.826,2.75,9.12,3.192,9.12c0.086,0,0.173-0.011,0.26-0.034L4.96,8.682
			C4.921,8.913,4.887,9.147,4.887,9.388c0,0.242,0.034,0.475,0.071,0.707L3.45,9.691c-0.532-0.142-1.081,0.173-1.225,0.707
			c-0.144,0.533,0.174,1.082,0.707,1.225l1.483,0.397L1.96,12.522c-0.216,0.044-0.42,0.156-0.577,0.334
			c-0.387,0.436-0.347,1.102,0.089,1.487c0.436,0.387,1.103,0.347,1.488-0.089l1.665-1.878L4.227,13.86
			c-0.144,0.533,0.173,1.082,0.707,1.225c0.087,0.023,0.174,0.034,0.26,0.034c0.441,0,0.845-0.294,0.965-0.741l0.406-1.515
			c0.366,0.298,0.771,0.544,1.22,0.716l-1.104,1.102c-0.391,0.39-0.391,1.023,0,1.414c0.391,0.391,1.023,0.391,1.414,0l0.706-0.707
			h0.252l-0.666,1.999c-0.069,0.209-0.075,0.441,0,0.667c0.184,0.552,0.781,0.851,1.333,0.666c0.553-0.184,0.851-0.78,0.667-1.333
			l-0.666-1.999h0.252l0.707,0.707c0.196,0.195,0.451,0.293,0.707,0.293s0.512-0.098,0.707-0.293c0.391-0.39,0.391-1.023,0-1.414
			l-1.102-1.103c0.448-0.172,0.854-0.418,1.22-0.717l0.406,1.517c0.12,0.447,0.523,0.741,0.965,0.741
			c0.086,0,0.173-0.011,0.26-0.034c0.533-0.143,0.851-0.691,0.707-1.225l-0.397-1.48l1.662,1.874
			c0.146,0.165,0.345,0.285,0.577,0.333c0.57,0.117,1.128-0.251,1.244-0.821C17.753,13.196,17.385,12.639,16.815,12.522z
			 M9.387,11.888c-1.379,0-2.5-1.121-2.5-2.5s1.121-2.5,2.5-2.5s2.5,1.121,2.5,2.5S10.766,11.888,9.387,11.888z"/>
	</g>
</g>
<g>
</g>
<g>
</g>
<g>
</g>
<g>
</g>
<g>
</g>
<g>
</g>
<g>
</g>
<g>
</g>
<g>
</g>
<g>
</g>
<g>
</g>
<g>
</g>
<g>
</g>
<g>
</g>
<g>
</g>
</svg>
