<?xml version="1.0" encoding="iso-8859-1"?>
<!-- Generator: Adobe Illustrator 18.1.1, SVG Export Plug-In . SVG Version: 6.00 Build 0)  -->
<svg version="1.1" id="Capa_1" xmlns="http://www.w3.org/2000/svg" xmlns:xlink="http://www.w3.org/1999/xlink" x="0px" y="0px"
	 viewBox="0 0 22 22" style="enable-background:new 0 0 22 22;" xml:space="preserve">
<g>
	<path style="fill:#030104;" d="M9.895,14.553l-4-8c-0.339-0.678-1.45-0.678-1.789,0l-4,8c-0.247,0.494-0.047,1.095,0.447,1.342
		c0.495,0.248,1.095,0.046,1.342-0.447L2.618,14h4.764l0.724,1.447C8.281,15.798,8.634,16,9.001,16c0.15,0,0.303-0.034,0.446-0.105
		C9.941,15.647,10.142,15.047,9.895,14.553z M3.618,12L5,9.236L6.382,12H3.618z"/>
	<g>
		<path style="fill:#030104;" d="M21,16h-6c-0.379,0-0.725-0.214-0.895-0.553S13.973,14.703,14.2,14.4L19,8h-4c-0.552,0-1-0.448-1-1
			s0.448-1,1-1h6c0.379,0,0.725,0.214,0.895,0.553S22.027,7.297,21.8,7.6L17,14h4c0.552,0,1,0.448,1,1S21.552,16,21,16z"/>
	</g>
	<g>
		<path style="fill:#030104;" d="M13,12h-2c-0.552,0-1-0.448-1-1s0.448-1,1-1h2c0.552,0,1,0.448,1,1S13.552,12,13,12z"/>
	</g>
</g>
<g>
</g>
<g>
</g>
<g>
</g>
<g>
</g>
<g>
</g>
<g>
</g>
<g>
</g>
<g>
</g>
<g>
</g>
<g>
</g>
<g>
</g>
<g>
</g>
<g>
</g>
<g>
</g>
<g>
</g>
</svg>
