<?xml version="1.0" encoding="iso-8859-1"?>
<!-- Generator: Adobe Illustrator 18.1.1, SVG Export Plug-In . SVG Version: 6.00 Build 0)  -->
<svg version="1.1" id="Capa_1" xmlns="http://www.w3.org/2000/svg"  x="0px" y="0px"
	 viewBox="0 0 19 19" style="enable-background:new 0 0 19 19;" xml:space="preserve">
<g>
	<g id="Layer_1_115_">
		<g>
			<circle style="fill:#030104;" cx="5" cy="14" r="1"/>
			<path style="fill:#030104;" d="M17.733,2.657c-0.392-0.378-1.013-0.377-1.399,0.009c0.387-0.386,0.388-1.008,0.01-1.4
				C15.266,0.474,13.939,0,12.5,0C8.91,0,6,2.91,6,6.5c0,0.129,0.023,0.252,0.031,0.379C5.694,7.118,3.138,9.026,1.773,10.18
				C0.638,11.17,0,12.555,0,14c0,2.757,2.243,5,5,5c1.465,0,2.854-0.65,3.811-1.784c1.173-1.375,3.08-3.923,3.317-4.229
				C12.248,12.977,12.371,13,12.5,13c3.59,0,6.5-2.91,6.5-6.5C19,5.06,18.526,3.734,17.733,2.657z M5,17c-1.656,0-3-1.343-3-3
				c0-0.92,0.423-1.732,1.064-2.292C5.432,9.706,6.681,8.96,8.179,7.693C8.074,7.311,8,6.916,8,6.5C8,4.015,10.015,2,12.5,2
				c0.47,0,0.914,0.092,1.339,0.226L11,5l0.5,2.5L14,8l2.805-2.741C16.92,5.655,17,6.066,17,6.5c0,2.485-2.015,4.5-4.5,4.5
				c-0.416,0-0.811-0.074-1.193-0.18c-1.267,1.498-2.013,2.748-4.024,5.105C6.732,16.577,5.92,17,5,17z M16.384,4.271l-2.705,2.645
				L12.35,6.65l-0.263-1.314l2.726-2.663C15.464,3.066,16.003,3.612,16.384,4.271z"/>
		</g>
	</g>
</g>
<g>
</g>
<g>
</g>
<g>
</g>
<g>
</g>
<g>
</g>
<g>
</g>
<g>
</g>
<g>
</g>
<g>
</g>
<g>
</g>
<g>
</g>
<g>
</g>
<g>
</g>
<g>
</g>
<g>
</g>
</svg>
