<?xml version="1.0" encoding="iso-8859-1"?>
<!-- Generator: Adobe Illustrator 18.1.1, SVG Export Plug-In . SVG Version: 6.00 Build 0)  -->
<svg version="1.1" id="Capa_1" xmlns="http://www.w3.org/2000/svg" xmlns:xlink="http://www.w3.org/1999/xlink" x="0px" y="0px"
	 viewBox="0 0 16 16" style="enable-background:new 0 0 16 16;" xml:space="preserve">
<g>
	<path style="fill:#030104;" d="M15.785,3.619c-0.05-0.168-0.184-0.299-0.354-0.344c-0.172-0.047-0.352,0.003-0.477,0.126
		l-2.616,2.557l-1.914-0.383l-0.381-1.907l2.645-2.585c0.126-0.123,0.178-0.303,0.137-0.474s-0.168-0.308-0.336-0.361
		C11.958,0.082,11.471,0,11,0C8.243,0,6,2.243,6,5c0,0.323,0.038,0.65,0.118,1.01C5.556,6.473,5.022,6.872,4.417,7.324
		C3.552,7.97,2.572,8.701,1.235,9.83C0.45,10.516,0,11.489,0,12.5C0,14.43,1.57,16,3.5,16c1.021,0,1.993-0.456,2.662-1.25
		c1.149-1.347,1.891-2.336,2.544-3.209c0.442-0.591,0.832-1.111,1.283-1.66C10.349,9.962,10.677,10,11,10c2.757,0,5-2.243,5-5
		C16,4.563,15.932,4.125,15.785,3.619z M3.5,13.5c-0.553,0-1-0.447-1-1s0.447-1,1-1s1,0.447,1,1C4.5,13.053,4.053,13.5,3.5,13.5z"/>
</g>
<g>
</g>
<g>
</g>
<g>
</g>
<g>
</g>
<g>
</g>
<g>
</g>
<g>
</g>
<g>
</g>
<g>
</g>
<g>
</g>
<g>
</g>
<g>
</g>
<g>
</g>
<g>
</g>
<g>
</g>
</svg>
