<?xml version="1.0" encoding="iso-8859-1"?>
<!-- Generator: Adobe Illustrator 18.1.1, SVG Export Plug-In . SVG Version: 6.00 Build 0)  -->
<svg version="1.1" id="Capa_1" xmlns="http://www.w3.org/2000/svg"  x="0px" y="0px"
	 viewBox="0 0 15.829 15.829" style="enable-background:new 0 0 15.829 15.829;" xml:space="preserve">
<g>
	<g id="Layer_1_70_">
		<path style="fill:#030104;" d="M10.138,0.739c-0.449,0-0.905,0.152-1.356,0.453L6.11,2.973C5.357,3.476,3.904,3.915,3,3.915
			c-1.654,0-3,1.346-3,3v2c0,1.654,1.346,3,3,3c0.904,0,2.357,0.439,3.109,0.941l2.672,1.781c0.451,0.301,0.907,0.453,1.356,0.453
			C11.035,15.091,12,14.41,12,12.915v-10C12,1.42,11.035,0.739,10.138,0.739z M3,9.915c-0.552,0-1-0.448-1-1v-2c0-0.552,0.448-1,1-1
			c1.211,0,2.907-0.495,4-1.146v6.293C5.907,10.41,4.211,9.915,3,9.915z M10,12.915c0,0.046-0.002,0.086-0.006,0.12
			c-0.03-0.016-0.065-0.036-0.104-0.062L8,11.713V4.117l1.891-1.261C9.929,2.831,9.964,2.81,9.995,2.794
			C9.998,2.829,10,2.869,10,2.915V12.915z"/>
		<path style="fill:#030104;" d="M13.292,5.209c-0.39,0.391-0.39,1.023,0.002,1.414c0.345,0.345,0.535,0.803,0.535,1.291
			c0,0.489-0.19,0.948-0.536,1.294c-0.391,0.39-0.391,1.023,0,1.414c0.195,0.195,0.451,0.293,0.707,0.293s0.512-0.098,0.707-0.293
			c0.724-0.723,1.122-1.685,1.122-2.708s-0.398-1.984-1.123-2.707C14.317,4.818,13.683,4.816,13.292,5.209z"/>
	</g>
</g>
<g>
</g>
<g>
</g>
<g>
</g>
<g>
</g>
<g>
</g>
<g>
</g>
<g>
</g>
<g>
</g>
<g>
</g>
<g>
</g>
<g>
</g>
<g>
</g>
<g>
</g>
<g>
</g>
<g>
</g>
</svg>
