<?xml version="1.0" encoding="iso-8859-1"?>
<!-- Generator: Adobe Illustrator 18.1.1, SVG Export Plug-In . SVG Version: 6.00 Build 0)  -->
<svg version="1.1" id="Capa_1" xmlns="http://www.w3.org/2000/svg"  x="0px" y="0px"
	 viewBox="0 0 14.351 14.351" style="enable-background:new 0 0 14.351 14.351;" xml:space="preserve">
<g>
	<g id="Layer_1_45_">
		<path style="fill:#030104;" d="M11.314,0c-0.449,0-0.905,0.152-1.356,0.453L7.286,2.234C6.533,2.737,5.08,3.176,4.176,3.176
			c-1.654,0-3,1.346-3,3v2c0,1.654,1.346,3,3,3c0.904,0,2.357,0.439,3.109,0.941l2.672,1.781c0.451,0.301,0.907,0.453,1.356,0.453
			c0.898,0.001,1.863-0.68,1.863-2.175v-10C13.175,0.681,12.21,0,11.314,0z M8.175,10.322c-1.093-0.651-2.789-1.146-4-1.146
			c-0.552,0-1-0.448-1-1v-2c0-0.552,0.448-1,1-1c1.211,0,2.907-0.495,4-1.146V10.322z M11.175,12.176
			c0,0.046-0.002,0.086-0.006,0.12c-0.03-0.016-0.065-0.036-0.104-0.062l-1.89-1.26V3.378l1.891-1.261
			c0.038-0.025,0.073-0.046,0.104-0.062c0.003,0.035,0.005,0.075,0.005,0.121V12.176z"/>
	</g>
</g>
<g>
</g>
<g>
</g>
<g>
</g>
<g>
</g>
<g>
</g>
<g>
</g>
<g>
</g>
<g>
</g>
<g>
</g>
<g>
</g>
<g>
</g>
<g>
</g>
<g>
</g>
<g>
</g>
<g>
</g>
</svg>
