<?xml version="1.0" encoding="iso-8859-1"?>
<!-- Generator: Adobe Illustrator 18.1.1, SVG Export Plug-In . SVG Version: 6.00 Build 0)  -->
<svg version="1.1" id="Capa_1" xmlns="http://www.w3.org/2000/svg"  x="0px" y="0px"
	 viewBox="0 0 24 24" style="enable-background:new 0 0 24 24;" xml:space="preserve">
<g>
	<g id="Layer_1_51_">
		<path style="fill:#030104;" d="M21,5.5h-3c0-1.65-1.35-3-3-3H3c-1.65,0-3,1.35-3,3v7c0,1.65,1.35,3,3,3v3l3-3c0,1.65,1.35,3,3,3h8
			l3,3v-3h1c1.65,0,3-1.35,3-3v-7C24,6.85,22.65,5.5,21,5.5z M3,13.5c-0.542,0-1-0.458-1-1v-7c0-0.542,0.458-1,1-1h12
			c0.542,0,1,0.458,1,1v1H9.5C8.121,6.5,7,7.621,7,9v4.5H3z M22,15.5c0,0.542-0.458,1-1,1H9c-0.542,0-1-0.458-1-1V9
			c0-0.827,0.673-1.5,1.5-1.5H21c0.542,0,1,0.458,1,1V15.5z"/>
	</g>
</g>
<g>
</g>
<g>
</g>
<g>
</g>
<g>
</g>
<g>
</g>
<g>
</g>
<g>
</g>
<g>
</g>
<g>
</g>
<g>
</g>
<g>
</g>
<g>
</g>
<g>
</g>
<g>
</g>
<g>
</g>
</svg>
