<?xml version="1.0" encoding="iso-8859-1"?>
<!-- Generator: Adobe Illustrator 18.1.1, SVG Export Plug-In . SVG Version: 6.00 Build 0)  -->
<svg version="1.1" id="Capa_1" xmlns="http://www.w3.org/2000/svg"  x="0px" y="0px"
	 viewBox="0 0 18 18" style="enable-background:new 0 0 18 18;" xml:space="preserve">
<g>
	<g>
		<path style="fill:#030104;" d="M15,3c0.542,0,1,0.458,1,1v7c0,0.542-0.458,1-1,1H7H6.171L6,12.171V12H4H3c-0.542,0-1-0.458-1-1V4
			c0-0.542,0.458-1,1-1H15 M15,1H3C1.35,1,0,2.35,0,4v7c0,1.65,1.35,3,3,3h1v3l3-3h8c1.65,0,3-1.35,3-3V4C18,2.35,16.65,1,15,1z"/>
	</g>
</g>
<g>
</g>
<g>
</g>
<g>
</g>
<g>
</g>
<g>
</g>
<g>
</g>
<g>
</g>
<g>
</g>
<g>
</g>
<g>
</g>
<g>
</g>
<g>
</g>
<g>
</g>
<g>
</g>
<g>
</g>
</svg>
