<?xml version="1.0" encoding="iso-8859-1"?>
<!-- Generator: Adobe Illustrator 18.1.1, SVG Export Plug-In . SVG Version: 6.00 Build 0)  -->
<svg version="1.1" id="Capa_1" xmlns="http://www.w3.org/2000/svg"  x="0px" y="0px"
	 viewBox="0 0 25 25" style="enable-background:new 0 0 25 25;" xml:space="preserve">
<g>
	<g id="Layer_1_39_">
		<path style="fill:#030104;" d="M22,12.473c0-2.495-0.818-4.426-2.653-6.259c-0.309-0.309-0.676-0.533-1.073-0.682l-0.946-0.946
			l-3.707-3.707C13.055,0.312,12.301,0,11.5,0S9.945,0.312,9.379,0.879C8.812,1.445,8.5,2.199,8.5,3c0,0.277,0.037,0.549,0.11,0.809
			C7.581,4.27,6.636,4.929,5.783,5.783C3.988,7.576,3,9.961,3,12.5c0,2.495,0.818,4.426,2.653,6.259
			c0.299,0.298,0.652,0.521,1.034,0.669l0.985,0.986l3.707,3.707C11.945,24.688,12.699,25,13.5,25s1.555-0.312,2.121-0.879
			C16.188,23.555,16.5,22.801,16.5,22c0-0.286-0.04-0.566-0.117-0.834c1.031-0.461,1.978-1.121,2.833-1.975
			C21.012,17.397,22,15.011,22,12.473z M12.87,19.957l1.337,1.336c0.391,0.391,0.391,1.023,0,1.414C14.012,22.902,13.756,23,13.5,23
			s-0.512-0.098-0.707-0.293L9.086,19l3.707-3.707C12.988,15.098,13.244,15,13.5,15s0.512,0.098,0.707,0.293
			c0.391,0.391,0.391,1.023,0,1.414l-1.247,1.247c1.351-0.091,2.425-0.59,3.428-1.593c1.039-1.038,1.611-2.419,1.611-3.888
			c0-1.422-0.401-2.351-1.48-3.429c-0.391-0.391-0.391-1.023,0-1.415c0.195-0.195,0.451-0.293,0.708-0.293
			c0.256,0,0.512,0.098,0.707,0.292C19.382,9.075,20,10.524,20,12.472c0,2.004-0.78,3.887-2.197,5.303
			C16.413,19.165,14.793,19.875,12.87,19.957z M12.104,5.018l-1.311-1.311c-0.391-0.391-0.391-1.023,0-1.414
			C10.988,2.098,11.244,2,11.5,2s0.512,0.098,0.707,0.293L15.914,6l-3.707,3.707C12.012,9.902,11.756,10,11.5,10
			s-0.512-0.098-0.707-0.293c-0.391-0.391-0.391-1.023,0-1.414l1.275-1.275C10.703,7.104,9.62,7.602,8.612,8.611
			C7.572,9.65,7,11.031,7,12.5c0,1.422,0.401,2.351,1.48,3.429c0.391,0.391,0.391,1.023,0,1.415
			c-0.195,0.195-0.452,0.293-0.708,0.293s-0.512-0.098-0.707-0.292C5.618,15.897,5,14.448,5,12.5c0-2.004,0.78-3.887,2.197-5.303
			C8.579,5.814,10.19,5.104,12.104,5.018z M9.188,15.222C8.3,14.335,8,13.648,8,12.5c0-1.202,0.468-2.332,1.318-3.181
			C9.381,9.257,9.442,9.197,9.505,9.14c0.033,0.481,0.236,0.93,0.581,1.274C10.464,10.792,10.966,11,11.5,11
			s1.036-0.208,1.414-0.586l2.339-2.339c-0.078,0.596,0.104,1.219,0.56,1.675c0.888,0.887,1.188,1.574,1.188,2.722
			c0,1.202-0.468,2.332-1.318,3.181c-0.062,0.062-0.125,0.123-0.188,0.181c-0.039-0.472-0.241-0.91-0.579-1.248
			C14.536,14.208,14.034,14,13.5,14s-1.036,0.208-1.414,0.586l-2.342,2.342C9.833,16.323,9.651,15.686,9.188,15.222z"/>
	</g>
</g>
<g>
</g>
<g>
</g>
<g>
</g>
<g>
</g>
<g>
</g>
<g>
</g>
<g>
</g>
<g>
</g>
<g>
</g>
<g>
</g>
<g>
</g>
<g>
</g>
<g>
</g>
<g>
</g>
<g>
</g>
</svg>
