<?xml version="1.0" encoding="iso-8859-1"?>
<!-- Generator: Adobe Illustrator 18.1.1, SVG Export Plug-In . SVG Version: 6.00 Build 0)  -->
<svg version="1.1" id="Capa_1" xmlns="http://www.w3.org/2000/svg" xmlns:xlink="http://www.w3.org/1999/xlink" x="0px" y="0px"
	 viewBox="0 0 18.795 18.795" style="enable-background:new 0 0 18.795 18.795;" xml:space="preserve">
<g>
	<g id="Layer_1_67_">
		<g>
			<g>
				<path style="fill:#030104;" d="M10.398,1.398l-1,2.934l-1-2.934C8.21,0.845,8.504,0.246,9.057,0.057
					c0.552-0.188,1.153,0.107,1.341,0.659C10.476,0.946,10.47,1.185,10.398,1.398z"/>
			</g>
			<g>
				<path style="fill:#030104;" d="M1.398,8.398l2.934,1l-2.934,1c-0.553,0.188-1.152-0.106-1.341-0.659
					c-0.188-0.552,0.107-1.153,0.659-1.341C0.946,8.32,1.185,8.326,1.398,8.398z"/>
			</g>
			<g>
				<path style="fill:#030104;" d="M8.398,17.398l1-2.934l1,2.934c0.188,0.553-0.106,1.152-0.659,1.341
					c-0.552,0.188-1.152-0.106-1.341-0.659C8.32,17.85,8.326,17.611,8.398,17.398z"/>
			</g>
			<g>
				<path style="fill:#030104;" d="M17.398,10.396l-2.934-1l2.934-1c0.553-0.188,1.152,0.106,1.341,0.659
					c0.188,0.552-0.106,1.152-0.659,1.341C17.85,10.474,17.611,10.468,17.398,10.396z"/>
			</g>
			<g>
				<path style="fill:#030104;" d="M4.448,3.034l1.367,2.781L3.034,4.448C2.51,4.191,2.294,3.557,2.551,3.034
					c0.258-0.523,0.891-0.739,1.414-0.482C4.183,2.659,4.348,2.832,4.448,3.034z"/>
			</g>
			<g>
				<path style="fill:#030104;" d="M3.034,14.347l2.781-1.367l-1.367,2.781c-0.257,0.523-0.891,0.739-1.414,0.482
					c-0.523-0.258-0.739-0.891-0.482-1.414C2.659,14.611,2.832,14.447,3.034,14.347z"/>
			</g>
			<g>
				<path style="fill:#030104;" d="M14.347,15.761L12.98,12.98l2.781,1.367c0.523,0.257,0.739,0.891,0.482,1.414
					c-0.258,0.523-0.891,0.739-1.414,0.482C14.611,16.136,14.447,15.963,14.347,15.761z"/>
			</g>
			<g>
				<path style="fill:#030104;" d="M15.76,4.446l-2.782,1.368l1.368-2.782c0.257-0.523,0.891-0.739,1.414-0.482
					c0.523,0.258,0.739,0.891,0.481,1.415C16.135,4.182,15.962,4.346,15.76,4.446z"/>
			</g>
			<g>
				<path style="fill:#030104;" d="M9.398,13.898c-2.481,0-4.5-2.019-4.5-4.5s2.019-4.5,4.5-4.5s4.5,2.019,4.5,4.5
					S11.879,13.898,9.398,13.898z M9.398,6.898c-1.379,0-2.5,1.121-2.5,2.5s1.121,2.5,2.5,2.5s2.5-1.121,2.5-2.5
					S10.777,6.898,9.398,6.898z"/>
			</g>
		</g>
	</g>
</g>
<g>
</g>
<g>
</g>
<g>
</g>
<g>
</g>
<g>
</g>
<g>
</g>
<g>
</g>
<g>
</g>
<g>
</g>
<g>
</g>
<g>
</g>
<g>
</g>
<g>
</g>
<g>
</g>
<g>
</g>
</svg>
