<?xml version="1.0" encoding="iso-8859-1"?>
<!-- Generator: Adobe Illustrator 18.1.1, SVG Export Plug-In . SVG Version: 6.00 Build 0)  -->
<svg version="1.1" id="Capa_1" xmlns="http://www.w3.org/2000/svg"  x="0px" y="0px"
	 viewBox="0 0 17 17" style="enable-background:new 0 0 17 17;" xml:space="preserve">
<g>
	<path style="fill:#030104;" d="M15,0H5C3.896,0,3,0.896,3,2v2H2C0.896,4,0,4.896,0,6v9c0,1.104,0.896,2,2,2h9c1.104,0,2-0.896,2-2
		v-1h2c1.104,0,2-0.896,2-2V2C17,0.896,16.104,0,15,0z M2,15V6h3h5.5C10.775,6,11,6.225,11,6.5V12v3H2z M15,12h-3V6.5
		C12,5.673,11.327,5,10.5,5H5V4V2h10V12z"/>
</g>
<g>
</g>
<g>
</g>
<g>
</g>
<g>
</g>
<g>
</g>
<g>
</g>
<g>
</g>
<g>
</g>
<g>
</g>
<g>
</g>
<g>
</g>
<g>
</g>
<g>
</g>
<g>
</g>
<g>
</g>
</svg>
