<?xml version="1.0" encoding="iso-8859-1"?>
<!-- Generator: Adobe Illustrator 18.1.1, SVG Export Plug-In . SVG Version: 6.00 Build 0)  -->
<svg version="1.1" id="Capa_1" xmlns="http://www.w3.org/2000/svg"  x="0px" y="0px"
	 viewBox="0 0 20.971 20.971" style="enable-background:new 0 0 20.971 20.971;" xml:space="preserve">
<g>
	<g>
		<path style="fill:#030104;" d="M17.971,18.485h-10c-1.436,0-3.145-0.88-3.977-2.046l-2.619-3.667
			c-0.629-0.881-1.157-1.621-1.188-1.661c-0.246-0.344-0.249-0.894-0.008-1.241C0.197,9.845,0.74,9.087,1.383,8.184l2.608-3.653
			c0.835-1.167,2.546-2.046,3.98-2.046h10c1.654,0,3,1.346,3,3v10C20.971,17.139,19.625,18.485,17.971,18.485z M2.2,10.484
			c0.215,0.299,0.498,0.696,0.806,1.125l2.618,3.667c0.451,0.633,1.57,1.209,2.348,1.209h10c0.552,0,1-0.45,1-1.001V5.485
			c0-0.551-0.448-1-1-1h-10c-0.776,0-1.897,0.576-2.351,1.209L3.013,9.346C2.701,9.782,2.414,10.184,2.2,10.484z"/>
	</g>
	<path style="fill:#030104;" d="M12.678,10.485l2.646-2.646c0.194-0.194,0.194-0.512,0-0.707c-0.195-0.194-0.513-0.194-0.707,0
		l-2.646,2.646L9.325,7.132c-0.195-0.194-0.513-0.194-0.707,0c-0.195,0.195-0.195,0.513,0,0.707l2.646,2.646l-2.646,2.646
		c-0.195,0.195-0.195,0.513,0,0.707c0.097,0.098,0.225,0.147,0.353,0.147s0.256-0.049,0.354-0.146l2.646-2.647l2.646,2.646
		c0.098,0.098,0.226,0.147,0.354,0.147s0.256-0.049,0.354-0.146c0.194-0.194,0.194-0.512,0-0.707L12.678,10.485z"/>
</g>
<g>
</g>
<g>
</g>
<g>
</g>
<g>
</g>
<g>
</g>
<g>
</g>
<g>
</g>
<g>
</g>
<g>
</g>
<g>
</g>
<g>
</g>
<g>
</g>
<g>
</g>
<g>
</g>
<g>
</g>
</svg>
