<?xml version="1.0" encoding="iso-8859-1"?>
<!-- Generator: Adobe Illustrator 18.1.1, SVG Export Plug-In . SVG Version: 6.00 Build 0)  -->
<svg version="1.1" id="Capa_1" xmlns="http://www.w3.org/2000/svg"  x="0px" y="0px"
	 viewBox="0 0 23 23" style="enable-background:new 0 0 23 23;" xml:space="preserve">
<g>
	<g id="Layer_1_33_">
		<path style="fill:#030104;" d="M20.922,8.594l-6.465-6.535C13.128,0.729,11.37,0,9.5,0S5.872,0.729,4.55,2.051
			C3.134,3.465,2.423,5.407,2.523,7.365C1.861,8.45,1.5,9.695,1.5,10.999c0,1.87,0.729,3.628,2.051,4.95l3.053,2.984l3.482,3.48
			C10.477,22.805,10.988,23,11.5,23s1.023-0.195,1.414-0.586l7-7c0.778-0.778,0.782-2.038,0.008-2.82L19.829,12.5l1.085-1.086
			C21.692,10.636,21.696,9.376,20.922,8.594z M11.5,21l-3.498-3.497l-3.037-2.968c-1.953-1.953-1.953-5.119,0-7.07
			C5.941,6.488,7.221,6,8.5,6s2.559,0.488,3.535,1.465L18.5,14L11.5,21z M13.457,6.059C12.128,4.729,10.37,4,8.5,4
			C7.224,4,6.003,4.347,4.935,4.982c0.241-0.55,0.579-1.067,1.03-1.518C6.941,2.488,8.221,2,9.5,2s2.559,0.488,3.535,1.465L19.5,10
			l-1.078,1.078L13.457,6.059z"/>
		<g>
			<path style="fill:#030104;" d="M8.5,9.499c0.83,0,1.5,0.672,1.5,1.501c0,0.83-0.67,1.499-1.5,1.499S7,11.83,7,11
				C7,10.171,7.67,9.499,8.5,9.499 M8.5,8.499C7.122,8.499,6,9.621,6,11c0,1.378,1.122,2.499,2.5,2.499S11,12.378,11,11
				C11,9.621,9.878,8.499,8.5,8.499z"/>
		</g>
	</g>
</g>
<g>
</g>
<g>
</g>
<g>
</g>
<g>
</g>
<g>
</g>
<g>
</g>
<g>
</g>
<g>
</g>
<g>
</g>
<g>
</g>
<g>
</g>
<g>
</g>
<g>
</g>
<g>
</g>
<g>
</g>
</svg>
