<?xml version="1.0" encoding="iso-8859-1"?>
<!-- Generator: Adobe Illustrator 18.1.1, SVG Export Plug-In . SVG Version: 6.00 Build 0)  -->
<svg version="1.1" id="Capa_1" xmlns="http://www.w3.org/2000/svg" xmlns:xlink="http://www.w3.org/1999/xlink" x="0px" y="0px"
	 viewBox="0 0 18 18" style="enable-background:new 0 0 18 18;" xml:space="preserve">
<g>
	<path style="fill:#030104;" d="M16,14H2c-1.103,0-2,0.897-2,2s0.897,2,2,2h14c1.103,0,2-0.897,2-2S17.103,14,16,14z"/>
	<path style="fill:#030104;" d="M16,7H2C0.897,7,0,7.897,0,9s0.897,2,2,2h14c1.103,0,2-0.897,2-2S17.103,7,16,7z"/>
	<path style="fill:#030104;" d="M16,0H2C0.897,0,0,0.897,0,2s0.897,2,2,2h14c1.103,0,2-0.897,2-2S17.103,0,16,0z"/>
</g>
<g>
</g>
<g>
</g>
<g>
</g>
<g>
</g>
<g>
</g>
<g>
</g>
<g>
</g>
<g>
</g>
<g>
</g>
<g>
</g>
<g>
</g>
<g>
</g>
<g>
</g>
<g>
</g>
<g>
</g>
</svg>
