<?xml version="1.0" encoding="iso-8859-1"?>
<!-- Generator: Adobe Illustrator 18.1.1, SVG Export Plug-In . SVG Version: 6.00 Build 0)  -->
<svg version="1.1" id="Capa_1" xmlns="http://www.w3.org/2000/svg" xmlns:xlink="http://www.w3.org/1999/xlink" x="0px" y="0px"
	 viewBox="0 0 18 18" style="enable-background:new 0 0 18 18;" xml:space="preserve">
<g>
	<g id="Layer_1_68_">
		<path style="fill:#030104;" d="M9,0C4.029,0,0,4.029,0,9s4.029,9,9,9s9-4.029,9-9S13.971,0,9,0z M9,6c0-0.553,0.447-1,1-1
			s1,0.447,1,1v3c-0.552,0-1,0.448-1,1s0.448,1,1,1c0.553,0,1-0.448,1-1h1V8l1,1l-1,1c0,3,0,3-2,4c0-1-1-1-3-1v-2L6,9V7C5,7,5,8,5,8
			L4.439,7.439L2.787,5.788C3.954,3.541,6.299,2,9,2c0.688,0,1.353,0.104,1.981,0.29C10.895,3.185,10.402,4,9.5,4C8.5,4,8,5,8,6
			s0,3,0,3S9,9,9,6z M9,16c-3.859,0-7-3.14-7-7c0-0.776,0.133-1.521,0.367-2.219l1.926,1.926l1,1L7,11.414V13c0,0.552,0.447,1,1,1
			c0.779,0,1.651,0,2.006,0.091c0.038,0.301,0.209,0.582,0.468,0.742c0.168,0.104,0.36,0.16,0.552,0.16
			c0.145,0,0.289-0.032,0.422-0.098c2.348-1.174,2.539-1.644,2.552-4.479l0.708-0.708c0.391-0.391,0.391-1.023,0-1.414l-1-1
			C13.516,7.102,13.26,7,13,7c-0.129,0-0.259,0.025-0.383,0.076C12.244,7.231,12,7.596,12,8V6c0-0.689-0.351-1.298-0.883-1.658
			c0.421-0.411,0.712-0.995,0.826-1.685C14.335,3.772,16,6.192,16,9C16,12.86,12.859,16,9,16z"/>
	</g>
</g>
<g>
</g>
<g>
</g>
<g>
</g>
<g>
</g>
<g>
</g>
<g>
</g>
<g>
</g>
<g>
</g>
<g>
</g>
<g>
</g>
<g>
</g>
<g>
</g>
<g>
</g>
<g>
</g>
<g>
</g>
</svg>
