<?xml version="1.0" encoding="iso-8859-1"?>
<!-- Generator: Adobe Illustrator 18.1.1, SVG Export Plug-In . SVG Version: 6.00 Build 0)  -->
<svg version="1.1" id="Capa_1" xmlns="http://www.w3.org/2000/svg" xmlns:xlink="http://www.w3.org/1999/xlink" x="0px" y="0px"
	 viewBox="0 0 17.021 17.021" style="enable-background:new 0 0 17.021 17.021;" xml:space="preserve">
<g>
	<path style="fill:#030104;" d="M16.436,4.599l-3.998-4.02c-0.752-0.756-2.063-0.764-2.83-0.006C9.412,0.769,9.258,1.009,9.19,1.202
		C8.537,2.564,7.836,3.417,6.936,3.929L6.719,4.034C5.751,4.519,4.434,5.013,2,5.013c-0.266,0-0.521,0.052-0.766,0.152
		C0.75,5.367,0.355,5.76,0.152,6.249c-0.199,0.484-0.199,1.041,0,1.525c0.104,0.249,0.25,0.471,0.435,0.651l3.235,3.235L0,17.013
		l5.352-3.822l3.227,3.227c0.186,0.189,0.406,0.339,0.656,0.441c0.247,0.103,0.503,0.154,0.766,0.154s0.519-0.052,0.765-0.154
		c0.498-0.205,0.883-0.592,1.08-1.078c0.103-0.242,0.155-0.507,0.155-0.768c0-2.436,0.494-3.752,0.978-4.721
		c0.496-0.992,1.369-1.748,2.754-2.414c0.271-0.104,0.51-0.256,0.711-0.457C17.216,6.639,17.212,5.37,16.436,4.599z M11.188,9.4
		c-0.819,1.643-1.188,3.37-1.195,5.604L2,7.013c2.139,0,3.814-0.335,5.396-1.084l0.235-0.105c1.399-0.699,2.468-1.893,3.388-3.834
		l3.924,4.051C13.08,6.934,11.887,8.001,11.188,9.4z"/>
</g>
<g>
</g>
<g>
</g>
<g>
</g>
<g>
</g>
<g>
</g>
<g>
</g>
<g>
</g>
<g>
</g>
<g>
</g>
<g>
</g>
<g>
</g>
<g>
</g>
<g>
</g>
<g>
</g>
<g>
</g>
</svg>
