<?xml version="1.0" encoding="iso-8859-1"?>
<!-- Generator: Adobe Illustrator 18.1.1, SVG Export Plug-In . SVG Version: 6.00 Build 0)  -->
<svg version="1.1" id="Capa_1" xmlns="http://www.w3.org/2000/svg" xmlns:xlink="http://www.w3.org/1999/xlink" x="0px" y="0px"
	 viewBox="0 0 18 18" style="enable-background:new 0 0 18 18;" xml:space="preserve">
<g>
	<path style="fill:#030104;" d="M16.069,6.676c-0.391-0.144-2.512-0.406-3.883-0.56c0.215-1.255,0.313-2.405,0.313-3.616
		c0-1.379-1.122-2.5-2.5-2.5s-2.5,1.121-2.5,2.5c0,1.875-0.666,2.738-1.616,3.699C5.335,5.477,4.476,5,3.499,5c-1.654,0-3,1.346-3,3
		v6c0,1.654,1.346,3,3,3c0.755,0,1.438-0.29,1.965-0.752c0.064,0.062,0.117,0.141,0.188,0.193C6.612,17.177,9.319,18,11.5,18
		c1.879,0,2.608-0.293,3.253-0.553c0.104-0.041,0.207-0.084,0.316-0.123c0.834-0.305,1.576-1.227,1.736-2.2l0.666-5.974
		C17.644,8.113,17.028,7.025,16.069,6.676z M3.499,15c-0.551,0-1-0.448-1-1V8c0-0.552,0.449-1,1-1s1,0.448,1,1v6
		C4.499,14.552,4.05,15,3.499,15z M14.826,14.85c-0.037,0.224-0.292,0.541-0.443,0.596c-0.131,0.049-0.254,0.099-0.376,0.146
		C13.462,15.811,12.991,16,11.499,16c-1.914,0-4.118-0.753-4.632-1.146C6.709,14.734,6.499,14.29,6.499,14V9.02
		C6.502,8.973,6.55,8.364,7.206,7.708C8.119,6.794,9.499,5.414,9.499,2.5c0-0.275,0.225-0.5,0.5-0.5s0.5,0.225,0.5,0.5
		c0,1.407-0.146,2.73-0.479,4.293L9.723,8.189l1.321-0.188c0.603,0.05,3.933,0.447,4.334,0.55c0.058,0.03,0.132,0.183,0.111,0.323
		L14.826,14.85z"/>
</g>
<g>
</g>
<g>
</g>
<g>
</g>
<g>
</g>
<g>
</g>
<g>
</g>
<g>
</g>
<g>
</g>
<g>
</g>
<g>
</g>
<g>
</g>
<g>
</g>
<g>
</g>
<g>
</g>
<g>
</g>
</svg>
