<?xml version="1.0" encoding="iso-8859-1"?>
<!-- Generator: Adobe Illustrator 18.1.1, SVG Export Plug-In . SVG Version: 6.00 Build 0)  -->
<svg version="1.1" id="Capa_1" xmlns="http://www.w3.org/2000/svg" xmlns:xlink="http://www.w3.org/1999/xlink" x="0px" y="0px"
	 viewBox="0 0 18.002 18.002" style="enable-background:new 0 0 18.002 18.002;" xml:space="preserve">
<g>
	<path style="fill:#030104;" d="M14.501,1c-0.755,0-1.438,0.289-1.965,0.751c-0.064-0.062-0.116-0.14-0.188-0.192
		C11.388,0.822,8.683,0,6.501,0C4.622,0,3.894,0.293,3.249,0.552C3.146,0.594,3.042,0.637,2.933,0.676
		c-0.834,0.305-1.578,1.229-1.738,2.2L0.531,8.848c-0.174,1.039,0.441,2.127,1.4,2.478c0.394,0.144,2.512,0.405,3.883,0.56
		c-0.215,1.256-0.312,2.405-0.312,3.616c0,1.379,1.121,2.5,2.5,2.5s2.5-1.121,2.5-2.5c0-1.875,0.667-2.737,1.616-3.699
		c0.548,0.724,1.408,1.199,2.384,1.199c1.653,0,2.999-1.347,2.999-3v-6C17.5,2.346,16.155,1,14.501,1z M8.501,15.5
		c0,0.275-0.225,0.5-0.5,0.5c-0.275,0-0.5-0.225-0.5-0.5c0-1.805,0.256-3.241,0.479-4.293l0.297-1.398L6.956,9.997
		C6.351,9.947,3.022,9.55,2.621,9.445c-0.058-0.028-0.132-0.18-0.108-0.321l0.663-5.976c0.037-0.223,0.291-0.539,0.443-0.594
		C3.75,2.505,3.873,2.455,3.996,2.408C4.54,2.189,5.011,2,6.502,2c1.914,0,4.118,0.753,4.633,1.146
		C11.291,3.266,11.501,3.71,11.501,4v4.977c-0.001,0.026-0.04,0.649-0.707,1.316C9.881,11.206,8.501,12.586,8.501,15.5z M15.501,10
		c0,0.552-0.448,1-1,1s-1-0.448-1-1V4c0-0.552,0.448-1,1-1s1,0.448,1,1V10z"/>
</g>
<g>
</g>
<g>
</g>
<g>
</g>
<g>
</g>
<g>
</g>
<g>
</g>
<g>
</g>
<g>
</g>
<g>
</g>
<g>
</g>
<g>
</g>
<g>
</g>
<g>
</g>
<g>
</g>
<g>
</g>
</svg>
