<?xml version="1.0" encoding="iso-8859-1"?>
<!-- Generator: Adobe Illustrator 18.1.1, SVG Export Plug-In . SVG Version: 6.00 Build 0)  -->
<svg version="1.1" id="Capa_1" xmlns="http://www.w3.org/2000/svg" xmlns:xlink="http://www.w3.org/1999/xlink" x="0px" y="0px"
	 viewBox="0 0 20.524 20.524" style="enable-background:new 0 0 20.524 20.524;" xml:space="preserve">
<g>
	<g id="Layer_1_61_">
		<path style="fill:#030104;" d="M19.651,6.319l-5.364-5.364c-1.128-1.128-3.111-1.136-4.248-0.018L0.891,9.939
			C0.32,10.501,0.004,11.252,0,12.054c-0.003,0.803,0.307,1.556,0.873,2.121l5.365,5.365c0.567,0.567,1.325,0.88,2.133,0.88
			c0.799,0,1.551-0.307,2.115-0.862l9.147-9.003c0.571-0.562,0.888-1.313,0.891-2.115C20.527,7.638,20.217,6.885,19.651,6.319z
			 M18.23,9.13l-9.146,9.003c-0.381,0.373-1.056,0.37-1.432-0.006l-1.275-1.275c0.71-0.785,0.693-1.994-0.062-2.752
			c-0.758-0.757-1.968-0.773-2.752-0.063l-1.275-1.274C2.102,12.576,2,12.328,2.001,12.064s0.105-0.513,0.293-0.697l9.148-9.002
			c0.189-0.186,0.441-0.288,0.713-0.288c0.273,0,0.529,0.104,0.719,0.294l1.275,1.275c-0.711,0.785-0.694,1.994,0.062,2.751
			c0.758,0.757,1.967,0.773,2.752,0.063l1.274,1.274c0.187,0.187,0.288,0.435,0.287,0.699S18.419,8.945,18.23,9.13z"/>
		<g>
			<path style="fill:#030104;" d="M9.767,15.29L5.11,10.634l5.649-5.429l4.657,4.656L9.767,15.29z M6.537,10.647l3.243,3.242
				l4.206-4.041l-3.241-3.242L6.537,10.647z"/>
		</g>
	</g>
</g>
<g>
</g>
<g>
</g>
<g>
</g>
<g>
</g>
<g>
</g>
<g>
</g>
<g>
</g>
<g>
</g>
<g>
</g>
<g>
</g>
<g>
</g>
<g>
</g>
<g>
</g>
<g>
</g>
<g>
</g>
</svg>
