<?xml version="1.0" encoding="iso-8859-1"?>
<!-- Generator: Adobe Illustrator 18.1.1, SVG Export Plug-In . SVG Version: 6.00 Build 0)  -->
<svg version="1.1" id="Capa_1" xmlns="http://www.w3.org/2000/svg" xmlns:xlink="http://www.w3.org/1999/xlink" x="0px" y="0px"
	 viewBox="0 0 18 18" style="enable-background:new 0 0 18 18;" xml:space="preserve">
<g>
	<g id="Layer_1_71_">
		<g>
			<g>
				<path style="fill:#030104;" d="M11.377,12.59v-1.234c-0.399,0.268-0.788,0.4-1.166,0.4c-0.178,0-0.377-0.057-0.6-0.166
					C9.477,11.5,9.4,11.401,9.377,11.289c-0.066-0.133-0.1-0.422-0.1-0.867V8.456h1.834V7.223H9.277V5.256H8.211
					c-0.089,0.467-0.178,0.8-0.267,1C7.834,6.5,7.656,6.723,7.411,6.922c-0.245,0.201-0.5,0.345-0.767,0.434v1.101h0.833v2.7
					c0,0.311,0.044,0.576,0.134,0.799c0.066,0.178,0.199,0.355,0.4,0.533c0.154,0.156,0.377,0.289,0.666,0.4
					c0.355,0.09,0.666,0.133,0.934,0.133c0.311,0,0.6-0.033,0.866-0.1C10.789,12.855,11.089,12.744,11.377,12.59"/>
			</g>
		</g>
		<g>
			<path style="fill:#030104;" d="M9,18c-4.963,0-9-4.037-9-9s4.037-9,9-9s9,4.037,9,9S13.963,18,9,18z M9,2C5.141,2,2,5.141,2,9
				s3.141,7,7,7s7-3.141,7-7S12.859,2,9,2z"/>
		</g>
	</g>
</g>
<g>
</g>
<g>
</g>
<g>
</g>
<g>
</g>
<g>
</g>
<g>
</g>
<g>
</g>
<g>
</g>
<g>
</g>
<g>
</g>
<g>
</g>
<g>
</g>
<g>
</g>
<g>
</g>
<g>
</g>
</svg>
