<?xml version="1.0" encoding="iso-8859-1"?>
<!-- Generator: Adobe Illustrator 18.1.1, SVG Export Plug-In . SVG Version: 6.00 Build 0)  -->
<svg version="1.1" id="Capa_1" xmlns="http://www.w3.org/2000/svg" xmlns:xlink="http://www.w3.org/1999/xlink" x="0px" y="0px"
	 viewBox="0 0 13 13" style="enable-background:new 0 0 13 13;" xml:space="preserve">
<g>
	<g>
		<g>
			<path style="fill:#030104;" d="M10.462,12.277v-2.066c-0.669,0.448-1.32,0.67-1.952,0.67c-0.298,0-0.631-0.094-1.004-0.277
				c-0.223-0.151-0.354-0.317-0.393-0.503c-0.11-0.224-0.178-0.708-0.178-1.454V5.356h3v-2h-3V0H5.162
				C5.013,0.782,4.864,1.338,4.714,1.673C4.53,2.083,4.232,2.455,3.823,2.789C3.412,3.126,2.986,3.366,2.538,3.514v1.842h1.396
				v4.521c0,0.52,0.073,0.964,0.223,1.337c0.111,0.298,0.334,0.595,0.671,0.893c0.259,0.262,0.631,0.484,1.115,0.67
				C6.538,12.927,7.057,13,7.505,13c0.52,0,1.004-0.056,1.45-0.167C9.476,12.721,9.978,12.535,10.462,12.277"/>
		</g>
	</g>
</g>
<g>
</g>
<g>
</g>
<g>
</g>
<g>
</g>
<g>
</g>
<g>
</g>
<g>
</g>
<g>
</g>
<g>
</g>
<g>
</g>
<g>
</g>
<g>
</g>
<g>
</g>
<g>
</g>
<g>
</g>
</svg>
