<?xml version="1.0" encoding="iso-8859-1"?>
<!-- Generator: Adobe Illustrator 18.1.1, SVG Export Plug-In . SVG Version: 6.00 Build 0)  -->
<svg version="1.1" id="Capa_1" xmlns="http://www.w3.org/2000/svg" xmlns:xlink="http://www.w3.org/1999/xlink" x="0px" y="0px"
	 viewBox="0 0 18.001 18.001" style="enable-background:new 0 0 18.001 18.001;" xml:space="preserve">
<g>
	<g>
		<path style="fill:#030104;" d="M15.891,4.013c0.808-0.496,1.343-1.173,1.605-2.034c-0.786,0.417-1.569,0.703-2.351,0.861
			c-0.703-0.756-1.593-1.14-2.66-1.14c-1.043,0-1.924,0.366-2.643,1.078C9.127,3.495,8.766,4.366,8.766,5.383
			c0,0.309,0.039,0.585,0.117,0.819C5.807,6.097,3.261,4.821,1.255,2.365c-0.34,0.601-0.51,1.213-0.51,1.846
			c0,1.301,0.549,2.332,1.645,3.089C1.765,7.247,1.214,7.089,0.745,6.83c0,0.929,0.273,1.705,0.82,2.388
			c0.549,0.676,1.254,1.107,2.115,1.291c-0.312,0.08-0.641,0.118-0.979,0.118c-0.312,0-0.533-0.026-0.664-0.083
			c0.23,0.757,0.664,1.371,1.291,1.841c0.625,0.472,1.344,0.721,2.152,0.743c-1.332,1.045-2.855,1.562-4.578,1.562
			c-0.422,0-0.721-0.006-0.902-0.038c1.697,1.102,3.586,1.649,5.676,1.649c2.139,0,4.029-0.542,5.674-1.626
			c1.645-1.078,2.859-2.408,3.639-3.974c0.784-1.564,1.172-3.192,1.172-4.892V5.341c0.758-0.57,1.371-1.212,1.84-1.921
			C17.321,3.713,16.618,3.912,15.891,4.013z"/>
	</g>
</g>
<g>
</g>
<g>
</g>
<g>
</g>
<g>
</g>
<g>
</g>
<g>
</g>
<g>
</g>
<g>
</g>
<g>
</g>
<g>
</g>
<g>
</g>
<g>
</g>
<g>
</g>
<g>
</g>
<g>
</g>
</svg>
