<?xml version="1.0" encoding="iso-8859-1"?>
<!-- Generator: Adobe Illustrator 18.1.1, SVG Export Plug-In . SVG Version: 6.00 Build 0)  -->
<svg version="1.1" id="Capa_1" xmlns="http://www.w3.org/2000/svg" xmlns:xlink="http://www.w3.org/1999/xlink" x="0px" y="0px"
	 viewBox="0 0 18 18" style="enable-background:new 0 0 18 18;" xml:space="preserve">
<g>
	<g id="Layer_1_59_">
		<g>
			<path style="fill:#030104;" d="M12.279,7.283c0.358-0.221,0.597-0.521,0.713-0.904c-0.349,0.186-0.697,0.312-1.045,0.383
				c-0.312-0.336-0.708-0.507-1.182-0.507c-0.464,0-0.855,0.163-1.175,0.479C9.273,7.052,9.112,7.44,9.112,7.892
				c0,0.137,0.017,0.26,0.052,0.364C7.796,8.208,6.665,7.642,5.773,6.55C5.622,6.817,5.546,7.089,5.546,7.37
				c0,0.578,0.244,1.036,0.73,1.373C5.999,8.72,5.755,8.649,5.546,8.534c0,0.413,0.121,0.758,0.365,1.062
				c0.243,0.3,0.557,0.492,0.939,0.573c-0.139,0.036-0.285,0.053-0.435,0.053c-0.14,0-0.237-0.012-0.296-0.037
				c0.104,0.337,0.296,0.609,0.574,0.818c0.277,0.21,0.597,0.32,0.957,0.33c-0.591,0.465-1.269,0.694-2.035,0.694
				c-0.188,0-0.32-0.002-0.4-0.017c0.754,0.489,1.594,0.733,2.521,0.733c0.951,0,1.792-0.241,2.522-0.723
				c0.73-0.479,1.271-1.07,1.617-1.767c0.348-0.695,0.521-1.419,0.521-2.174V7.87c0.336-0.253,0.609-0.538,0.818-0.854
				C12.916,7.149,12.603,7.238,12.279,7.283z"/>
		</g>
		<g>
			<g>
				<path style="fill:#030104;" d="M9,18c-2.49,0-4.635-0.89-6.376-2.646C0.883,13.603,0,11.465,0,9
					c0-2.488,0.884-4.634,2.627-6.375C4.367,0.884,6.511,0,9,0c2.466,0,4.604,0.883,6.354,2.624C17.11,4.366,18,6.512,18,9
					c0,2.465-0.889,4.604-2.644,6.357C13.605,17.11,11.467,18,9,18z M9,2C7.034,2,5.412,2.667,4.042,4.04C2.667,5.412,2,7.034,2,9
					c0,1.944,0.668,3.562,2.043,4.945C5.415,15.328,7.036,16,9,16c1.943,0,3.56-0.673,4.942-2.057C15.327,12.559,16,10.941,16,9
					c0-1.963-0.672-3.585-2.055-4.957C12.562,2.668,10.945,2,9,2z"/>
			</g>
		</g>
	</g>
</g>
<g>
</g>
<g>
</g>
<g>
</g>
<g>
</g>
<g>
</g>
<g>
</g>
<g>
</g>
<g>
</g>
<g>
</g>
<g>
</g>
<g>
</g>
<g>
</g>
<g>
</g>
<g>
</g>
<g>
</g>
</svg>
