<?xml version="1.0" encoding="iso-8859-1"?>
<!-- Generator: Adobe Illustrator 18.1.1, SVG Export Plug-In . SVG Version: 6.00 Build 0)  -->
<svg version="1.1" id="Capa_1" xmlns="http://www.w3.org/2000/svg" xmlns:xlink="http://www.w3.org/1999/xlink" x="0px" y="0px"
	 viewBox="0 0 19 19" style="enable-background:new 0 0 19 19;" xml:space="preserve">
<g>
	<path style="fill:#030104;" d="M16,1.5H3c-1.65,0-3,1.35-3,3v7c0,1.65,1.35,3,3,3h1v3l3-3h9c1.65,0,3-1.35,3-3v-7
		C19,2.85,17.65,1.5,16,1.5z M17,11.5c0,0.542-0.458,1-1,1H3c-0.542,0-1-0.458-1-1v-7c0-0.542,0.458-1,1-1h13c0.542,0,1,0.458,1,1
		V11.5z"/>
	<g>
		<path style="fill:#030104;" d="M5,10c-1.104,0-2-0.896-2-2s0.896-2,2-2s2,0.896,2,2S6.104,10,5,10z M5,7C4.448,7,4,7.448,4,8
			s0.448,1,1,1s1-0.448,1-1S5.552,7,5,7z"/>
	</g>
	<g>
		<path style="fill:#030104;" d="M9.5,10c-1.104,0-2-0.896-2-2s0.896-2,2-2s2,0.896,2,2S10.604,10,9.5,10z M9.5,7
			c-0.552,0-1,0.448-1,1s0.448,1,1,1s1-0.448,1-1S10.052,7,9.5,7z"/>
	</g>
	<g>
		<path style="fill:#030104;" d="M14,10c-1.104,0-2-0.896-2-2s0.896-2,2-2s2,0.896,2,2S15.104,10,14,10z M14,7c-0.552,0-1,0.448-1,1
			s0.448,1,1,1s1-0.448,1-1S14.552,7,14,7z"/>
	</g>
</g>
<g>
</g>
<g>
</g>
<g>
</g>
<g>
</g>
<g>
</g>
<g>
</g>
<g>
</g>
<g>
</g>
<g>
</g>
<g>
</g>
<g>
</g>
<g>
</g>
<g>
</g>
<g>
</g>
<g>
</g>
</svg>
