<?xml version="1.0" encoding="iso-8859-1"?>
<!-- Generator: Adobe Illustrator 18.1.1, SVG Export Plug-In . SVG Version: 6.00 Build 0)  -->
<svg version="1.1" id="Capa_1" xmlns="http://www.w3.org/2000/svg" xmlns:xlink="http://www.w3.org/1999/xlink" x="0px" y="0px"
	 viewBox="0 0 17 17" style="enable-background:new 0 0 17 17;" xml:space="preserve">
<g>
	<g>
		<circle style="fill:#030104;" cx="7" cy="13" r="1.3"/>
	</g>
	<path style="fill:#030104;" d="M13,0c-2.206,0-4,1.794-4,4v2v1H5V6H2C0.896,6,0,6.896,0,8v7c0,1.104,0.896,2,2,2h10
		c1.104,0,2-0.896,2-2V8c0-1.104-0.896-2-2-2h-1V4c0-1.104,0.896-2,2-2s2,0.896,2,2v3c0,0.552,0.448,1,1,1s1-0.448,1-1V4
		C17,1.794,15.206,0,13,0z M12,15H2V8h10.003L12,15z"/>
</g>
<g>
</g>
<g>
</g>
<g>
</g>
<g>
</g>
<g>
</g>
<g>
</g>
<g>
</g>
<g>
</g>
<g>
</g>
<g>
</g>
<g>
</g>
<g>
</g>
<g>
</g>
<g>
</g>
<g>
</g>
</svg>
