<?xml version="1.0" encoding="iso-8859-1"?>
<!-- Generator: Adobe Illustrator 18.1.1, SVG Export Plug-In . SVG Version: 6.00 Build 0)  -->
<svg version="1.1" id="Capa_1" xmlns="http://www.w3.org/2000/svg" xmlns:xlink="http://www.w3.org/1999/xlink" x="0px" y="0px"
	 viewBox="0 0 19.242 19.242" style="enable-background:new 0 0 19.242 19.242;" xml:space="preserve">
<g>
	<g>
		<path style="fill:#030104;" d="M9.621,19.242c-1.654,0-3-1.346-3-3v-4.764c-1.143,1.024-3.025,0.979-4.121-0.115
			c-1.17-1.169-1.17-3.073,0-4.242L9.621,0l7.121,7.121c1.17,1.169,1.17,3.073,0,4.242c-1.094,1.095-2.979,1.14-4.121,0.115v4.764
			C12.621,17.896,11.275,19.242,9.621,19.242z M8.621,6.656v9.586c0,0.551,0.448,1,1,1s1-0.449,1-1V6.656l3.293,3.293
			c0.379,0.378,1.035,0.378,1.414,0c0.391-0.391,0.391-1.023,0-1.414L9.621,2.828L3.914,8.535c-0.391,0.391-0.391,1.023,0,1.414
			c0.379,0.378,1.035,0.378,1.414,0L8.621,6.656z"/>
	</g>
</g>
<g>
</g>
<g>
</g>
<g>
</g>
<g>
</g>
<g>
</g>
<g>
</g>
<g>
</g>
<g>
</g>
<g>
</g>
<g>
</g>
<g>
</g>
<g>
</g>
<g>
</g>
<g>
</g>
<g>
</g>
</svg>
