<?xml version="1.0" encoding="iso-8859-1"?>
<!-- Generator: Adobe Illustrator 18.1.1, SVG Export Plug-In . SVG Version: 6.00 Build 0)  -->
<svg version="1.1" id="Capa_1" xmlns="http://www.w3.org/2000/svg" xmlns:xlink="http://www.w3.org/1999/xlink" x="0px" y="0px"
	 viewBox="0 0 12.002 12.002" style="enable-background:new 0 0 12.002 12.002;" xml:space="preserve">
<g>
	<g>
		<path style="fill:#030104;" d="M6.873,6.193h5.128V1.066c-0.008-1.135-0.671-1.408-1.473-0.605L9.374,1.619
			c-1.015-0.795-2.257-1.23-3.566-1.23c-1.55,0-3.009,0.604-4.104,1.701C0.605,3.182,0.001,4.643,0.001,6.193
			c0,1.553,0.604,3.012,1.701,4.107c1.097,1.097,2.555,1.702,4.106,1.702c1.55,0,3.009-0.605,4.106-1.703
			c0.296-0.297,0.558-0.621,0.78-0.965c0.347-0.541,0.19-1.26-0.35-1.605C9.805,7.383,9.086,7.54,8.74,8.079
			c-0.133,0.207-0.292,0.4-0.468,0.58c-0.659,0.658-1.534,1.02-2.464,1.02c-0.93,0-1.805-0.361-2.464-1.02
			c-0.657-0.658-1.02-1.533-1.02-2.465c0-0.93,0.362-1.805,1.02-2.461c0.659-0.658,1.534-1.021,2.464-1.021
			c0.688,0,1.346,0.201,1.909,0.572L6.269,4.735C5.466,5.537,5.739,6.193,6.873,6.193z"/>
	</g>
</g>
<g>
</g>
<g>
</g>
<g>
</g>
<g>
</g>
<g>
</g>
<g>
</g>
<g>
</g>
<g>
</g>
<g>
</g>
<g>
</g>
<g>
</g>
<g>
</g>
<g>
</g>
<g>
</g>
<g>
</g>
</svg>
