<?xml version="1.0" encoding="iso-8859-1"?>
<!-- Generator: Adobe Illustrator 18.1.1, SVG Export Plug-In . SVG Version: 6.00 Build 0)  -->
<svg version="1.1" id="Capa_1" xmlns="http://www.w3.org/2000/svg"  x="0px" y="0px"
	 viewBox="0 0 22.945 22.945" style="enable-background:new 0 0 22.945 22.945;" xml:space="preserve">
<g>
	<path style="fill:#030104;" d="M20.458,16.945c0-0.105-0.004-0.211-0.038-0.316l-2-6c-0.093-0.276-0.302-0.483-0.56-0.594
		c0.881-1.175,0.799-2.847-0.269-3.914L11.472,0L5.352,6.121c-1.067,1.067-1.149,2.739-0.27,3.914
		c-0.256,0.109-0.467,0.316-0.559,0.594l-2,6c-0.034,0.105-0.038,0.211-0.038,0.316c-0.012,0-0.012,5-0.012,5c0,0.553,0.447,1,1,1
		h16c0.553,0,1-0.447,1-1C20.472,21.945,20.472,16.945,20.458,16.945z M6.766,7.535l4.707-4.707l4.707,4.707
		c0.391,0.391,0.391,1.023,0,1.414c-0.379,0.377-1.035,0.377-1.414,0l-2.293-2.293v5.789c0,0.552-0.448,1-1,1s-1-0.448-1-1V6.656
		L8.179,8.949c-0.379,0.377-1.035,0.377-1.414,0C6.374,8.558,6.374,7.924,6.766,7.535z M6.194,11.945h2.279v0.5c0,1.654,1.346,3,3,3
		s3-1.346,3-3v-0.5h2.279l1.666,5H4.525L6.194,11.945z M4.472,20.945v-3h14v3H4.472z"/>
</g>
<g>
</g>
<g>
</g>
<g>
</g>
<g>
</g>
<g>
</g>
<g>
</g>
<g>
</g>
<g>
</g>
<g>
</g>
<g>
</g>
<g>
</g>
<g>
</g>
<g>
</g>
<g>
</g>
<g>
</g>
</svg>
