<?xml version="1.0" encoding="iso-8859-1"?>
<!-- Generator: Adobe Illustrator 18.1.1, SVG Export Plug-In . SVG Version: 6.00 Build 0)  -->
<svg version="1.1" id="Capa_1" xmlns="http://www.w3.org/2000/svg"  x="0px" y="0px"
	 viewBox="0 0 20 20" style="enable-background:new 0 0 20 20;" xml:space="preserve">
<g>
	<path style="fill:#030104;" d="M15,14c-1.305,0-2.403,0.837-2.816,2H9c-1.654,0-3-1.346-3-3V9.975C6.838,10.609,7.87,11,9,11h3.184
		c0.413,1.163,1.512,2,2.816,2c1.657,0,3-1.343,3-3s-1.343-3-3-3c-1.305,0-2.403,0.837-2.816,2H9C7.346,9,6,7.654,6,6V5.816
		C7.163,5.403,8,4.304,8,3c0-1.657-1.343-3-3-3S2,1.343,2,3c0,1.304,0.837,2.403,2,2.816V13c0,2.757,2.243,5,5,5h3.184
		c0.413,1.163,1.512,2,2.816,2c1.657,0,3-1.343,3-3S16.657,14,15,14z M15,9c0.552,0,1,0.449,1,1s-0.448,1-1,1s-1-0.449-1-1
		S14.448,9,15,9z M5,2c0.552,0,1,0.449,1,1S5.552,4,5,4S4,3.551,4,3S4.448,2,5,2z M15,18c-0.552,0-1-0.449-1-1s0.448-1,1-1
		s1,0.449,1,1S15.552,18,15,18z"/>
</g>
<g>
</g>
<g>
</g>
<g>
</g>
<g>
</g>
<g>
</g>
<g>
</g>
<g>
</g>
<g>
</g>
<g>
</g>
<g>
</g>
<g>
</g>
<g>
</g>
<g>
</g>
<g>
</g>
<g>
</g>
</svg>
