<?xml version="1.0" encoding="iso-8859-1"?>
<!-- Generator: Adobe Illustrator 18.1.1, SVG Export Plug-In . SVG Version: 6.00 Build 0)  -->
<svg version="1.1" id="Capa_1" xmlns="http://www.w3.org/2000/svg"  x="0px" y="0px"
	 viewBox="0 0 21 21" style="enable-background:new 0 0 21 21;" xml:space="preserve">
<g>
	<path style="fill:#030104;" d="M20.525,5.649C20.365,5.55,20.183,5.5,20,5.5c-0.153,0-0.306,0.035-0.447,0.105L17,6.882V6.5
		c0-1.654-1.346-3-3-3H3c-1.654,0-3,1.346-3,3v8c0,1.654,1.346,3,3,3h11c1.654,0,3-1.346,3-3v-0.382l2.553,1.276
		C19.694,15.465,19.847,15.5,20,15.5c0.183,0,0.365-0.05,0.525-0.149C20.82,15.168,21,14.847,21,14.5v-8
		C21,6.153,20.82,5.832,20.525,5.649z M5,12c-0.829,0-1.5-0.671-1.5-1.5S4.171,9,5,9s1.5,0.671,1.5,1.5S5.829,12,5,12z"/>
</g>
<g>
</g>
<g>
</g>
<g>
</g>
<g>
</g>
<g>
</g>
<g>
</g>
<g>
</g>
<g>
</g>
<g>
</g>
<g>
</g>
<g>
</g>
<g>
</g>
<g>
</g>
<g>
</g>
<g>
</g>
</svg>
