<?xml version="1.0" encoding="iso-8859-1"?>
<!-- Generator: Adobe Illustrator 18.1.1, SVG Export Plug-In . SVG Version: 6.00 Build 0)  -->
<svg version="1.1" id="Capa_1" xmlns="http://www.w3.org/2000/svg" xmlns:xlink="http://www.w3.org/1999/xlink" x="0px" y="0px"
	 viewBox="0 0 19.999 19.999" style="enable-background:new 0 0 19.999 19.999;" xml:space="preserve">
<g>
	<g>
		<circle style="fill:#030104;" cx="5" cy="8" r="1"/>
		<path style="fill:#030104;" d="M19.585,4.188C19.323,4,18.986,3.947,18.684,4.051l-1.707,0.568
			c-0.188-1.477-1.451-2.62-2.977-2.62H3c-1.654,0-3,1.347-3,3v6c0,1.653,1.346,3,3,3h3v1.021v0.09l0.008,0.09
			c0.066,0.738,0.381,1.423,0.887,1.928C7.457,17.69,8.206,18,8.999,18s1.542-0.31,2.104-0.87c0.574-0.577,0.898-1.346,0.896-2.113
			V14h2c1.524,0,2.789-1.145,2.978-2.62l1.707,0.568c0.303,0.104,0.64,0.051,0.9-0.138c0.262-0.188,0.415-0.49,0.415-0.812v-6
			C20,4.68,19.846,4.377,19.585,4.188z M10,15.023c0.001,0.248-0.119,0.5-0.309,0.689C9.5,15.901,9.25,15.998,8.999,15.998
			c-0.25,0-0.501-0.097-0.69-0.286C8.119,15.523,8.024,15.271,8,15.021V13h2V15.023z M15,11c0,0.552-0.448,1-1,1H3
			c-0.552,0-1-0.448-1-1V5c0-0.552,0.448-1,1-1h11c0.552,0,1,0.448,1,1V11z M18,9.611c0,0-1.895-0.605-2-0.605V6.994
			c0.105,0,2-0.605,2-0.605V9.611z"/>
	</g>
</g>
<g>
</g>
<g>
</g>
<g>
</g>
<g>
</g>
<g>
</g>
<g>
</g>
<g>
</g>
<g>
</g>
<g>
</g>
<g>
</g>
<g>
</g>
<g>
</g>
<g>
</g>
<g>
</g>
<g>
</g>
</svg>
