<?xml version="1.0" encoding="iso-8859-1"?>
<!-- Generator: Adobe Illustrator 18.1.1, SVG Export Plug-In . SVG Version: 6.00 Build 0)  -->
<svg version="1.1" id="Capa_1" xmlns="http://www.w3.org/2000/svg" xmlns:xlink="http://www.w3.org/1999/xlink" x="0px" y="0px"
	 viewBox="0 0 18 18" style="enable-background:new 0 0 18 18;" xml:space="preserve">
<g>
	<g id="Layer_1_60_">
		<g>
			<path style="fill:#030104;" d="M11.463,6.141c-0.512,0-0.988,0.238-1.43,0.715c-0.311,0.312-0.5,0.678-0.566,1.101
				c0.207-0.131,0.387-0.196,0.541-0.196c0.159,0,0.29,0.07,0.393,0.212c0.199,0.278,0.188,0.629-0.033,1.051
				c-0.489,0.934-0.846,1.4-1.066,1.4c-0.156,0-0.356-0.522-0.602-1.567C8.657,8.702,8.612,8.479,8.567,8.19
				C8.522,7.902,8.479,7.652,8.434,7.44c-0.045-0.211-0.111-0.428-0.2-0.649s-0.2-0.384-0.333-0.483
				C7.807,6.239,7.699,6.204,7.574,6.204c-0.055,0-0.112,0.007-0.173,0.021c-0.289,0.067-0.623,0.245-1,0.534
				C6.022,7.047,5.712,7.325,5.467,7.592l-0.334,0.4l0.301,0.399c0.045-0.044,0.1-0.089,0.166-0.133
				c0.066-0.045,0.189-0.101,0.367-0.167c0.076-0.028,0.141-0.043,0.191-0.043c0.069,0,0.116,0.025,0.143,0.076
				c0.066,0.089,0.271,0.717,0.615,1.884c0.346,1.167,0.562,1.839,0.65,2.017c0.156,0.311,0.367,0.55,0.633,0.717
				c0.13,0.08,0.271,0.121,0.427,0.121c0.165,0,0.346-0.047,0.54-0.139c0.601-0.399,1.289-1.066,2.067-2
				c0.778-0.933,1.255-1.922,1.433-2.966c0.156-0.911-0.11-1.434-0.799-1.567C11.729,6.156,11.595,6.141,11.463,6.141z"/>
		</g>
		<g>
			<path style="fill:#030104;" d="M9,18c-4.963,0-9-4.037-9-9s4.037-9,9-9s9,4.037,9,9S13.963,18,9,18z M9,2C5.141,2,2,5.141,2,9
				s3.141,7,7,7s7-3.141,7-7S12.859,2,9,2z"/>
		</g>
	</g>
</g>
<g>
</g>
<g>
</g>
<g>
</g>
<g>
</g>
<g>
</g>
<g>
</g>
<g>
</g>
<g>
</g>
<g>
</g>
<g>
</g>
<g>
</g>
<g>
</g>
<g>
</g>
<g>
</g>
<g>
</g>
</svg>
