<?xml version="1.0" encoding="iso-8859-1"?>
<!-- Generator: Adobe Illustrator 18.1.1, SVG Export Plug-In . SVG Version: 6.00 Build 0)  -->
<svg version="1.1" id="Capa_1" xmlns="http://www.w3.org/2000/svg" xmlns:xlink="http://www.w3.org/1999/xlink" x="0px" y="0px"
	 viewBox="0 0 14 14" style="enable-background:new 0 0 14 14;" xml:space="preserve">
<g>
	<g>
		<path style="fill:#030104;" d="M13.92,3.776c-0.329,1.929-1.211,3.758-2.649,5.48c-1.436,1.725-2.71,2.957-3.819,3.695
			c-0.699,0.331-1.293,0.34-1.786,0.034c-0.493-0.31-0.883-0.751-1.169-1.325c-0.165-0.328-0.565-1.569-1.202-3.728
			C2.659,5.777,2.278,4.617,2.156,4.453C2.073,4.29,1.868,4.269,1.54,4.392C1.21,4.514,0.985,4.618,0.862,4.701
			C0.739,4.782,0.636,4.866,0.554,4.946L0,4.209l0.616-0.74c0.452-0.492,1.026-1.007,1.724-1.54c0.7-0.534,1.314-0.862,1.848-0.987
			c0.371-0.08,0.679-0.028,0.924,0.156c0.247,0.184,0.452,0.484,0.616,0.894c0.165,0.409,0.289,0.811,0.369,1.199
			C6.18,3.583,6.262,4.045,6.345,4.578C6.426,5.112,6.509,5.523,6.591,5.81C7.042,7.74,7.412,8.706,7.7,8.706
			c0.41,0,1.067-0.863,1.971-2.59c0.41-0.779,0.432-1.426,0.062-1.941C9.364,3.663,8.79,3.653,8.009,4.146
			c0.123-0.78,0.472-1.456,1.046-2.031c1.026-1.109,2.157-1.521,3.388-1.234C13.716,1.128,14.208,2.094,13.92,3.776z"/>
	</g>
</g>
<g>
</g>
<g>
</g>
<g>
</g>
<g>
</g>
<g>
</g>
<g>
</g>
<g>
</g>
<g>
</g>
<g>
</g>
<g>
</g>
<g>
</g>
<g>
</g>
<g>
</g>
<g>
</g>
<g>
</g>
</svg>
