<?xml version="1.0" encoding="iso-8859-1"?>
<!-- Generator: Adobe Illustrator 18.1.1, SVG Export Plug-In . SVG Version: 6.00 Build 0)  -->
<svg version="1.1" id="Capa_1" xmlns="http://www.w3.org/2000/svg"  x="0px" y="0px"
	 viewBox="0 0 15.09 15.09" style="enable-background:new 0 0 15.09 15.09;" xml:space="preserve">
<g>
	<path style="fill:#030104;" d="M14.99,11.854l-2.64-9.809h1.195c0.552,0,1-0.448,1-1s-0.448-1-1-1H3.295h-0.75h-1
		c-0.552,0-1,0.448-1,1s0.448,1,1,1h1H2.68C2.667,2.221,2.632,2.447,2.559,2.716L0.1,11.854c-0.218,0.809-0.074,1.623,0.393,2.231
		c0.466,0.61,1.214,0.96,2.052,0.96h10c0.838,0,1.586-0.35,2.055-0.959C15.066,13.477,15.209,12.663,14.99,11.854z M10.277,2.045
		l1.352,5.018c-0.027-0.006-0.055-0.018-0.084-0.018h-8c-0.029,0-0.057,0.012-0.084,0.018L4.49,3.237
		c0.084-0.312,0.173-0.744,0.192-1.192H10.277z M13.011,12.869c-0.087,0.114-0.252,0.176-0.466,0.176h-10
		c-0.214,0-0.379-0.062-0.466-0.176c-0.086-0.113-0.104-0.289-0.048-0.496l1.197-4.45c0.088,0.073,0.195,0.122,0.317,0.122h8
		c0.122,0,0.229-0.049,0.316-0.121l1.197,4.45C13.115,12.58,13.098,12.756,13.011,12.869z"/>
</g>
<g>
</g>
<g>
</g>
<g>
</g>
<g>
</g>
<g>
</g>
<g>
</g>
<g>
</g>
<g>
</g>
<g>
</g>
<g>
</g>
<g>
</g>
<g>
</g>
<g>
</g>
<g>
</g>
<g>
</g>
</svg>
