<?xml version="1.0" encoding="iso-8859-1"?>
<!-- Generator: Adobe Illustrator 18.1.1, SVG Export Plug-In . SVG Version: 6.00 Build 0)  -->
<svg version="1.1" id="Capa_1" xmlns="http://www.w3.org/2000/svg"  x="0px" y="0px"
	 viewBox="0 0 21.486 21.486" style="enable-background:new 0 0 21.486 21.486;" xml:space="preserve">
<g>
	<g id="Layer_1_76_">
		<path style="fill:#030104;" d="M14.706,8.036c-0.389-0.389-1.023-0.391-1.414,0.002c-0.39,0.391-0.39,1.023,0.002,1.414
			c0.345,0.345,0.535,0.803,0.535,1.291c0,0.489-0.19,0.948-0.536,1.294c-0.391,0.39-0.391,1.023,0,1.414
			c0.195,0.195,0.451,0.293,0.707,0.293c0.256,0,0.512-0.098,0.707-0.293c0.724-0.723,1.122-1.685,1.122-2.708
			S15.431,8.759,14.706,8.036z"/>
		<path style="fill:#030104;" d="M16.706,6.036c-0.391-0.389-1.023-0.39-1.414,0.002c-0.39,0.391-0.39,1.024,0.002,1.414
			c0.879,0.877,1.363,2.044,1.364,3.287c0.001,1.246-0.484,2.417-1.365,3.298c-0.391,0.391-0.391,1.023,0,1.414
			c0.195,0.195,0.451,0.293,0.707,0.293s0.512-0.098,0.707-0.293c1.259-1.259,1.952-2.933,1.951-4.713
			C18.657,8.961,17.964,7.291,16.706,6.036z"/>
		<path style="fill:#030104;" d="M18.706,4.036c-0.391-0.389-1.023-0.39-1.414,0.002c-0.39,0.391-0.39,1.024,0.002,1.414
			c1.412,1.409,2.191,3.285,2.192,5.284c0.002,2.002-0.777,3.885-2.193,5.301c-0.391,0.391-0.391,1.023,0,1.414
			c0.195,0.195,0.451,0.293,0.707,0.293s0.512-0.098,0.707-0.293c1.794-1.794,2.781-4.18,2.779-6.717
			C21.485,8.201,20.497,5.822,18.706,4.036z"/>
		<path style="fill:#030104;" d="M10.138,3.568c-0.449,0-0.905,0.152-1.356,0.453L6.109,5.803C5.357,6.305,3.904,6.744,3,6.744
			c-1.654,0-3,1.346-3,3v2c0,1.654,1.346,3,3,3c0.904,0,2.357,0.439,3.109,0.941l2.672,1.781c0.451,0.301,0.907,0.453,1.356,0.453
			C11.035,17.92,12,17.239,12,15.744v-10C12,4.249,11.035,3.568,10.138,3.568z M3,12.744c-0.552,0-1-0.448-1-1v-2
			c0-0.552,0.448-1,1-1c1.211,0,2.907-0.495,4-1.146v6.293C5.907,13.239,4.211,12.744,3,12.744z M10,15.744
			c0,0.046-0.002,0.086-0.006,0.12c-0.03-0.016-0.065-0.036-0.104-0.062L8,14.542V6.946l1.891-1.261
			C9.929,5.66,9.964,5.639,9.995,5.623C9.998,5.658,10,5.698,10,5.744V15.744z"/>
	</g>
</g>
<g>
</g>
<g>
</g>
<g>
</g>
<g>
</g>
<g>
</g>
<g>
</g>
<g>
</g>
<g>
</g>
<g>
</g>
<g>
</g>
<g>
</g>
<g>
</g>
<g>
</g>
<g>
</g>
<g>
</g>
</svg>
