<?xml version="1.0" encoding="iso-8859-1"?>
<!-- Generator: Adobe Illustrator 18.1.1, SVG Export Plug-In . SVG Version: 6.00 Build 0)  -->
<svg version="1.1" id="Capa_1" xmlns="http://www.w3.org/2000/svg" xmlns:xlink="http://www.w3.org/1999/xlink" x="0px" y="0px"
	 viewBox="0 0 18 18" style="enable-background:new 0 0 18 18;" xml:space="preserve">
<g>
	<g>
		<path style="fill:#030104;" d="M13,9c0-0.55-0.45-1-1-1H9C8.45,8,8,8.45,8,9s0.45,1,1,1h3C12.55,10,13,9.55,13,9z"/>
	</g>
	<g>
		<path style="fill:#030104;" d="M9,2c3.859,0,7,3.141,7,7s-3.141,7-7,7s-7-3.141-7-7S5.141,2,9,2 M9,0C4.029,0,0,4.029,0,9
			s4.029,9,9,9s9-4.029,9-9S13.971,0,9,0z"/>
	</g>
	<g>
		<path style="fill:#030104;" d="M10,6c0-0.55-0.45-1-1-1S8,5.45,8,6v3c0,0.55,0.45,1,1,1s1-0.45,1-1V6z"/>
	</g>
	<g>
		<path style="fill:#030104;" d="M9,4c2.757,0,5,2.243,5,5s-2.243,5-5,5s-5-2.243-5-5S6.243,4,9,4 M9,3C5.688,3,3,5.686,3,9
			c0,3.312,2.688,6,6,6s6-2.688,6-6C15,5.686,12.312,3,9,3z"/>
	</g>
</g>
<g>
</g>
<g>
</g>
<g>
</g>
<g>
</g>
<g>
</g>
<g>
</g>
<g>
</g>
<g>
</g>
<g>
</g>
<g>
</g>
<g>
</g>
<g>
</g>
<g>
</g>
<g>
</g>
<g>
</g>
</svg>
