<?xml version="1.0" encoding="iso-8859-1"?>
<!-- Generator: Adobe Illustrator 18.1.1, SVG Export Plug-In . SVG Version: 6.00 Build 0)  -->
<svg version="1.1" id="Capa_1" xmlns="http://www.w3.org/2000/svg"  x="0px" y="0px"
	 viewBox="0 0 19.658 19.658" style="enable-background:new 0 0 19.658 19.658;" xml:space="preserve">
<g>
	<path style="fill:#030104;" d="M19,12.971l-5.912-9.854c-0.776-1.293-1.963-2.033-3.259-2.033S7.346,1.824,6.57,3.115l-5.912,9.856
		c-0.786,1.309-0.872,2.705-0.235,3.83c0.636,1.126,1.878,1.772,3.406,1.772h12c1.528,0,2.77-0.646,3.406-1.771
		C19.872,15.677,19.786,14.281,19,12.971z M9.829,15.122c-0.854,0-1.55-0.695-1.55-1.549c0-0.855,0.695-1.551,1.55-1.551
		s1.55,0.696,1.55,1.551C11.379,14.427,10.683,15.122,9.829,15.122z M11.462,7.698c-0.011,0.031-1.401,3.468-1.401,3.468
		c-0.038,0.094-0.13,0.156-0.231,0.156s-0.193-0.062-0.231-0.156L8.208,7.728c-0.09-0.233-0.129-0.443-0.129-0.655
		c0-0.965,0.785-1.75,1.75-1.75s1.75,0.785,1.75,1.75C11.579,7.285,11.54,7.495,11.462,7.698z"/>
</g>
<g>
</g>
<g>
</g>
<g>
</g>
<g>
</g>
<g>
</g>
<g>
</g>
<g>
</g>
<g>
</g>
<g>
</g>
<g>
</g>
<g>
</g>
<g>
</g>
<g>
</g>
<g>
</g>
<g>
</g>
</svg>
