<?xml version="1.0" encoding="iso-8859-1"?>
<!-- Generator: Adobe Illustrator 18.1.1, SVG Export Plug-In . SVG Version: 6.00 Build 0)  -->
<svg version="1.1" id="Capa_1" xmlns="http://www.w3.org/2000/svg" xmlns:xlink="http://www.w3.org/1999/xlink" x="0px" y="0px"
	 viewBox="0 0 20 20" style="enable-background:new 0 0 20 20;" xml:space="preserve">
<g>
	<g id="Layer_1_78_">
		<g>
			<path style="fill:#030104;" d="M15,14.5c-0.553,0-1-0.447-1-1s0.447-1,1-1c1.654,0,3-1.346,3-3s-1.346-3-3-3
				c-0.238,0-0.496,0.042-0.813,0.131l-1.071,0.301L12.93,5.834C12.604,3.902,10.951,2.5,9,2.5c-2.205,0-4,1.794-4,4
				c0,0.274,0.027,0.545,0.082,0.806l0.26,1.24L3.906,8.494C2.896,8.5,2,9.397,2,10.5s0.896,2,2,2c0.553,0,1,0.447,1,1s-0.447,1-1,1
				c-2.205,0-4-1.794-4-4c0-1.861,1.277-3.429,3.002-3.874C3,6.584,3,6.542,3,6.5c0-3.309,2.691-6,6-6
				c2.587,0,4.824,1.638,5.649,4.015C17.574,4.274,20,6.627,20,9.5C20,12.257,17.757,14.5,15,14.5z"/>
		</g>
		<g>
			<polygon style="fill:#030104;" points="10.639,10.5 6.139,14.551 9.139,16 7.639,19.5 12.139,15.45 9.139,14 			"/>
		</g>
	</g>
</g>
<g>
</g>
<g>
</g>
<g>
</g>
<g>
</g>
<g>
</g>
<g>
</g>
<g>
</g>
<g>
</g>
<g>
</g>
<g>
</g>
<g>
</g>
<g>
</g>
<g>
</g>
<g>
</g>
<g>
</g>
</svg>
