<?xml version="1.0" encoding="iso-8859-1"?>
<!-- Generator: Adobe Illustrator 18.1.1, SVG Export Plug-In . SVG Version: 6.00 Build 0)  -->
<svg version="1.1" id="Capa_1" xmlns="http://www.w3.org/2000/svg" xmlns:xlink="http://www.w3.org/1999/xlink" x="0px" y="0px"
	 viewBox="0 0 17 17" style="enable-background:new 0 0 17 17;" xml:space="preserve">
<g>
	<g>
		<path style="fill:#030104;" d="M8.497,0C3.812,0,0,3.812,0,8.5S3.813,17,8.5,17c4.688,0,8.5-3.812,8.5-8.5S13.188,0,8.497,0z
			 M8.5,15C4.916,15,2,12.084,2,8.5S4.914,2,8.5,2C12.084,2,15,4.916,15,8.5S12.084,15,8.5,15z"/>
		<path style="fill:#030104;" d="M11.848,7.531C11.898,7.521,11.945,7.5,12,7.5h0.879C12.496,5.823,11.18,4.505,9.5,4.122V5
			c0,0.551-0.449,1-1,1C8.003,6,7.608,5.629,7.531,5.154C7.522,5.102,7.5,5.055,7.5,5V4.12C5.822,4.502,4.503,5.822,4.12,7.5H5
			c0.054,0,0.101,0.021,0.153,0.031C5.629,7.607,6,8.003,6,8.5S5.629,9.393,5.154,9.469C5.102,9.479,5.055,9.5,5,9.5H4.122
			c0.384,1.677,1.702,2.995,3.378,3.379V12c0-0.055,0.022-0.102,0.031-0.154C7.608,11.37,8.003,11,8.5,11s0.893,0.371,0.969,0.848
			C9.479,11.898,9.5,11.945,9.5,12v0.879c1.677-0.383,2.996-1.702,3.379-3.379H12c-0.055,0-0.102-0.021-0.152-0.031
			C11.371,9.393,11,8.997,11,8.5S11.371,7.607,11.848,7.531z M11.402,10.398c-0.264,0.399-0.604,0.74-1.004,1.002
			c-0.256-0.81-1.004-1.401-1.897-1.401c-0.893,0-1.642,0.592-1.898,1.401c-0.4-0.262-0.74-0.603-1.003-1.002
			C6.41,10.142,7.001,9.392,7.001,8.5c0-0.895-0.592-1.643-1.402-1.898C5.862,6.203,6.202,5.862,6.603,5.6
			c0.256,0.81,1.005,1.401,1.898,1.401c0.894,0,1.644-0.593,1.899-1.403c0.399,0.264,0.74,0.604,1.002,1.004
			c-0.81,0.256-1.401,1.006-1.401,1.898C10,9.393,10.592,10.143,11.402,10.398z"/>
	</g>
</g>
<g>
</g>
<g>
</g>
<g>
</g>
<g>
</g>
<g>
</g>
<g>
</g>
<g>
</g>
<g>
</g>
<g>
</g>
<g>
</g>
<g>
</g>
<g>
</g>
<g>
</g>
<g>
</g>
<g>
</g>
</svg>
