<?xml version="1.0" encoding="iso-8859-1"?>
<!-- Generator: Adobe Illustrator 18.1.1, SVG Export Plug-In . SVG Version: 6.00 Build 0)  -->
<svg version="1.1" id="Capa_1" xmlns="http://www.w3.org/2000/svg"  x="0px" y="0px"
	 viewBox="0 0 20.97 20.97" style="enable-background:new 0 0 20.97 20.97;" xml:space="preserve">
<g>
	<g>
		<g>
			<path style="fill:#030104;" d="M11.901,17.894c0.783-0.779,0.783-2.047,0-2.826c-0.781-0.785-2.049-0.785-2.828-0.002
				c-0.783,0.783-0.783,2.051,0,2.831C9.854,18.677,11.122,18.678,11.901,17.894z"/>
		</g>
	</g>
	<g>
		<path style="fill:#030104;" d="M18.972,9.997c-0.512,0-1.024-0.195-1.414-0.586c-3.899-3.899-10.243-3.898-14.143,0
			c-0.782,0.781-2.048,0.78-2.829,0c-0.781-0.781-0.781-2.047,0-2.829c5.459-5.458,14.341-5.458,19.799,0
			c0.781,0.781,0.781,2.047,0,2.828C19.996,9.801,19.484,9.997,18.972,9.997z"/>
	</g>
	<g>
		<path style="fill:#030104;" d="M6.244,14.239c-0.512,0-1.024-0.195-1.414-0.586c-0.781-0.781-0.781-2.047,0-2.828
			c3.118-3.119,8.194-3.119,11.313,0c0.781,0.781,0.781,2.047,0,2.829c-0.781,0.781-2.047,0.781-2.829,0
			c-1.559-1.56-4.097-1.559-5.657,0C7.268,14.044,6.756,14.239,6.244,14.239z"/>
	</g>
</g>
<g>
</g>
<g>
</g>
<g>
</g>
<g>
</g>
<g>
</g>
<g>
</g>
<g>
</g>
<g>
</g>
<g>
</g>
<g>
</g>
<g>
</g>
<g>
</g>
<g>
</g>
<g>
</g>
<g>
</g>
</svg>
