<?xml version="1.0" encoding="iso-8859-1"?>
<!-- Generator: Adobe Illustrator 18.1.1, SVG Export Plug-In . SVG Version: 6.00 Build 0)  -->
<svg version="1.1" id="Capa_1" xmlns="http://www.w3.org/2000/svg" xmlns:xlink="http://www.w3.org/1999/xlink" x="0px" y="0px"
	 viewBox="0 0 18.314 18.314" style="enable-background:new 0 0 18.314 18.314;" xml:space="preserve">
<g>
	<path style="fill:#030104;" d="M18.314,7.318c0-0.785-0.269-1.464-0.706-2.048c-0.045-0.094-0.131-0.149-0.21-0.226
		c-0.163-0.18-0.341-0.338-0.536-0.48C12.412,0.825,5.897,0.829,1.448,4.569C1.255,4.712,0.706,5.307,0.706,5.307
		C0.269,5.891,0,6.613,0,7.398c0,0.816,0.362,1.758,0.759,2.155s5.775,5.796,5.775,5.796c0.642,0.732,1.572,1.204,2.622,1.204
		c0.996,0,1.709-0.167,2.526-1c0.004,0,5.565-5.646,5.565-5.646C17.953,9.203,18.314,8.208,18.314,7.318z M9.158,14.551
		c-0.829,0.002-1.501-0.668-1.501-1.498c-0.002-0.828,0.67-1.502,1.501-1.502c0.829-0.002,1.501,0.67,1.499,1.502
		C10.659,13.881,9.987,14.554,9.158,14.551z M13.046,11.283c-0.293,0.293-0.677,0.438-1.061,0.438c-0.385,0-0.768-0.146-1.061-0.438
		c-0.976-0.976-2.562-0.976-3.536,0c-0.586,0.586-1.536,0.584-2.122,0c-0.586-0.586-0.586-1.537,0-2.123
		c2.144-2.144,5.632-2.144,7.779,0C13.632,9.747,13.632,10.699,13.046,11.283z M15.875,8.456c-0.293,0.293-0.677,0.438-1.061,0.438
		s-0.769-0.146-1.062-0.438c-2.533-2.534-6.658-2.534-9.192,0c-0.586,0.584-1.536,0.584-2.122,0c-0.585-0.586-0.585-1.536,0-2.123
		c3.704-3.701,9.729-3.701,13.435,0C16.46,6.92,16.46,7.87,15.875,8.456z"/>
</g>
<g>
</g>
<g>
</g>
<g>
</g>
<g>
</g>
<g>
</g>
<g>
</g>
<g>
</g>
<g>
</g>
<g>
</g>
<g>
</g>
<g>
</g>
<g>
</g>
<g>
</g>
<g>
</g>
<g>
</g>
</svg>
