<?xml version="1.0" encoding="iso-8859-1"?>
<!-- Generator: Adobe Illustrator 18.1.1, SVG Export Plug-In . SVG Version: 6.00 Build 0)  -->
<svg version="1.1" id="Capa_1" xmlns="http://www.w3.org/2000/svg" xmlns:xlink="http://www.w3.org/1999/xlink" x="0px" y="0px"
	 viewBox="0 0 17.4 17.4" style="enable-background:new 0 0 17.4 17.4;" xml:space="preserve">
<g>
	<g id="Layer_1_113_">
		<path style="fill:#030104;" d="M14.4,1.7c-0.553,0-1,0.447-1,1s0.447,1,1,1c0.552,0,1,0.448,1,1s-0.448,1-1,1h-11
			c-0.553,0-1,0.447-1,1s0.447,1,1,1h6c0.552,0,1,0.448,1,1s-0.448,1-1,1H3c-1.654,0-3,1.346-3,3s1.346,3,3,3c0.553,0,1-0.447,1-1
			s-0.447-1-1-1c-0.552,0-1-0.448-1-1s0.448-1,1-1h6.4c1.654,0,3-1.346,3-3c0-0.353-0.072-0.686-0.185-1H14.4c1.654,0,3-1.346,3-3
			S16.054,1.7,14.4,1.7z"/>
	</g>
</g>
<g>
</g>
<g>
</g>
<g>
</g>
<g>
</g>
<g>
</g>
<g>
</g>
<g>
</g>
<g>
</g>
<g>
</g>
<g>
</g>
<g>
</g>
<g>
</g>
<g>
</g>
<g>
</g>
<g>
</g>
</svg>
