<?xml version="1.0" encoding="iso-8859-1"?>
<!-- Generator: Adobe Illustrator 18.1.1, SVG Export Plug-In . SVG Version: 6.00 Build 0)  -->
<svg version="1.1" id="Capa_1" xmlns="http://www.w3.org/2000/svg" xmlns:xlink="http://www.w3.org/1999/xlink" x="0px" y="0px"
	 viewBox="0 0 20 20" style="enable-background:new 0 0 20 20;" xml:space="preserve">
<g>
	<g id="Layer_1_116_">
		<g>
			<path style="fill:#030104;" d="M2.798,14.25c-0.134,0-0.27-0.026-0.4-0.084C0.941,13.527,0,12.089,0,10.5
				c0-1.861,1.277-3.429,3.001-3.874C3,6.584,3,6.542,3,6.5c0-3.309,2.691-6,6-6c2.932,0,5.413,2.104,5.902,5.001
				c0.092,0.544-0.275,1.061-0.82,1.152c-0.544,0.083-1.06-0.276-1.152-0.82C12.604,3.902,10.951,2.5,9,2.5c-2.206,0-4,1.794-4,4
				c0,0.272,0.027,0.546,0.081,0.812l0.259,1.27L3.909,8.494C2.897,8.5,2,9.397,2,10.5c0,0.795,0.471,1.515,1.2,1.834
				c0.506,0.222,0.736,0.812,0.515,1.317C3.551,14.026,3.184,14.25,2.798,14.25z"/>
		</g>
		<g>
			<path style="fill:#030104;" d="M17,5.5c-0.553,0-1,0.447-1,1s0.447,1,1,1c0.552,0,1,0.448,1,1s-0.448,1-1,1H7.4
				c-0.553,0-1,0.447-1,1s0.447,1,1,1H12c0.552,0,1,0.448,1,1s-0.448,1-1,1H7c-1.654,0-3,1.346-3,3s1.346,3,3,3c0.553,0,1-0.447,1-1
				s-0.447-1-1-1c-0.552,0-1-0.448-1-1s0.448-1,1-1h5c1.654,0,3-1.346,3-3c0-0.353-0.072-0.686-0.185-1H17c1.654,0,3-1.346,3-3
				S18.654,5.5,17,5.5z"/>
		</g>
	</g>
</g>
<g>
</g>
<g>
</g>
<g>
</g>
<g>
</g>
<g>
</g>
<g>
</g>
<g>
</g>
<g>
</g>
<g>
</g>
<g>
</g>
<g>
</g>
<g>
</g>
<g>
</g>
<g>
</g>
<g>
</g>
</svg>
