<?xml version="1.0" encoding="iso-8859-1"?>
<!-- Generator: Adobe Illustrator 18.1.1, SVG Export Plug-In . SVG Version: 6.00 Build 0)  -->
<svg version="1.1" id="Capa_1" xmlns="http://www.w3.org/2000/svg"  x="0px" y="0px"
	 viewBox="0 0 18 18" style="enable-background:new 0 0 18 18;" xml:space="preserve">
<g>
	<g id="Layer_1_46_">
		<path style="fill:#030104;" d="M14.568,6.432c0-2.55-0.906-5.592-0.944-5.72C13.496,0.289,13.107,0,12.666,0H5.334
			c-0.441,0-0.83,0.289-0.958,0.712c-0.038,0.128-0.944,3.17-0.944,5.72c0,2.735,1.984,5.011,4.587,5.477
			C8.016,11.939,8,11.968,8,12v4H7c-0.553,0-1,0.447-1,1s0.447,1,1,1h4c0.553,0,1-0.447,1-1s-0.447-1-1-1h-1v-4
			c0-0.032-0.016-0.061-0.019-0.092C12.584,11.442,14.568,9.167,14.568,6.432z M9,10c-1.773,0-3.236-1.303-3.511-3h7.021
			C12.236,8.697,10.773,10,9,10z M5.445,6c0.062-1.468,0.422-3.093,0.653-4h5.803c0.231,0.907,0.591,2.532,0.653,4H5.445z"/>
	</g>
</g>
<g>
</g>
<g>
</g>
<g>
</g>
<g>
</g>
<g>
</g>
<g>
</g>
<g>
</g>
<g>
</g>
<g>
</g>
<g>
</g>
<g>
</g>
<g>
</g>
<g>
</g>
<g>
</g>
<g>
</g>
</svg>
