<?xml version="1.0" encoding="iso-8859-1"?>
<!-- Generator: Adobe Illustrator 18.1.1, SVG Export Plug-In . SVG Version: 6.00 Build 0)  -->
<svg version="1.1" id="Capa_1" xmlns="http://www.w3.org/2000/svg"  x="0px" y="0px"
	 viewBox="0 0 20 20" style="enable-background:new 0 0 20 20;" xml:space="preserve">
<g>
	<path style="fill:#030104;" d="M10,11h2c0.55,0,1-0.45,1-1s-0.45-1-1-1h-1V8c0-0.55-0.45-1-1-1S9,7.45,9,8v2C9,10.55,9.45,11,10,11
		z"/>
	<path style="fill:#030104;" d="M15,5.105V3c0-1.654-1.346-3-3-3H8C6.346,0,5,1.346,5,3v2.105C3.764,6.368,3,8.094,3,10
		s0.764,3.632,2,4.895V17c0,1.654,1.346,3,3,3h4c1.654,0,3-1.346,3-3v-2.105c1.236-1.262,2-2.988,2-4.895S16.236,6.368,15,5.105z
		 M7,3c0-0.551,0.449-1,1-1h4c0.551,0,1,0.449,1,1v1.809C12.117,4.297,11.094,4,10,4S7.883,4.297,7,4.809V3z M13,17
		c0,0.551-0.449,1-1,1H8c-0.551,0-1-0.449-1-1v-1.811C7.883,15.702,8.906,16,10,16s2.117-0.298,3-0.811V17z M10,15
		c-2.757,0-5-2.243-5-5s2.243-5,5-5s5,2.243,5,5S12.757,15,10,15z"/>
</g>
<g>
</g>
<g>
</g>
<g>
</g>
<g>
</g>
<g>
</g>
<g>
</g>
<g>
</g>
<g>
</g>
<g>
</g>
<g>
</g>
<g>
</g>
<g>
</g>
<g>
</g>
<g>
</g>
<g>
</g>
</svg>
