<?xml version="1.0" encoding="iso-8859-1"?>
<!-- Generator: Adobe Illustrator 18.1.1, SVG Export Plug-In . SVG Version: 6.00 Build 0)  -->
<svg version="1.1" id="Capa_1" xmlns="http://www.w3.org/2000/svg"  x="0px" y="0px"
	 viewBox="0 0 16.805 16.805" style="enable-background:new 0 0 16.805 16.805;" xml:space="preserve">
<g>
	<path style="fill:#030104;" d="M9.5,6.5h-5C4.224,6.5,4,6.724,4,7s0.224,0.5,0.5,0.5h5C9.776,7.5,10,7.276,10,7S9.776,6.5,9.5,6.5z
		"/>
	<path style="fill:#030104;" d="M15.881,11.456l-0.949-0.986l-0.537-0.537l-0.749-0.75C13.873,8.495,14,7.763,14,7
		c0-3.859-3.14-7-7-7S0,3.141,0,7s3.14,7,7,7c0.763,0,1.496-0.127,2.184-0.354l0.75,0.749l1.512,1.51l0.06,0.061l0.065,0.055
		c0.601,0.506,1.348,0.784,2.104,0.784c1.726,0,3.13-1.404,3.13-3.131C16.805,12.834,16.477,12.046,15.881,11.456z M2,7
		c0-2.757,2.243-5,5-5s5,2.243,5,5s-2.243,5-5,5S2,9.757,2,7z"/>
</g>
<g>
</g>
<g>
</g>
<g>
</g>
<g>
</g>
<g>
</g>
<g>
</g>
<g>
</g>
<g>
</g>
<g>
</g>
<g>
</g>
<g>
</g>
<g>
</g>
<g>
</g>
<g>
</g>
<g>
</g>
</svg>
