<?xml version="1.0" encoding="iso-8859-1"?>
<!-- Generator: Adobe Illustrator 18.1.1, SVG Export Plug-In . SVG Version: 6.00 Build 0)  -->
<svg version="1.1" id="Capa_1" xmlns="http://www.w3.org/2000/svg" xmlns:xlink="http://www.w3.org/1999/xlink" x="0px" y="0px"
	 viewBox="0 0 16.805 16.805" style="enable-background:new 0 0 16.805 16.805;" xml:space="preserve">
<g>
	<g>
		<path style="fill:#030104;" d="M9.805,4c1.656,0,3,1.344,3,3s-1.344,3-3,3s-3-1.344-3-3S8.149,4,9.805,4 M9.805,3
			c-2.206,0-4,1.794-4,4s1.794,4,4,4s4-1.794,4-4S12.011,3,9.805,3z"/>
	</g>
	<path style="fill:#030104;" d="M0,13.674c0,1.727,1.404,3.131,3.131,3.131c0.756,0,1.503-0.277,2.104-0.783l2.397-2.386
		C8.317,13.863,9.044,14,9.805,14c3.86,0,7-3.141,7-7s-3.14-7-7-7c-3.859,0-7,3.141-7,7c0,0.761,0.136,1.486,0.364,2.173
		l-2.245,2.283C0.328,12.046,0,12.834,0,13.674z M6.459,11.98l-2.512,2.511c-0.223,0.187-0.504,0.313-0.816,0.313
		C2.507,14.804,2,14.298,2,13.673c0-0.311,0.127-0.594,0.332-0.797l2.492-2.531C5.259,10.99,5.814,11.545,6.459,11.98z M9.805,12
		c-2.757,0-5-2.243-5-5s2.243-5,5-5s5,2.243,5,5S12.562,12,9.805,12z"/>
</g>
<g>
</g>
<g>
</g>
<g>
</g>
<g>
</g>
<g>
</g>
<g>
</g>
<g>
</g>
<g>
</g>
<g>
</g>
<g>
</g>
<g>
</g>
<g>
</g>
<g>
</g>
<g>
</g>
<g>
</g>
</svg>
