<?xml version="1.0" encoding="iso-8859-1"?>
<!-- Generator: Adobe Illustrator 18.1.1, SVG Export Plug-In . SVG Version: 6.00 Build 0)  -->
<svg version="1.1" id="Capa_1" xmlns="http://www.w3.org/2000/svg" xmlns:xlink="http://www.w3.org/1999/xlink" x="0px" y="0px"
	 viewBox="0 0 16.805 16.805" style="enable-background:new 0 0 16.805 16.805;" xml:space="preserve">
<g>
	<g>
		<path style="fill:#030104;" d="M9.5,7.5h-5C4.225,7.5,4,7.275,4,7s0.225-0.5,0.5-0.5h5C9.775,6.5,10,6.725,10,7S9.775,7.5,9.5,7.5
			z"/>
	</g>
	<path style="fill:#030104;" d="M15.881,11.456l-2.245-2.283C13.864,8.486,14,7.761,14,7c0-3.859-3.141-7-7-7S0,3.141,0,7
		s3.141,7,7,7c0.761,0,1.488-0.137,2.173-0.364l2.397,2.386c0.601,0.506,1.348,0.783,2.104,0.783c1.727,0,3.131-1.404,3.131-3.131
		C16.805,12.834,16.477,12.046,15.881,11.456z M11.98,10.346l2.492,2.531c0.205,0.203,0.332,0.486,0.332,0.797
		c0,0.625-0.507,1.131-1.131,1.131c-0.312,0-0.594-0.127-0.816-0.313l-2.512-2.511C10.991,11.545,11.546,10.99,11.98,10.346z M2,7
		c0-2.757,2.243-5,5-5s5,2.243,5,5s-2.243,5-5,5S2,9.757,2,7z"/>
</g>
<g>
</g>
<g>
</g>
<g>
</g>
<g>
</g>
<g>
</g>
<g>
</g>
<g>
</g>
<g>
</g>
<g>
</g>
<g>
</g>
<g>
</g>
<g>
</g>
<g>
</g>
<g>
</g>
<g>
</g>
</svg>
