<?xml version="1.0" encoding="iso-8859-1"?>
<!-- Generator: Adobe Illustrator 18.1.1, SVG Export Plug-In . SVG Version: 6.00 Build 0)  -->
<svg version="1.1" id="Capa_1" xmlns="http://www.w3.org/2000/svg" xmlns:xlink="http://www.w3.org/1999/xlink" x="0px" y="0px"
	 viewBox="0 0 16.806 16.806" style="enable-background:new 0 0 16.806 16.806;" xml:space="preserve">
<g>
	<path style="fill:#030104;" d="M9.806,0c-3.859,0-7,3.141-7,7c0,0.763,0.127,1.495,0.354,2.183l-0.749,0.75L1.9,10.445L0.892,11.49
		c-0.562,0.557-0.891,1.345-0.891,2.185c0,1.727,1.404,3.131,3.13,3.131c0.757,0,1.504-0.278,2.104-0.784l0.064-0.055l0.061-0.061
		l1.512-1.51l0.75-0.749C8.31,13.873,9.043,14,9.806,14c3.859,0,7-3.141,7-7S13.665,0,9.806,0z M9.806,12c-2.757,0-5-2.243-5-5
		s2.243-5,5-5s5,2.243,5,5S12.563,12,9.806,12z"/>
	<path style="fill:#030104;" d="M9.806,3c-2.205,0-4,1.794-4,4s1.795,4,4,4s4-1.794,4-4S12.011,3,9.806,3z M9.806,10
		c-1.656,0-3-1.344-3-3s1.344-3,3-3s3,1.344,3,3S11.462,10,9.806,10z"/>
</g>
<g>
</g>
<g>
</g>
<g>
</g>
<g>
</g>
<g>
</g>
<g>
</g>
<g>
</g>
<g>
</g>
<g>
</g>
<g>
</g>
<g>
</g>
<g>
</g>
<g>
</g>
<g>
</g>
<g>
</g>
</svg>
